<svg width="99" height="44" viewBox="0 0 99 44" fill="none" xmlns="http://www.w3.org/2000/svg">
<g clip-path="url(#clip0_692_21508)">
<path d="M49.0154 16.3705C48.5937 15.2971 48.0975 14.2522 47.8101 13.1272C47.3344 11.2636 47.223 9.39014 47.7233 7.52079C48.3317 5.24122 49.8334 3.66665 51.8329 2.51785C53.6466 1.4755 55.6232 0.890049 57.6596 0.470817C58.6594 0.266933 59.6665 0.115452 60.6811 0C59.1883 0.347995 57.7186 0.758221 56.3946 1.55574C53.9905 3.00913 53.0947 5.20683 53.2732 7.92529C53.3912 9.71026 53.9332 11.3856 54.5834 13.0371C55.1459 14.4725 55.8279 15.862 56.2619 17.3474C56.4813 18.099 56.691 18.8515 56.7761 19.6401C57.0423 22.0793 55.7829 23.5261 53.3174 23.5597C51.5226 23.5843 49.8064 23.174 48.1589 22.4952C46.7669 21.9221 45.3987 21.2727 44.0207 20.6554C43.953 20.6081 43.8887 20.5561 43.8282 20.4998H45.2284C45.692 20.5107 46.1546 20.4519 46.6007 20.3254C47.4367 20.0658 47.716 19.4968 47.3909 18.6828C47.0895 17.932 46.5532 17.349 45.971 16.8111C44.3498 15.3093 42.4338 14.2866 40.4032 13.4637C39.6605 13.1624 38.8949 12.9176 38.1391 12.6449C38.0417 12.6105 37.9262 12.6146 37.8477 12.4926C40.643 12.247 43.2764 12.7244 45.7434 14.0484C46.9291 14.6846 47.978 15.5124 48.9802 16.4017C48.99 16.4327 48.9973 16.4721 49.0416 16.445C49.0474 16.4491 49.0252 16.3959 49.0154 16.3705Z" fill="white"/>
<path d="M67.6127 34.5769C67.5234 35.5791 67.4317 36.5805 67.3457 37.5827C67.2229 39.0197 67.0952 40.4559 66.9912 41.8946C66.9535 42.4269 67.0296 42.4678 67.5692 42.5726C67.7977 42.6168 68.1956 42.5218 68.1604 42.9001C68.1269 43.2637 67.7511 43.1859 67.4907 43.1728C66.6338 43.1146 65.774 43.1146 64.9171 43.1728C64.8078 43.1817 64.6978 43.1773 64.5896 43.1597C64.4348 43.1335 64.2875 43.0688 64.2891 42.8837C64.2908 42.6987 64.425 42.6462 64.5888 42.6127C65.4821 42.4309 65.4895 42.4129 65.5926 41.4934C65.9988 37.9398 66.4082 34.3861 66.8209 30.8324C66.8471 30.6122 66.8455 30.3338 67.1484 30.2904C67.4513 30.247 67.5971 30.4795 67.7215 30.7203C69.2937 33.8383 70.8669 36.9552 72.4412 40.0712C72.5018 40.1899 72.5657 40.3078 72.6541 40.4764C72.9563 39.8615 73.2362 39.2949 73.5122 38.7266C74.7759 36.1244 76.039 33.5214 77.3017 30.9176C77.3377 30.8447 77.3754 30.7719 77.4138 30.7006C77.5219 30.4984 77.6038 30.2429 77.9051 30.2912C78.2065 30.3395 78.2269 30.6073 78.254 30.83C78.4562 32.5184 78.6462 34.2076 78.8394 35.8968C79.0392 37.64 79.2218 39.3857 79.4404 41.1265C79.5828 42.2516 79.8801 42.5054 81.0068 42.6062C81.2123 42.6241 81.5104 42.5595 81.4932 42.8837C81.4784 43.1662 81.1918 43.1802 80.9822 43.1728C79.989 43.14 78.9917 43.1671 78.0017 43.0532C77.4842 42.9943 77.4736 42.9427 77.6635 42.4629C77.7201 42.3221 77.7005 42.141 77.6848 41.9814C77.4442 39.5036 77.2001 37.0263 76.9528 34.5491C76.9528 34.5261 76.9307 34.5048 76.9078 34.4614C76.7252 34.5171 76.7056 34.698 76.6417 34.8282C75.4086 37.3393 74.1779 39.8525 72.9497 42.3679C72.8598 42.5655 72.7527 42.7549 72.6295 42.9337C72.4314 43.2039 72.1947 43.2088 71.9941 42.9394C71.8308 42.7054 71.683 42.4609 71.5519 42.2074C70.237 39.8279 69.0546 37.3813 67.8755 34.933C67.8181 34.8135 67.7559 34.6956 67.6954 34.5769H67.6127Z" fill="white"/>
<path d="M44.0953 36.7336C43.0455 36.7336 41.9958 36.7384 40.9469 36.7295C40.7316 36.7295 40.6326 36.7606 40.6374 37.012C40.6702 38.5628 40.5932 40.1152 40.7144 41.6653C40.7725 42.4112 40.8314 42.4841 41.5717 42.5701C41.6937 42.5848 41.8173 42.6045 41.9377 42.6118C42.1154 42.6225 42.2251 42.7118 42.2292 42.887C42.2333 43.0744 42.0892 43.1416 41.9328 43.1645C41.8114 43.1799 41.6889 43.1836 41.5668 43.176C40.4499 43.1359 39.333 43.0941 38.2162 43.176C38.1212 43.1852 38.0255 43.1824 37.9312 43.1678C37.7806 43.1416 37.6234 43.0973 37.6185 42.9058C37.6135 42.7142 37.7495 42.6413 37.9329 42.6053C38.5978 42.4767 38.5928 42.4702 38.7026 41.7905C38.7918 41.2362 38.7845 40.677 38.7845 40.1202C38.8107 37.3984 38.8336 34.6759 38.7608 31.9533C38.7419 31.2435 38.633 31.1435 37.9206 31.0911C37.8387 31.0854 37.7568 31.0837 37.6749 31.0706C37.4973 31.0428 37.3556 30.9634 37.3679 30.7587C37.3802 30.554 37.5317 30.527 37.6897 30.5188C37.8256 30.5114 37.9624 30.5115 38.0991 30.5115H41.1238C41.2737 30.5115 41.4243 30.5114 41.5725 30.5302C41.6038 30.5305 41.6347 30.5371 41.6632 30.5499C41.6918 30.5626 41.7175 30.581 41.7386 30.604C41.7597 30.6271 41.7758 30.6542 41.786 30.6838C41.7962 30.7134 41.8002 30.7447 41.7977 30.7759C41.803 30.8379 41.7853 30.8996 41.748 30.9495C41.7107 30.9993 41.6564 31.0337 41.5954 31.0461C41.4899 31.0738 41.3818 31.0904 41.2728 31.0952C40.8929 31.1108 40.6996 31.3048 40.6857 31.6823C40.6702 32.1032 40.6465 32.5249 40.6423 32.9457C40.6358 33.776 40.6423 34.6063 40.635 35.4366C40.635 35.6454 40.6865 35.7183 40.906 35.7174C43.0455 35.71 45.1859 35.7125 47.3255 35.7125C47.4589 35.7125 47.6039 35.7428 47.5982 35.5225C47.567 34.2444 47.6358 32.9646 47.5368 31.6864C47.5056 31.277 47.2911 31.1133 46.9062 31.1026C46.7415 31.0998 46.5773 31.0844 46.415 31.0567C46.3807 31.0529 46.3477 31.0422 46.3176 31.0254C46.2876 31.0087 46.2612 30.9859 46.2401 30.9588C46.2189 30.9316 46.2035 30.9005 46.1946 30.8673C46.1856 30.834 46.1835 30.7993 46.1881 30.7652C46.1947 30.6171 46.2873 30.5483 46.4239 30.5302C46.5053 30.5182 46.5874 30.5119 46.6696 30.5115C47.8275 30.5335 48.9861 30.5507 50.1446 30.5115C50.3379 30.5057 50.5999 30.4754 50.613 30.7702C50.6261 31.065 50.3788 31.0543 50.1758 31.0805C49.6206 31.1525 49.5289 31.2377 49.4847 31.7904C49.4577 32.1294 49.4528 32.4708 49.4528 32.8106C49.4572 35.4516 49.4643 38.0925 49.474 40.7335C49.474 41.1428 49.5289 41.5474 49.5559 41.9543C49.5805 42.322 49.7582 42.5275 50.1422 42.548C50.3601 42.5586 50.5762 42.5938 50.7923 42.6176C50.8265 42.6181 50.8601 42.6256 50.8913 42.6397C50.9224 42.6537 50.9503 42.674 50.9733 42.6993C50.9963 42.7245 51.0139 42.7541 51.025 42.7864C51.0361 42.8187 51.0405 42.8529 51.038 42.887C51.041 42.9494 51.0195 43.0104 50.9783 43.0574C50.9371 43.1043 50.8792 43.1333 50.8169 43.1383C50.6979 43.1647 50.5761 43.1774 50.4542 43.176C49.2963 43.1359 48.1386 43.0941 46.9808 43.176C46.8859 43.1809 46.7908 43.1743 46.6975 43.1563C46.5541 43.1301 46.4338 43.0695 46.4362 42.8959C46.4362 42.7379 46.5231 42.6585 46.6762 42.6142C47.4533 42.3932 47.4623 42.3907 47.5277 41.5703C47.6506 40.035 47.5646 38.4957 47.5982 36.9587C47.6039 36.6853 47.4344 36.7328 47.278 36.7328L44.0953 36.7336Z" fill="white"/>
<path d="M32.7464 40.2481C32.7464 39.2656 32.7587 38.3255 32.7464 37.3888C32.7194 35.7012 32.676 34.0137 32.6383 32.3269C32.6393 32.1499 32.6292 31.973 32.608 31.7972C32.531 31.2747 32.3959 31.1544 31.8711 31.1093C31.6942 31.0946 31.5165 31.0938 31.3413 31.0693C31.1661 31.0447 31.0653 30.9554 31.0711 30.7703C31.0768 30.5853 31.1931 30.5329 31.3413 30.5247C31.5722 30.5141 31.8039 30.5141 32.0348 30.5182C32.8659 30.5321 33.697 30.5526 34.5281 30.5026C34.5959 30.4961 34.6642 30.4961 34.7319 30.5026C34.9138 30.5272 35.1627 30.4846 35.1864 30.7425C35.2102 31.0005 34.9809 31.0536 34.768 31.0832C34.1203 31.1732 34.0311 31.2731 34.0245 31.9503C34.0065 35.3543 33.9904 38.7579 33.9762 42.1609C33.9762 42.4187 33.9681 42.6784 33.9426 42.9354C33.9082 43.2941 33.7297 43.385 33.4178 43.1967C33.2452 43.0874 33.0837 42.9615 32.9355 42.8209C31.0146 41.0636 29.2108 39.1877 27.4068 37.3135C26.2179 36.0779 25.0422 34.83 23.8573 33.5838C23.7124 33.6787 23.7803 33.8131 23.7828 33.9203C23.8374 36.3565 23.8972 38.7925 23.9621 41.2282C23.9655 41.3654 23.9781 41.5022 23.9998 41.6376C24.1259 42.4434 24.1857 42.4933 24.9996 42.5899C25.2255 42.6169 25.5834 42.549 25.5571 42.9027C25.531 43.2565 25.1781 43.1909 24.9316 43.1803C23.9114 43.1218 22.8887 43.1218 21.8684 43.1803C21.7734 43.1885 21.6777 43.1852 21.5835 43.1704C21.4304 43.1442 21.2773 43.0885 21.2813 42.9002C21.2813 42.7299 21.3944 42.6546 21.5671 42.6128C22.5497 42.3983 22.566 42.3803 22.5677 41.365C22.5754 38.0427 22.5789 34.7208 22.5783 31.3992C22.5783 31.1413 22.5628 30.8825 22.6373 30.6287C22.7446 30.2627 22.9648 30.1735 23.2743 30.4043C23.4653 30.5581 23.6439 30.7267 23.8082 30.9087C26.6708 33.8995 29.5328 36.8915 32.3943 39.8845C32.4999 40.0008 32.6138 40.1139 32.7464 40.2481Z" fill="white"/>
<path d="M64.8202 36.5742C64.8063 40.3694 61.9274 43.2884 58.1215 43.3761C56.2735 43.4186 54.5507 43.0248 53.1866 41.7164C51.2469 39.8552 50.6262 37.5519 51.4048 35.0021C52.2032 32.3819 54.0374 30.8114 56.7746 30.3725C58.0173 30.1701 59.2901 30.2613 60.4912 30.6386C63.2178 31.4828 64.8317 33.71 64.8202 36.5742ZM58.2698 42.4041C60.3086 42.4172 61.8939 41.2578 62.4768 39.3115C62.8625 38.0227 62.8862 36.7102 62.6406 35.3943C62.1493 32.7274 60.1768 31.1086 57.5402 31.1962C55.4719 31.2658 53.9521 32.4597 53.4044 34.4527C53.0695 35.6719 53.0826 36.9017 53.3364 38.1299C53.8686 40.7289 55.7904 42.387 58.2665 42.4041H58.2698Z" fill="white"/>
<path d="M9.01251 40.1705C10.0287 37.7377 10.9449 35.3828 11.8357 33.0181C12.2812 31.8366 12.7013 30.6436 13.1295 29.4555C13.1759 29.3279 13.2117 29.1967 13.2367 29.0632C13.3186 28.6178 13.2294 28.4901 12.7848 28.4426C12.6365 28.4254 12.4859 28.4295 12.3361 28.4197C12.1862 28.4098 12.0707 28.3378 12.0585 28.174C12.052 28.1048 12.0724 28.0357 12.1156 27.9813C12.1587 27.9268 12.2213 27.8911 12.2902 27.8817C12.4093 27.8536 12.5315 27.8409 12.6538 27.844C13.7837 27.8653 14.9129 27.9259 16.0429 27.844C16.1527 27.8373 16.263 27.8461 16.3704 27.8702C16.5137 27.9022 16.6201 27.9824 16.6119 28.1511C16.6124 28.1853 16.606 28.2193 16.5931 28.2511C16.5804 28.2829 16.5613 28.3118 16.5373 28.3362C16.5132 28.3605 16.4846 28.3799 16.453 28.3931C16.4214 28.4063 16.3874 28.4131 16.3532 28.4131C16.2041 28.4311 16.056 28.4475 15.9069 28.4622C15.4606 28.5081 15.1602 28.7587 14.9473 29.137C14.4175 30.0769 14.0727 31.0972 13.6576 32.0847C12.1682 35.6301 10.75 39.2083 9.1468 42.7031C9.07632 42.8652 8.99649 43.0233 8.9077 43.1763C8.69563 43.5243 8.40086 43.5292 8.18141 43.1812C8.07767 43.0056 7.99024 42.8209 7.92021 42.6293C6.228 38.4032 4.53579 34.177 2.84357 29.9509C2.59302 29.3253 2.33591 28.6948 1.57523 28.5245C1.33448 28.4787 1.09109 28.448 0.846493 28.4328C0.669629 28.4163 0.50341 28.382 0.492765 28.1748C0.479664 27.9112 0.691736 27.8596 0.884157 27.8596C1.49744 27.8531 2.11238 27.8383 2.72321 27.8857C3.5977 27.9537 4.46564 27.8129 5.33686 27.8514C5.59479 27.862 5.97799 27.781 5.99191 28.1503C6.00583 28.5195 5.61936 28.4123 5.38599 28.4434C4.78007 28.5253 4.69245 28.6252 4.90944 29.2106C5.89201 31.8734 6.89588 34.5329 7.89155 37.1908C8.25511 38.1528 8.61784 39.1182 9.01251 40.1705Z" fill="white"/>
<path d="M85.8342 43.2052C84.8701 43.1088 83.8994 43.0968 82.9332 43.1691C82.8112 43.1806 82.6884 43.1806 82.5664 43.1691C82.3895 43.1478 82.193 43.1209 82.1988 42.8768C82.2045 42.668 82.3625 42.6312 82.5369 42.5984C83.1781 42.474 83.1797 42.469 83.2738 41.8066C83.3926 40.9952 83.3696 40.1764 83.3713 39.3608C83.3779 36.897 83.4097 34.4332 83.341 31.9702C83.3197 31.2333 83.2206 31.1425 82.4795 31.0843C82.3577 31.0786 82.2368 31.0591 82.1193 31.0262C82.0591 31.0088 82.0078 30.9692 81.9758 30.9154C81.9438 30.8615 81.9337 30.7975 81.9473 30.7363C81.952 30.6809 81.9768 30.6292 82.0171 30.591C82.0575 30.5528 82.1105 30.5308 82.166 30.5291C82.3423 30.5127 82.5189 30.5051 82.6958 30.5062C84.5086 30.5155 86.3212 30.5258 88.1335 30.5373C88.4878 30.5484 88.8416 30.5045 89.1824 30.4071C89.4869 30.3121 89.618 30.4481 89.5696 30.7232C89.4665 31.3013 89.4289 31.8843 89.3658 32.4648C89.3461 32.6409 89.2749 32.8259 89.0457 32.8234C88.8 32.8234 88.7672 32.6179 88.7672 32.4443C88.7672 31.7074 88.4324 31.6853 87.9116 31.5977C87.1002 31.461 86.2797 31.5354 85.4642 31.4978C85.2636 31.4888 85.2136 31.5592 85.2185 31.7516C85.2261 33.0715 85.2261 34.3917 85.2185 35.7122C85.2185 35.9218 85.2734 35.9964 85.4895 35.9898C86.3902 35.9603 87.2909 35.9481 88.1867 35.9235C88.3099 35.9272 88.4325 35.904 88.5457 35.8551C88.6589 35.8063 88.76 35.7332 88.8418 35.641C88.9351 35.5312 89.0563 35.465 89.202 35.546C89.3322 35.6181 89.3347 35.7491 89.311 35.8735C89.1881 36.5032 89.1587 37.1419 89.1103 37.7797C89.0956 37.968 89.0661 38.1965 88.8147 38.1982C88.5478 38.1982 88.5691 37.968 88.5421 37.7781C88.4766 37.2237 88.3963 37.1124 87.8551 37.0411C87.0437 36.9338 86.2232 36.9732 85.4068 36.9388C85.2169 36.9306 85.2234 37.0444 85.2242 37.1722C85.2242 38.533 85.2169 39.8947 85.239 41.2555C85.2488 41.868 85.4609 42.0744 86.0709 42.1603C86.8558 42.2636 87.6512 42.2561 88.434 42.1382C88.9499 42.0621 89.2618 41.7599 89.3773 41.2539C89.4076 41.1221 89.4338 40.9879 89.4747 40.8593C89.4888 40.7984 89.5257 40.7451 89.5777 40.7104C89.6297 40.6757 89.693 40.6622 89.7547 40.6726C89.7856 40.6738 89.8159 40.6812 89.8438 40.6943C89.8717 40.7073 89.8969 40.7258 89.9176 40.7487C89.9383 40.7716 89.9542 40.7984 89.9646 40.8275C89.9748 40.8566 89.9792 40.8874 89.9774 40.9182C89.9774 41.5872 89.9095 42.2504 89.6778 42.8834C89.5746 43.1642 89.297 43.2035 89.0227 43.2035L85.8342 43.2052Z" fill="white"/>
<path d="M93.408 43.4462C92.6016 43.4314 91.8078 43.3512 91.0436 43.0589C90.7033 42.9279 90.5318 42.719 90.5524 42.3563C90.5857 41.7315 90.6135 41.106 90.6539 40.482C90.6665 40.3027 90.7123 40.1071 90.9511 40.1194C91.1909 40.1317 91.2295 40.3134 91.2277 40.5025C91.216 41.6726 92.07 42.2335 92.9518 42.4079C93.5256 42.5366 94.1218 42.5298 94.6929 42.3882C96.1135 42.0083 96.6577 40.4297 95.7902 39.2416C95.4885 38.8321 95.0889 38.521 94.6938 38.2082C93.9036 37.5834 93.0631 37.0242 92.3196 36.3389C91.6911 35.7583 91.1451 35.1148 90.9547 34.255C90.6099 32.6935 91.4028 31.2704 92.9195 30.703C94.085 30.2658 95.2721 30.3402 96.4646 30.5622C96.532 30.5752 96.5966 30.5982 96.6631 30.6088C97.4497 30.7423 97.4425 30.7415 97.3814 31.5259C97.35 31.9353 97.3509 32.3447 97.3365 32.7492C97.3302 32.9359 97.3024 33.1259 97.0707 33.139C96.84 33.1521 96.7807 32.967 96.7609 32.782C96.6792 31.9631 96.1512 31.5865 95.4041 31.4285C94.8447 31.2995 94.2628 31.2995 93.7034 31.4285C92.4274 31.7404 91.9658 32.994 92.7309 34.0691C93.0838 34.5661 93.5741 34.9158 94.0599 35.2671C94.7863 35.7927 95.5568 36.2603 96.2267 36.8653C96.9567 37.5253 97.5646 38.268 97.7379 39.2711C98.0971 41.3566 96.769 43.0998 94.6346 43.3651C94.2287 43.4263 93.8183 43.4534 93.408 43.4462Z" fill="white"/>
<path d="M18.3768 43.1797H16.7006C16.5913 43.1854 16.4816 43.1808 16.3732 43.1658C16.2192 43.1362 16.0824 43.0708 16.0923 42.8759C16.0996 42.7121 16.2044 42.6523 16.3527 42.6131C17.1166 42.4091 17.1158 42.4059 17.1772 41.6379C17.3197 39.8578 17.2452 38.0743 17.2591 36.2926C17.2681 34.8769 17.2591 33.4612 17.2394 32.0462C17.2304 31.2774 17.1641 31.2144 16.4042 31.0858C16.2118 31.053 16.0398 30.9875 16.0513 30.7681C16.0636 30.5331 16.27 30.5118 16.4484 30.5118C17.3885 30.5118 18.3317 30.5176 19.2684 30.52C19.4862 30.52 19.704 30.5053 19.9235 30.5151C20.0872 30.5216 20.2674 30.5486 20.2731 30.7722C20.278 30.981 20.1249 31.04 19.9538 31.076C19.171 31.2397 19.1301 31.2823 19.1293 32.0864C19.1259 34.9036 19.1259 37.7209 19.1293 40.5382C19.1293 41 19.1808 41.4618 19.2112 41.9228C19.2365 42.3264 19.4371 42.5459 19.8563 42.5541C20.0332 42.5541 20.2084 42.5934 20.3844 42.6097C20.5605 42.6262 20.6808 42.6802 20.6923 42.8685C20.7046 43.0855 20.5466 43.1641 20.3788 43.169C19.9693 43.1797 19.5599 43.169 19.1505 43.1559C18.8918 43.1493 18.633 43.1306 18.3751 43.1174L18.3768 43.1797Z" fill="white"/>
<path d="M49.0124 16.3711C49.0224 16.4002 49.0448 16.4543 49.039 16.4543C48.9941 16.4818 48.9865 16.4419 48.9766 16.4102L49.0124 16.3711Z" fill="white"/>
</g>
<defs>
<clipPath id="clip0_692_21508">
<rect width="97.8776" height="44" fill="white" transform="translate(0.492188)"/>
</clipPath>
</defs>
</svg>
