<svg width="107" height="44" viewBox="0 0 107 44" fill="none" xmlns="http://www.w3.org/2000/svg">
<g clip-path="url(#clip0_692_21501)">
<path d="M10.4739 3.08008H3.19922V10.3547H10.4739V3.08008Z" fill="white"/>
<path d="M10.284 70.9207V44.7554H3.39062V70.9207H10.284ZM55.9706 71.1847V64.7754C54.9586 64.7754 54.1226 64.7167 53.4773 64.6141C52.7733 64.4967 52.216 64.2621 51.864 63.8954C51.4973 63.5287 51.2626 63.0007 51.1453 62.3261C51.0426 61.6807 50.984 60.8301 50.984 59.8034V50.6514H55.9706V44.7554H50.984V34.5621H44.0906V59.8474C44.0906 61.9741 44.2813 63.7927 44.648 65.2447C45.0146 66.6674 45.6306 67.8407 46.4813 68.7207C47.332 69.6007 48.476 70.2314 49.84 70.6127C51.2333 70.9941 52.9933 71.1847 55.0906 71.1847H55.9706ZM95.468 70.9207V32.5527H88.5746V70.9207H95.468ZM37.4466 47.3367C35.5253 45.2687 32.8266 44.2274 29.424 44.2274C27.7813 44.2274 26.256 44.5647 24.9066 45.2394C23.5573 45.9141 22.3986 46.8527 21.4893 48.0261L21.108 48.5101V48.0701V44.7554H14.3026V70.9207H21.152V56.9874V57.9554C21.152 57.7941 21.152 57.6327 21.152 57.4861C21.2253 55.0367 21.8266 53.2181 22.9706 52.0594C24.188 50.8274 25.6546 50.1967 27.3413 50.1967C29.336 50.1967 30.8466 50.8127 31.8586 52.0007C32.8413 53.1741 33.34 54.8607 33.3546 57.0167V57.0754V57.0901V70.9207H40.3066V56.0634C40.3213 52.3381 39.3533 49.4047 37.4466 47.3367ZM84.9813 57.7794C84.9813 55.9021 84.644 54.1274 83.984 52.4847C83.324 50.8567 82.3853 49.4047 81.212 48.1581C80.0386 46.9261 78.6013 45.9434 76.944 45.2541C75.3013 44.5794 73.4533 44.2274 71.4733 44.2274C69.596 44.2274 67.8066 44.5941 66.164 45.2981C64.5066 46.0167 63.0546 46.9847 61.8373 48.2021C60.62 49.4194 59.6373 50.8714 58.9333 52.5287C58.2146 54.1714 57.8626 55.9607 57.8626 57.8381C57.8626 59.7154 58.2 61.5047 58.8893 63.1474C59.564 64.8047 60.5173 66.2567 61.72 67.4594C62.9226 68.6767 64.3893 69.6594 66.0906 70.3634C67.792 71.0821 69.684 71.4341 71.6933 71.4341C77.5306 71.4341 81.168 68.7794 83.3386 66.3007L78.3813 62.5167C77.34 63.7634 74.8613 65.4354 71.752 65.4354C69.8013 65.4354 68.2026 64.9807 67 64.1007C65.7826 63.2061 64.9466 61.9887 64.5066 60.4634L64.4333 60.2141H84.9813V57.7794ZM64.492 55.3887C64.492 53.4674 66.692 50.1234 71.4293 50.1234C76.1666 50.1234 78.3666 53.4674 78.3666 55.3741L64.492 55.3887Z" fill="white"/>
</g>
<defs>
<clipPath id="clip0_692_21501">
<rect width="105.6" height="44" fill="white" transform="translate(0.558594)"/>
</clipPath>
</defs>
</svg>
