<svg width="92" height="44" viewBox="0 0 92 44" fill="none" xmlns="http://www.w3.org/2000/svg">
<g clip-path="url(#clip0_692_21546)">
<path d="M40.0842 8.46966C40.8029 9.23963 41.8038 9.75294 42.9074 9.75294C45.1275 9.75294 46.9112 7.95634 46.9112 5.64644C46.9112 3.46486 45.1275 1.66826 42.9074 1.66826C42.9074 1.66826 39.8275 1.41161 38.4416 5.38978V2.43824C39.4682 1.02663 41.0723 0 42.9074 0C46.0386 0 48.5538 2.56656 48.5538 5.64644C48.5538 8.85465 46.0386 11.2928 42.9074 11.2928C41.3546 11.2928 39.943 10.6512 38.9164 9.75294L36.9658 7.57136C36.4396 6.92972 35.7081 6.67307 34.8997 6.67307C33.2828 6.67307 31.9738 7.95634 31.9738 9.62461C31.9738 11.1646 33.2828 12.4478 34.8997 12.4478C34.8997 12.4478 37.0684 12.8328 38.4416 10.1379V12.4478C37.5946 13.4745 36.3241 14.1161 34.8997 14.1161C32.3845 14.1161 30.3312 12.0628 30.3312 9.62461C30.3312 7.05805 32.3845 5.00479 34.8997 5.00479C36.1701 5.00479 37.2995 5.51811 38.1336 6.28808L40.0842 8.46966ZM47.1679 15.5277L46.0643 19.2492C46.9498 17.5809 48.3485 17.5809 48.3485 17.5809H51.8776V33.8786C51.8776 34.7769 51.1846 35.8036 50.2862 35.8036H56.9336C56.0354 35.8036 55.3424 34.7769 55.3424 33.8786V17.5809H58.2811C59.1922 17.5809 59.9237 18.3509 59.9237 19.2492L61.0145 15.5277H47.1679ZM71.8583 18.8643C70.7674 17.0676 68.2137 17.196 68.2137 17.196C64.1585 17.196 64.3382 20.4042 64.3382 20.4042C64.3382 20.4042 64.0687 22.0725 66.0963 23.0991L70.1772 25.2806C74.104 27.4623 73.642 30.5421 73.642 30.5421C73.642 30.5421 73.8216 36.3169 65.6087 36.3169C65.6087 36.3169 63.2217 36.4452 61.8743 35.9319L60.6809 32.0821C61.9 34.007 65.6471 34.2636 65.6471 34.2636C70.2413 34.1353 70.2798 30.7987 70.2798 30.7987C70.2798 30.7987 70.498 29.5155 68.6885 28.4888L64.6333 26.1789C60.3985 23.869 60.8862 20.7891 60.8862 20.7891C60.8862 20.7891 60.7836 15.1427 68.0597 15.1427C68.0597 15.1427 71.3321 15.271 71.8583 15.7844V18.8643ZM78.48 30.4138C78.48 32.467 80.1996 34.2636 82.3041 34.2636C84.4087 34.2636 86.1155 32.467 86.1155 30.2855V17.4527C86.1155 16.5544 85.4225 15.5277 84.5242 15.5277H91.1716C90.2733 15.5277 89.5804 16.5544 89.5804 17.4527V30.0288C89.5804 34.007 86.3337 36.3169 82.3298 36.3169C78.3003 36.3169 75.0151 34.007 75.0151 30.0288L75.0279 17.4527C75.0279 16.5544 74.335 15.5277 73.4239 15.5277H80.0969C79.1858 15.5277 78.48 16.5544 78.48 17.4527V30.4138ZM37.03 17.4527C37.03 16.5544 37.723 15.5277 38.6469 15.5277H31.9738C32.885 15.5277 33.578 16.5544 33.578 17.4527V37.9851C33.578 37.9851 33.5138 41.7066 30.6392 43.7599C30.6392 43.7599 37.0556 42.8616 37.0556 36.8302L37.03 17.4527ZM18.6148 30.4138C18.6148 32.467 20.3216 34.2636 22.4134 34.2636C24.518 34.2636 26.2376 32.467 26.2376 30.2855V17.4527C26.2376 16.5544 25.5446 15.5277 24.6334 15.5277H31.2937C30.3826 15.5277 29.6896 16.5544 29.6896 17.4527V30.0288C29.6896 34.007 26.4557 36.3169 22.439 36.3169C18.4096 36.3169 15.1372 34.007 15.1372 30.0288V17.4527C15.1372 16.5544 14.4442 15.5277 13.5459 15.5277H20.1934C19.2822 15.5277 18.6148 16.5544 18.6148 17.4527V30.4138ZM5.29441 25.9223H9.92706C10.8254 25.9223 11.6723 26.564 11.6723 27.4623L11.6595 23.869H5.29441V17.5809H11.467C12.3782 17.5809 13.2122 18.3509 13.2122 19.2492V15.5277H0.238281C1.14941 15.5277 1.82955 16.5544 1.82955 17.4527V33.8786C1.82955 34.7769 1.14941 35.8036 0.238281 35.8036H6.89851C5.98738 35.8036 5.29441 34.7769 5.29441 33.8786V25.9223ZM40.9311 17.4527C40.9311 16.5544 40.2382 15.5277 39.3399 15.5277H45.9872C45.0889 15.5277 44.396 16.5544 44.396 17.4527V33.8786C44.396 34.7769 45.0889 35.8036 45.9872 35.8036H39.3399C40.2382 35.8036 40.9311 34.7769 40.9311 33.8786V17.4527Z" fill="white"/>
</g>
<defs>
<clipPath id="clip0_692_21546">
<rect width="90.9333" height="44" fill="white" transform="translate(0.238281)"/>
</clipPath>
</defs>
</svg>
