<svg width="69" height="44" viewBox="0 0 69 44" fill="none" xmlns="http://www.w3.org/2000/svg">
<path d="M44.6492 32.825V16.5586C50.5219 16.2427 53.1529 20.4172 53.1529 25.166C53.1529 29.9148 50.3912 33.2068 44.6492 32.825ZM38.6172 11.2988V38.3407H44.4631C53.6741 38.3407 59.1455 32.5877 59.1455 25.0495C59.1455 17.5112 54.1148 11.2988 43.2909 11.2988H38.6172Z" fill="white"/>
<path d="M56.2188 11.2988L69.956 39.0813L73.2631 32.0346L63.247 11.2988H56.2188Z" fill="white"/>
<path d="M37.1539 38.3419L21.782 4.56836L6.27344 38.3419H13.8597L16.0592 32.6929H27.0623L29.2618 38.3419H37.1539ZM17.7048 27.7524L21.5649 18.1982L25.4159 27.7524H17.7039H17.7048Z" fill="white"/>
</svg>
