<svg width="113" height="44" viewBox="0 0 113 44" fill="none" xmlns="http://www.w3.org/2000/svg">
<g clip-path="url(#clip0_692_21521)">
<path fill-rule="evenodd" clip-rule="evenodd" d="M15.0562 41.3741L8.50401 39.0228V29.4192L15.0562 31.6517V41.3741ZM16.2581 41.3741L22.8103 39.0232V29.4192L16.2581 31.6517V41.3741ZM9.17732 28.7009L15.8086 26.834L21.9577 28.8167L15.8086 30.9045L9.17732 28.7009ZM7.25531 27.9572L0.703125 25.6067V16.0023L7.25531 18.2347V27.9572ZM8.45722 27.9572L15.0099 25.6067V16.0023L8.45722 18.2347V27.9572ZM1.37644 15.2835L8.0082 13.4169L14.1573 15.3998L8.0082 17.4874L1.37644 15.2835ZM22.5444 27.9572L15.9918 25.6067V16.0023L22.5444 18.2347V27.9572ZM23.7463 27.9572L30.299 25.6067V16.0023L23.7463 18.2347V27.9572ZM16.666 15.2835L23.2973 13.4169L29.446 15.3998L23.2973 17.4874L16.666 15.2835ZM30.3453 14.5393L23.7927 12.1897V2.58529L30.3453 4.81729V14.5393ZM31.5472 14.5393L38.0994 12.1897V2.58529L31.5468 4.81729L31.5472 14.5393ZM24.4665 1.86693L31.0982 0L37.2469 1.98235L31.0982 4.07052L24.4665 1.86693ZM45.6349 14.5393L39.0823 12.1897V2.58529L45.6349 4.81729V14.5393ZM46.8364 14.5393L53.389 12.1897V2.58529L46.8364 4.81729V14.5393ZM39.7556 1.86693L46.3874 0L52.5359 1.98235L46.3874 4.07008L39.7556 1.86693Z" fill="white"/>
<path fill-rule="evenodd" clip-rule="evenodd" d="M42.2996 35.1172L40.0986 42.7638H39.1425L37.4285 37.0843L35.8576 42.7638H34.8827L32.5938 35.1172H33.7764L35.4427 40.8155L37.029 35.1172H37.9016L39.626 40.8339L41.3386 35.1172H42.2996Z" fill="white"/>
<path fill-rule="evenodd" clip-rule="evenodd" d="M42.2996 35.1172L40.0986 42.7638H39.1425L37.4285 37.0843L35.8576 42.7638H34.8827L32.5938 35.1172H33.7764L35.4427 40.8155L37.029 35.1172H37.9016L39.626 40.8339L41.3386 35.1172H42.2996Z" fill="white" stroke="white" stroke-width="0.427283"/>
<path fill-rule="evenodd" clip-rule="evenodd" d="M48.3909 40.482L49.4988 40.7092C49.2973 41.3629 48.9042 41.9046 48.3205 42.3326C47.7355 42.7612 47.0482 42.9754 46.2568 42.9754C45.2141 42.9754 44.3703 42.6081 43.7254 41.8727C43.08 41.1382 42.7578 40.1737 42.7578 38.9814C42.7578 37.7637 43.0931 36.7799 43.763 36.0297C44.4328 35.2794 45.2744 34.9043 46.2874 34.9043C47.2856 34.9043 48.0875 35.2497 48.6948 35.9405C49.3016 36.6313 49.613 37.6649 49.6283 39.0413H44.0786C44.0786 40.1977 44.32 40.9773 44.8035 41.3817C45.2867 41.7853 45.7978 41.9873 46.3364 41.9873C47.3084 41.9873 47.9935 41.4854 48.3909 40.482ZM48.3263 38.1551C48.3161 37.7265 48.2457 37.3453 48.1147 37.0121C47.9835 36.6794 47.7622 36.3957 47.4501 36.1609C47.1379 35.9265 46.7623 35.8094 46.3242 35.8094C45.7353 35.8094 45.2355 36.021 44.825 36.445C44.4145 36.8692 44.1844 37.4384 44.1342 38.1546L48.3263 38.1551Z" fill="white"/>
<path fill-rule="evenodd" clip-rule="evenodd" d="M48.3909 40.482L49.4988 40.7092C49.2973 41.3629 48.9042 41.9046 48.3205 42.3326C47.7355 42.7612 47.0482 42.9754 46.2568 42.9754C45.2141 42.9754 44.3703 42.6081 43.7254 41.8727C43.08 41.1382 42.7578 40.1737 42.7578 38.9814C42.7578 37.7637 43.0931 36.7799 43.763 36.0297C44.4328 35.2794 45.2744 34.9043 46.2874 34.9043C47.2856 34.9043 48.0875 35.2497 48.6948 35.9405C49.3016 36.6313 49.613 37.6649 49.6283 39.0413H44.0786C44.0786 40.1977 44.32 40.9773 44.8035 41.3817C45.2867 41.7853 45.7978 41.9873 46.3364 41.9873C47.3084 41.9873 47.9935 41.4854 48.3909 40.482ZM48.3263 38.1551C48.3161 37.7265 48.2457 37.3453 48.1147 37.0121C47.9835 36.6794 47.7622 36.3957 47.4501 36.1609C47.1379 35.9265 46.7623 35.8094 46.3242 35.8094C45.7353 35.8094 45.2355 36.021 44.825 36.445C44.4145 36.8692 44.1844 37.4384 44.1342 38.1546L48.3263 38.1551Z" fill="white" stroke="white" stroke-width="0.427283"/>
<path fill-rule="evenodd" clip-rule="evenodd" d="M51.768 42.7636H51.1953V32.4395H52.3867V36.392C52.9307 35.4003 53.6805 34.905 54.6366 34.905C55.512 34.905 56.2456 35.2508 56.8372 35.9434C57.4288 36.6355 57.7247 37.6407 57.7247 38.9593C57.7247 40.0961 57.4336 41.0492 56.8521 41.82C56.2696 42.5909 55.5128 42.976 54.5808 42.976C53.5428 42.976 52.747 42.4833 52.1931 41.4982L51.768 42.7636ZM52.3867 39.7656C52.4423 40.5508 52.6831 41.12 53.109 41.4751C53.5349 41.8293 53.9852 42.0067 54.4587 42.0067C55.0638 42.0067 55.5517 41.7439 55.9221 41.2185C56.2929 40.6933 56.4774 39.9737 56.4774 39.0594C56.4774 38.0752 56.299 37.3009 55.9409 36.7378C55.5828 36.1746 55.0861 35.8926 54.4513 35.8926C53.9524 35.8926 53.5025 36.0938 53.1016 36.4938C52.7006 36.8952 52.4624 37.4133 52.3867 38.0485V39.7656Z" fill="white"/>
<path fill-rule="evenodd" clip-rule="evenodd" d="M51.768 42.7636H51.1953V32.4395H52.3867V36.392C52.9307 35.4003 53.6805 34.905 54.6366 34.905C55.512 34.905 56.2456 35.2508 56.8372 35.9434C57.4288 36.6355 57.7247 37.6407 57.7247 38.9593C57.7247 40.0961 57.4336 41.0492 56.8521 41.82C56.2696 42.5909 55.5128 42.976 54.5808 42.976C53.5428 42.976 52.747 42.4833 52.1931 41.4982L51.768 42.7636ZM52.3867 39.7656C52.4423 40.5508 52.6831 41.12 53.109 41.4751C53.5349 41.8293 53.9852 42.0067 54.4587 42.0067C55.0638 42.0067 55.5517 41.7439 55.9221 41.2185C56.2929 40.6933 56.4774 39.9737 56.4774 39.0594C56.4774 38.0752 56.299 37.3009 55.9409 36.7378C55.5828 36.1746 55.0861 35.8926 54.4513 35.8926C53.9524 35.8926 53.5025 36.0938 53.1016 36.4938C52.7006 36.8952 52.4624 37.4133 52.3867 38.0485V39.7656Z" fill="white" stroke="white" stroke-width="0.427283"/>
<path fill-rule="evenodd" clip-rule="evenodd" d="M60.7578 40.7814L61.8932 40.5466C62.146 41.5072 62.9439 41.9873 64.2866 41.9873C64.7806 41.9873 65.2004 41.8767 65.5432 41.655C65.8868 41.4337 66.0582 41.1216 66.0582 40.7188C66.0582 40.1199 65.6215 39.74 64.7474 39.579L63.1371 39.2726C62.5063 39.1514 62.0048 38.914 61.6314 38.5608C61.2584 38.2075 61.0716 37.7406 61.0716 37.16C61.0716 36.5194 61.3261 35.9829 61.8355 35.5514C62.3445 35.1199 63.0305 34.9043 63.8927 34.9043C65.5515 34.9043 66.5754 35.5527 66.9632 36.8491L65.8737 37.0834C65.5611 36.2894 64.9188 35.8919 63.9464 35.8919C63.4624 35.8919 63.0655 35.9917 62.7554 36.1897C62.4459 36.3882 62.2907 36.6654 62.2907 37.0222C62.2907 37.584 62.6868 37.9377 63.4785 38.0838L64.9673 38.3579C66.526 38.6403 67.3047 39.3967 67.3047 40.6249C67.3047 41.3271 67.0148 41.895 66.4346 42.3266C65.8544 42.7594 65.0823 42.9754 64.1183 42.9754C62.3068 42.9754 61.1862 42.2439 60.7578 40.7814Z" fill="white"/>
<path fill-rule="evenodd" clip-rule="evenodd" d="M60.7578 40.7814L61.8932 40.5466C62.146 41.5072 62.9439 41.9873 64.2866 41.9873C64.7806 41.9873 65.2004 41.8767 65.5432 41.655C65.8868 41.4337 66.0582 41.1216 66.0582 40.7188C66.0582 40.1199 65.6215 39.74 64.7474 39.579L63.1371 39.2726C62.5063 39.1514 62.0048 38.914 61.6314 38.5608C61.2584 38.2075 61.0716 37.7406 61.0716 37.16C61.0716 36.5194 61.3261 35.9829 61.8355 35.5514C62.3445 35.1199 63.0305 34.9043 63.8927 34.9043C65.5515 34.9043 66.5754 35.5527 66.9632 36.8491L65.8737 37.0834C65.5611 36.2894 64.9188 35.8919 63.9464 35.8919C63.4624 35.8919 63.0655 35.9917 62.7554 36.1897C62.4459 36.3882 62.2907 36.6654 62.2907 37.0222C62.2907 37.584 62.6868 37.9377 63.4785 38.0838L64.9673 38.3579C66.526 38.6403 67.3047 39.3967 67.3047 40.6249C67.3047 41.3271 67.0148 41.895 66.4346 42.3266C65.8544 42.7594 65.0823 42.9754 64.1183 42.9754C62.3068 42.9754 61.1862 42.2439 60.7578 40.7814Z" fill="white" stroke="white" stroke-width="0.427283"/>
<path fill-rule="evenodd" clip-rule="evenodd" d="M73.6405 40.482L74.7484 40.7092C74.5473 41.3629 74.1542 41.9046 73.5697 42.3326C72.9855 42.7612 72.2974 42.9754 71.5068 42.9754C70.4636 42.9754 69.6194 42.6081 68.9749 41.8727C68.3296 41.1382 68.0078 40.1737 68.0078 38.9814C68.0078 37.7637 68.3423 36.7799 69.0134 36.0297C69.6832 35.2794 70.5244 34.9043 71.5374 34.9043C72.5348 34.9043 73.3375 35.2497 73.9448 35.9405C74.5521 36.6313 74.863 37.6649 74.8778 39.0413H69.3282C69.3282 40.1977 69.57 40.9773 70.0531 41.3817C70.5367 41.7853 71.0478 41.9873 71.5864 41.9873C72.5579 41.9873 73.2431 41.4854 73.6405 40.482ZM73.5758 38.1551C73.5661 37.7265 73.4953 37.3453 73.3647 37.0121C73.2335 36.6794 73.0123 36.3957 72.7001 36.1609C72.3879 35.9265 72.0119 35.8094 71.5742 35.8094C70.9853 35.8094 70.4855 36.021 70.0746 36.445C69.6645 36.8692 69.4336 37.4384 69.3837 38.1546L73.5758 38.1551Z" fill="white"/>
<path fill-rule="evenodd" clip-rule="evenodd" d="M73.6405 40.482L74.7484 40.7092C74.5473 41.3629 74.1542 41.9046 73.5697 42.3326C72.9855 42.7612 72.2974 42.9754 71.5068 42.9754C70.4636 42.9754 69.6194 42.6081 68.9749 41.8727C68.3296 41.1382 68.0078 40.1737 68.0078 38.9814C68.0078 37.7637 68.3423 36.7799 69.0134 36.0297C69.6832 35.2794 70.5244 34.9043 71.5374 34.9043C72.5348 34.9043 73.3375 35.2497 73.9448 35.9405C74.5521 36.6313 74.863 37.6649 74.8778 39.0413H69.3282C69.3282 40.1977 69.57 40.9773 70.0531 41.3817C70.5367 41.7853 71.0478 41.9873 71.5864 41.9873C72.5579 41.9873 73.2431 41.4854 73.6405 40.482ZM73.5758 38.1551C73.5661 37.7265 73.4953 37.3453 73.3647 37.0121C73.2335 36.6794 73.0123 36.3957 72.7001 36.1609C72.3879 35.9265 72.0119 35.8094 71.5742 35.8094C70.9853 35.8094 70.4855 36.021 70.0746 36.445C69.6645 36.8692 69.4336 37.4384 69.3837 38.1546L73.5758 38.1551Z" fill="white" stroke="white" stroke-width="0.427283"/>
<path fill-rule="evenodd" clip-rule="evenodd" d="M77.3477 42.7629H76.1562V35.1163H77.2004V36.8989C77.568 36.0638 77.9375 35.523 78.3078 35.2759C78.6782 35.028 79.0577 34.9043 79.4463 34.9043C79.5671 34.9043 79.7235 34.9135 79.9151 34.9318V36.0677H79.6737C79.0187 36.0677 78.4753 36.3113 78.0428 36.7974C77.6096 37.2837 77.3783 37.9224 77.3477 38.7147V42.7629Z" fill="white"/>
<path fill-rule="evenodd" clip-rule="evenodd" d="M77.3477 42.7629H76.1562V35.1163H77.2004V36.8989C77.568 36.0638 77.9375 35.523 78.3078 35.2759C78.6782 35.028 79.0577 34.9043 79.4463 34.9043C79.5671 34.9043 79.7235 34.9135 79.9151 34.9318V36.0677H79.6737C79.0187 36.0677 78.4753 36.3113 78.0428 36.7974C77.6096 37.2837 77.3783 37.9224 77.3477 38.7147V42.7629Z" fill="white" stroke="white" stroke-width="0.427283"/>
<path fill-rule="evenodd" clip-rule="evenodd" d="M87.3173 35.1172L84.6774 42.7638H83.4432L80.7148 35.1172H82.0327L84.1549 41.3323L86.261 35.1172H87.3173Z" fill="white"/>
<path fill-rule="evenodd" clip-rule="evenodd" d="M87.3173 35.1172L84.6774 42.7638H83.4432L80.7148 35.1172H82.0327L84.1549 41.3323L86.261 35.1172H87.3173Z" fill="white" stroke="white" stroke-width="0.427283"/>
<path fill-rule="evenodd" clip-rule="evenodd" d="M88.2656 32.4395H89.5401V33.7599H88.2656V32.4395ZM88.3211 35.117H89.5122V42.7636H88.3211V35.117Z" fill="white"/>
<path fill-rule="evenodd" clip-rule="evenodd" d="M88.2656 32.4395H89.5401V33.7599H88.2656V32.4395ZM88.3211 35.117H89.5122V42.7636H88.3211V35.117Z" fill="white" stroke="white" stroke-width="0.427283"/>
<path fill-rule="evenodd" clip-rule="evenodd" d="M95.7379 40.0849L96.8086 40.2738C96.6574 41.1189 96.3221 41.7805 95.8027 42.2583C95.2832 42.7362 94.6352 42.9754 93.8588 42.9754C92.805 42.9754 92.0015 42.5863 91.4496 41.808C90.8979 41.0302 90.6211 40.0805 90.6211 38.9586C90.6211 37.7965 90.9127 36.8307 91.4952 36.0599C92.0771 35.2894 92.8702 34.9043 93.8736 34.9043C94.706 34.9043 95.3728 35.153 95.8743 35.6515C96.3767 36.1491 96.6876 36.7926 96.8086 37.5809L95.7375 37.7852C95.5359 36.5238 94.9264 35.8919 93.9086 35.8919C93.2536 35.8919 92.75 36.1705 92.3976 36.7275C92.0447 37.285 91.8685 38.0072 91.8685 38.8944C91.8685 39.8728 92.0434 40.6323 92.3932 41.1745C92.7438 41.7162 93.2361 41.9873 93.8709 41.9873C94.853 41.9873 95.4756 41.3529 95.7379 40.0849Z" fill="white"/>
<path fill-rule="evenodd" clip-rule="evenodd" d="M95.7379 40.0849L96.8086 40.2738C96.6574 41.1189 96.3221 41.7805 95.8027 42.2583C95.2832 42.7362 94.6352 42.9754 93.8588 42.9754C92.805 42.9754 92.0015 42.5863 91.4496 41.808C90.8979 41.0302 90.6211 40.0805 90.6211 38.9586C90.6211 37.7965 90.9127 36.8307 91.4952 36.0599C92.0771 35.2894 92.8702 34.9043 93.8736 34.9043C94.706 34.9043 95.3728 35.153 95.8743 35.6515C96.3767 36.1491 96.6876 36.7926 96.8086 37.5809L95.7375 37.7852C95.5359 36.5238 94.9264 35.8919 93.9086 35.8919C93.2536 35.8919 92.75 36.1705 92.3976 36.7275C92.0447 37.285 91.8685 38.0072 91.8685 38.8944C91.8685 39.8728 92.0434 40.6323 92.3932 41.1745C92.7438 41.7162 93.2361 41.9873 93.8709 41.9873C94.853 41.9873 95.4756 41.3529 95.7379 40.0849Z" fill="white" stroke="white" stroke-width="0.427283"/>
<path fill-rule="evenodd" clip-rule="evenodd" d="M103.528 40.482L104.636 40.7092C104.434 41.3629 104.041 41.9046 103.457 42.3326C102.873 42.7612 102.185 42.9754 101.394 42.9754C100.35 42.9754 99.5066 42.6081 98.8616 41.8727C98.2168 41.1382 97.8945 40.1737 97.8945 38.9814C97.8945 37.7637 98.2294 36.7799 98.9001 36.0297C99.5699 35.2794 100.412 34.9043 101.425 34.9043C102.422 34.9043 103.225 35.2497 103.832 35.9405C104.44 36.6313 104.75 37.6649 104.765 39.0413H99.2149C99.2149 40.1977 99.4567 40.9773 99.9398 41.3817C100.424 41.7853 100.934 41.9873 101.474 41.9873C102.445 41.9873 103.13 41.4854 103.528 40.482ZM103.463 38.1551C103.453 37.7265 103.383 37.3453 103.252 37.0121C103.121 36.6794 102.899 36.3957 102.587 36.1609C102.275 35.9265 101.899 35.8094 101.461 35.8094C100.872 35.8094 100.372 36.021 99.9613 36.445C99.5512 36.8692 99.3203 37.4384 99.2705 38.1546L103.463 38.1551Z" fill="white"/>
<path fill-rule="evenodd" clip-rule="evenodd" d="M103.528 40.482L104.636 40.7092C104.434 41.3629 104.041 41.9046 103.457 42.3326C102.873 42.7612 102.185 42.9754 101.394 42.9754C100.35 42.9754 99.5066 42.6081 98.8616 41.8727C98.2168 41.1382 97.8945 40.1737 97.8945 38.9814C97.8945 37.7637 98.2294 36.7799 98.9001 36.0297C99.5699 35.2794 100.412 34.9043 101.425 34.9043C102.422 34.9043 103.225 35.2497 103.832 35.9405C104.44 36.6313 104.75 37.6649 104.765 39.0413H99.2149C99.2149 40.1977 99.4567 40.9773 99.9398 41.3817C100.424 41.7853 100.934 41.9873 101.474 41.9873C102.445 41.9873 103.13 41.4854 103.528 40.482ZM103.463 38.1551C103.453 37.7265 103.383 37.3453 103.252 37.0121C103.121 36.6794 102.899 36.3957 102.587 36.1609C102.275 35.9265 101.899 35.8094 101.461 35.8094C100.872 35.8094 100.372 36.021 99.9613 36.445C99.5512 36.8692 99.3203 37.4384 99.2705 38.1546L103.463 38.1551Z" fill="white" stroke="white" stroke-width="0.427283"/>
<path fill-rule="evenodd" clip-rule="evenodd" d="M105.438 40.7814L106.574 40.5466C106.826 41.5072 107.624 41.9873 108.967 41.9873C109.461 41.9873 109.88 41.8767 110.223 41.655C110.567 41.4337 110.739 41.1216 110.739 40.7188C110.739 40.1199 110.302 39.74 109.428 39.579L107.818 39.2726C107.186 39.1514 106.685 38.914 106.311 38.5608C105.939 38.2075 105.752 37.7406 105.752 37.16C105.752 36.5194 106.006 35.9829 106.516 35.5514C107.025 35.1199 107.71 34.9043 108.573 34.9043C110.231 34.9043 111.256 35.5527 111.644 36.8491L110.554 37.0834C110.242 36.2894 109.599 35.8919 108.627 35.8919C108.143 35.8919 107.746 35.9917 107.436 36.1897C107.126 36.3882 106.971 36.6654 106.971 37.0222C106.971 37.584 107.367 37.9377 108.159 38.0838L109.647 38.3579C111.206 38.6403 111.985 39.3967 111.985 40.6249C111.985 41.3271 111.696 41.895 111.115 42.3266C110.534 42.7594 109.762 42.9754 108.799 42.9754C106.987 42.9754 105.866 42.2439 105.438 40.7814Z" fill="white"/>
<path fill-rule="evenodd" clip-rule="evenodd" d="M105.438 40.7814L106.574 40.5466C106.826 41.5072 107.624 41.9873 108.967 41.9873C109.461 41.9873 109.88 41.8767 110.223 41.655C110.567 41.4337 110.739 41.1216 110.739 40.7188C110.739 40.1199 110.302 39.74 109.428 39.579L107.818 39.2726C107.186 39.1514 106.685 38.914 106.311 38.5608C105.939 38.2075 105.752 37.7406 105.752 37.16C105.752 36.5194 106.006 35.9829 106.516 35.5514C107.025 35.1199 107.71 34.9043 108.573 34.9043C110.231 34.9043 111.256 35.5527 111.644 36.8491L110.554 37.0834C110.242 36.2894 109.599 35.8919 108.627 35.8919C108.143 35.8919 107.746 35.9917 107.436 36.1897C107.126 36.3882 106.971 36.6654 106.971 37.0222C106.971 37.584 107.367 37.9377 108.159 38.0838L109.647 38.3579C111.206 38.6403 111.985 39.3967 111.985 40.6249C111.985 41.3271 111.696 41.895 111.115 42.3266C110.534 42.7594 109.762 42.9754 108.799 42.9754C106.987 42.9754 105.866 42.2439 105.438 40.7814Z" fill="white" stroke="white" stroke-width="0.427283"/>
<path fill-rule="evenodd" clip-rule="evenodd" d="M78.5878 18.7749V16.9385C78.5862 16.8769 78.5971 16.8156 78.62 16.7584C78.6428 16.7012 78.677 16.6493 78.7205 16.6057C78.7641 16.5621 78.8161 16.5279 78.8733 16.5051C78.9305 16.4823 78.9918 16.4713 79.0534 16.4729L87.2854 16.472C87.5491 16.472 87.7602 16.6636 87.7607 16.9355L87.7602 18.5113C87.758 18.7753 87.5355 19.1203 87.1403 19.6672L82.8765 25.7555C84.4592 25.7184 86.1337 25.9554 87.5718 26.7637C87.8962 26.9457 87.9827 27.2158 88.0081 27.4808V29.4405C88.0081 29.7106 87.713 30.0228 87.4021 29.8602C84.8685 28.5331 81.5058 28.3876 78.7046 29.8764C78.4182 30.0293 78.1187 29.7211 78.1187 29.4509V27.588C78.1187 27.2898 78.1239 26.7799 78.4247 26.3253L83.3653 19.2379L79.0635 19.2375C78.8008 19.2375 78.5896 19.0494 78.5878 18.7749ZM49.1279 30.2462H46.6231C46.3848 30.2309 46.1946 30.0517 46.1754 29.8235L46.1771 16.9691C46.1771 16.7125 46.3935 16.5066 46.6602 16.5066L48.9924 16.5061C49.2368 16.5184 49.4326 16.7029 49.448 16.9377V18.6162H49.4951C50.1029 16.9932 51.2484 16.2356 52.7909 16.2356C54.3575 16.2356 55.339 16.9932 56.0408 18.6162C56.6485 16.9932 58.0275 16.2356 59.5005 16.2356C60.5524 16.2356 61.698 16.6684 62.3993 17.642C63.1942 18.7237 63.0307 20.2929 63.0307 21.6723L63.0289 29.7837C63.0289 30.0407 62.8125 30.2467 62.5457 30.2467H60.0444C59.793 30.2305 59.5946 30.0311 59.5946 29.785V22.9704C59.5946 22.4296 59.6408 21.0773 59.5236 20.5635C59.3366 19.6978 58.7761 19.4543 58.0511 19.4543C57.4434 19.4543 56.812 19.86 56.555 20.5093C56.2974 21.1586 56.3211 22.2403 56.3211 22.9709V29.7837C56.3211 30.0407 56.1046 30.2467 55.8384 30.2467H53.3366C53.0852 30.2305 52.8871 30.0311 52.8871 29.785L52.8845 22.9704C52.8845 21.5372 53.1184 19.4272 51.342 19.4272C49.5415 19.4272 49.6119 21.483 49.6119 22.9704L49.6106 29.7837C49.6106 30.0407 49.3946 30.2462 49.1279 30.2462ZM93.8078 16.2356C97.4953 16.2356 99.49 19.4272 99.49 23.4846C99.49 27.4064 97.2868 30.5173 93.8078 30.5173C90.1898 30.5173 88.2184 27.3256 88.2184 23.3495C88.2184 19.3458 90.2134 16.2356 93.8078 16.2356ZM93.8311 19.1902C91.9986 19.1902 91.8828 21.7056 91.8828 23.2743C91.8828 24.8431 91.8596 27.8664 93.8078 27.8664C95.7329 27.8664 95.8256 25.4923 95.8256 23.8427C95.8256 22.7605 95.7798 21.462 95.4549 20.4346C95.1759 19.5418 94.6198 19.1902 93.8311 19.1902ZM104.826 30.2462H102.332C102.081 30.2305 101.882 30.0311 101.882 29.785L101.878 16.9264C101.9 16.6911 102.107 16.5066 102.359 16.5066L104.682 16.5061C104.901 16.517 105.082 16.6667 105.127 16.866V18.8322H105.175C105.876 17.0741 106.857 16.2356 108.588 16.2356C109.709 16.2356 110.808 16.6413 111.51 17.7505C112.165 18.7779 112.165 20.5093 112.165 21.7537V29.8414C112.136 30.0696 111.933 30.2467 111.685 30.2467H109.174C108.942 30.2313 108.756 30.0613 108.728 29.8414V22.8625C108.728 21.4559 108.892 19.4001 107.162 19.4001C106.554 19.4001 105.993 19.8058 105.712 20.428C105.361 21.2124 105.314 21.9968 105.314 22.8625V29.7837C105.31 30.0407 105.093 30.2462 104.826 30.2462ZM72.3093 24.1081C72.3093 25.0844 72.333 25.8972 71.8415 26.7646C71.4427 27.4699 70.8101 27.9031 70.1071 27.9031C69.1469 27.9031 68.5847 27.1713 68.5847 26.0869C68.5847 23.9542 70.4979 23.566 72.3097 23.566L72.3093 24.1081ZM74.8347 30.2142C74.6686 30.3629 74.4298 30.3731 74.2427 30.2729C73.4111 29.5812 73.262 29.2616 72.8074 28.6035C71.4322 30.0045 70.459 30.4241 68.6782 30.4241C66.5699 30.4241 64.9299 29.123 64.9299 26.5207C64.9299 24.4876 66.0308 23.1051 67.6004 22.4274C68.9593 21.831 70.8573 21.7227 72.3093 21.56V21.2347C72.3093 20.6383 72.3565 19.9335 72.005 19.4185C71.7007 18.9576 71.1148 18.7679 70.5994 18.7679C69.6441 18.7679 68.795 19.2575 68.5864 20.2719C68.5431 20.4975 68.3783 20.7205 68.1513 20.7318L65.7239 20.4696C65.5188 20.4232 65.291 20.2588 65.3501 19.9462C65.9079 17.001 68.5676 16.1113 70.9509 16.1113C72.1689 16.1113 73.7622 16.4366 74.7228 17.3583C75.9409 18.4968 75.8237 20.0148 75.8237 21.6684V25.5701C75.8237 26.7437 76.3116 27.2587 76.7694 27.8914C76.929 28.1187 76.9653 28.3898 76.7607 28.5564C76.2491 28.9848 75.3405 29.7749 74.8404 30.22L74.8347 30.2142ZM39.7626 24.1081C39.7626 25.0844 39.7863 25.8972 39.2944 26.7646C38.896 27.4699 38.2635 27.9031 37.5604 27.9031C36.5999 27.9031 36.038 27.1713 36.038 26.0869C36.038 23.9542 37.9513 23.566 39.7626 23.566V24.1081ZM42.288 30.2142C42.1219 30.3629 41.8827 30.3731 41.6961 30.2729C40.864 29.5812 40.7149 29.2616 40.2602 28.6035C38.8856 30.0045 37.9119 30.4241 36.1315 30.4241C34.0228 30.4241 32.3828 29.123 32.3828 26.5207C32.3828 24.4876 33.4837 23.1051 35.0538 22.4274C36.4127 21.831 38.3106 21.7227 39.7626 21.56V21.2347C39.7626 20.6383 39.8094 19.9335 39.4583 19.4185C39.1536 18.9576 38.5678 18.7679 38.0527 18.7679C37.0974 18.7679 36.2479 19.2575 36.0393 20.2719C35.996 20.4975 35.8316 20.7205 35.6042 20.7318L33.1773 20.4696C32.9722 20.4232 32.7444 20.2588 32.8035 19.9462C33.3614 17.001 36.0205 16.1113 38.4043 16.1113C39.6223 16.1113 41.2156 16.4366 42.1761 17.3583C43.3942 18.4968 43.277 20.0148 43.277 21.6684V25.5701C43.277 26.7437 43.7645 27.2587 44.2223 27.8914C44.3823 28.1187 44.4181 28.3898 44.2144 28.5564C43.7029 28.9848 42.7935 29.7749 42.2938 30.22L42.288 30.2142Z" fill="white"/>
</g>
<defs>
<clipPath id="clip0_692_21521">
<rect width="111.535" height="44" fill="white" transform="translate(0.703125)"/>
</clipPath>
</defs>
</svg>
