<svg width="173" height="44" viewBox="0 0 173 44" fill="none" xmlns="http://www.w3.org/2000/svg">
<path d="M50.8151 15.3876C51.2309 15.3876 51.6118 15.7349 51.6118 16.1873V31.3248C51.6118 31.7422 51.2309 32.0911 50.8151 32.0911H48.7693C48.3885 32.0911 48.0059 31.7772 48.0059 31.3599V29.9675C46.9664 31.4984 45.1984 32.5435 42.5971 32.5435C38.2627 32.5435 35.5932 29.6553 35.5932 25.3747V16.1523C35.5932 15.7349 35.974 15.386 36.3899 15.386H38.4356C38.8514 15.386 39.1991 15.7332 39.1991 16.1523V24.782C39.1991 27.5667 40.6544 29.4099 43.5335 29.4099C46.4125 29.4099 48.0059 27.4966 48.0059 24.817V16.1523C48.0059 15.7349 48.3868 15.386 48.7693 15.386H50.8151M20.6539 7.00167C13.65 7.00167 8 12.466 8 19.7734C8 27.0809 13.6517 32.5452 20.6539 32.5452C21.8515 32.5452 23.0091 32.3816 24.1052 32.0794L25.4723 35.6422C25.6104 36.0245 25.8882 36.2682 26.4087 36.2682H28.5926C29.1132 36.2682 29.4941 35.9193 29.2512 35.2582L27.4699 30.5969C30.9827 28.3814 33.3079 24.4581 33.3079 19.7718C33.3079 12.4643 27.6562 7 20.6539 7M26.1626 27.1711L24.5725 23.0073C24.4345 22.66 24.1567 22.3462 23.533 22.3462H21.4523C20.9317 22.3462 20.5159 22.6934 20.7587 23.3562L22.8611 28.8322C22.1642 29.0058 21.4273 29.0977 20.6556 29.0977C15.5245 29.0977 11.8837 25.0608 11.8837 19.7718C11.8837 14.4828 15.5245 10.4459 20.6556 10.4459C25.7867 10.4459 29.4275 14.4828 29.4275 19.7718C29.4275 22.8437 28.1984 25.4899 26.1642 27.1711M166.608 31.2547C166.781 31.6721 166.573 32.0894 166.053 32.0894H163.764C163.348 32.0894 163.001 31.8807 162.863 31.4634L158.633 20.0489L154.334 31.4634C154.161 31.9158 153.848 32.0894 153.432 32.0894H151.386C150.97 32.0894 150.658 31.9158 150.485 31.4634L146.15 19.9788L141.886 31.4634C141.713 31.8807 141.4 32.0894 140.984 32.0894H138.835C138.42 32.0894 138.107 31.8807 137.934 31.4634L133.704 19.9788L129.337 31.4634C129.164 31.9158 128.851 32.0894 128.435 32.0894H126.389C125.974 32.0894 125.661 31.9158 125.488 31.4634L121.223 19.9788L116.959 31.4634C116.821 31.8807 116.473 32.0894 116.057 32.0894H113.839C113.318 32.0894 113.11 31.6721 113.285 31.2547L119.075 16.0471C119.247 15.5947 119.56 15.386 119.976 15.386H122.473C122.888 15.386 123.201 15.5947 123.374 16.0471L127.466 27.1477L131.59 16.0471C131.763 15.5947 132.076 15.386 132.492 15.386H134.953C135.369 15.386 135.682 15.5947 135.855 16.0471L139.947 27.1477L144.038 16.0471C144.211 15.5947 144.524 15.386 144.94 15.386H147.401C147.817 15.386 148.13 15.5947 148.303 16.0471L152.462 27.1477L156.519 16.0471C156.692 15.5947 157.005 15.386 157.421 15.386H159.917C160.333 15.386 160.646 15.5947 160.819 16.0471L166.608 31.2547ZM70.6459 15.3876H68.6002C68.1843 15.3876 67.8035 15.7349 67.8035 16.1873V17.5797C66.7639 16.0137 64.7531 14.9001 62.3597 14.9001C57.8523 14.9001 53.9703 18.4846 53.9703 23.7051C53.9703 28.9257 57.854 32.5452 62.3248 32.5452C64.7514 32.5452 66.7274 31.4316 67.8018 29.8656V31.3265C67.8018 31.7438 68.1827 32.0911 68.5985 32.0911H70.6443C71.0601 32.0911 71.4077 31.7438 71.4077 31.3265V16.189C71.4077 15.7366 71.0601 15.3893 70.6443 15.3893M62.7406 29.2045C59.7584 29.2045 57.6444 26.7687 57.6444 23.7402C57.6444 20.7117 59.76 18.3109 62.7406 18.3109C65.7211 18.3109 67.8367 20.6766 67.8367 23.7402C67.8367 26.8038 65.6878 29.2045 62.7406 29.2045ZM95.0523 29.7271C95.5031 30.2847 95.1222 30.7021 94.8794 30.8757C93.4589 31.9542 91.5861 32.5469 89.5404 32.5469C84.3743 32.5469 80.9431 28.7537 80.9431 23.7419C80.9431 18.73 84.376 14.9018 89.5404 14.9018C91.5861 14.9018 93.4573 15.4928 94.8794 16.573C95.1222 16.7466 95.4681 17.1306 95.0523 17.7216L94.081 19.0789C93.7001 19.6015 93.2494 19.4612 92.8668 19.2175C91.9654 18.6599 90.8909 18.2074 89.6418 18.2074C86.6264 18.2074 84.6155 20.6433 84.6155 23.7402C84.6155 26.8371 86.6264 29.2379 89.6418 29.2379C90.8892 29.2379 91.8955 28.7504 92.797 28.2295C93.1779 28.0208 93.5937 27.8472 94.0111 28.4032L95.0507 29.7254L95.0523 29.7271ZM104.691 14.9369C99.8375 14.9369 95.9538 18.7651 95.9538 23.7419C95.9538 28.7187 99.8375 32.5469 104.691 32.5469C109.544 32.5469 113.428 28.7537 113.428 23.7419C113.428 18.73 109.544 14.9369 104.691 14.9369ZM104.691 29.1695C101.709 29.1695 99.5947 26.7687 99.5947 23.7402C99.5947 20.7117 101.709 18.3109 104.691 18.3109C107.673 18.3109 109.787 20.6766 109.787 23.7402C109.787 26.8038 107.673 29.1695 104.691 29.1695ZM77.8228 7.45411C78.2736 7.45411 78.5863 7.83643 78.5863 8.2538V31.2914C78.5863 31.7088 78.2736 32.0911 77.8228 32.0911H75.777C75.3612 32.0911 74.9803 31.7088 74.9803 31.2914V8.2538C74.9803 7.83643 75.3612 7.45411 75.777 7.45411H77.8228Z" fill="white"/>
</svg>
