<svg width="134" height="44" viewBox="0 0 134 44" fill="none" xmlns="http://www.w3.org/2000/svg">
<g clip-path="url(#clip0_692_21506)">
<path fill-rule="evenodd" clip-rule="evenodd" d="M45.6946 12.0781C39.3123 12.0781 34.7362 17.0677 34.7362 22.8907C34.7362 28.7948 39.1738 33.8781 45.7695 33.8781C51.7424 33.8781 56.6342 29.3156 56.6342 23.0031C56.6342 15.776 50.9424 12.0677 45.6966 12.0677L45.6946 12.0781ZM69.5257 12.0781C63.1508 12.0781 58.5779 17.0677 58.5779 22.8907C58.5779 28.7948 63.0154 33.8781 69.6123 33.8781C75.5705 33.8781 80.4664 29.3156 80.4664 23.0031C80.4664 15.776 74.779 12.0677 69.529 12.0677L69.5351 12.0781H69.5257ZM106.536 33.2427H111.338V1.1073H106.536V33.2427ZM93.3268 16.3645C96.2018 16.3645 99.1498 18.8208 99.1498 23.0084C99.1498 27.2792 96.206 29.6125 93.2623 29.6125C90.1372 29.6125 87.2341 27.0917 87.2341 23.05C87.2341 18.8625 90.255 16.3625 93.3279 16.3625L93.3268 16.3645ZM45.7591 16.3645C48.8987 16.3645 51.8738 18.9041 51.8738 22.9875C51.8738 27.0084 48.9112 29.6125 45.7446 29.6125C42.2758 29.6125 39.5258 26.8344 39.5258 22.9667C39.5258 19.1959 42.2342 16.3803 45.7654 16.3803V16.3636L45.7591 16.3645ZM69.5904 16.3645C72.729 16.3645 75.7049 18.9041 75.7049 22.9875C75.7049 27.0084 72.7413 29.6125 69.5758 29.6125C66.0965 29.6125 63.3466 26.8344 63.3466 22.9667C63.3466 19.1959 66.055 16.3803 69.5758 16.3803L69.5862 16.3636L69.5904 16.3645ZM123.667 12.0729C118.143 12.0729 113.501 16.4688 113.501 22.9667C113.501 29.8364 118.674 33.9041 124.201 33.9041C128.795 33.9041 131.628 31.3833 133.315 29.1229L129.545 26.6156C128.565 28.1364 126.919 29.6156 124.19 29.6156C121.128 29.6156 119.719 27.9385 118.847 26.3136L133.493 20.2292L132.735 18.4521C131.323 14.9729 128.027 12.0635 123.669 12.0635L123.659 12.074L123.667 12.0729ZM32.955 15.4271H17.3924V20.05H28.4279C27.8862 26.5292 22.4976 29.2896 17.4143 29.2896C10.9112 29.2896 5.23412 24.1708 5.23412 16.9979C5.23412 10.0115 10.6299 4.63125 17.4216 4.63125C22.6508 4.63125 25.7342 7.97188 25.7342 7.97188L28.9632 4.625C28.9632 4.625 24.8164 6.39814e-06 17.2435 6.39814e-06C7.61641 -0.00832693 0.160156 8.125 0.160156 16.9063C0.160156 25.5104 7.17057 33.9063 17.4914 33.9063C26.5747 33.9063 33.2206 27.6875 33.2206 18.4896C33.2206 16.5521 32.9362 15.4271 32.9362 15.4271H32.955ZM123.861 16.2604C125.855 16.2604 127.288 17.3208 127.897 18.5917L118.136 22.6751C117.714 19.5229 120.707 16.274 123.863 16.274L123.861 16.2604ZM92.906 12.0938C87.0466 12.0938 82.4404 17.2375 82.4404 22.9875C82.4404 29.55 87.7738 33.9041 92.8049 33.9041C95.9091 33.9041 97.555 32.6751 98.7842 31.2584V33.4041C98.7842 37.1729 96.4924 39.4229 93.0549 39.4229C89.7216 39.4229 88.0549 36.9437 87.4716 35.5427L83.2852 37.2917C84.7716 40.4375 87.7643 43.7167 93.0893 43.7167C98.9143 43.7167 103.355 40.0459 103.355 32.3521V12.7583H98.7852V14.6052C97.379 13.1052 95.458 12.1052 92.906 12.1052V12.0938Z" fill="white"/>
</g>
<defs>
<clipPath id="clip0_692_21506">
<rect width="133.333" height="44" fill="white" transform="translate(0.160156)"/>
</clipPath>
</defs>
</svg>
