<svg width="14" height="17" viewBox="0 0 14 17" fill="none" xmlns="http://www.w3.org/2000/svg">
<path d="M6.99648 5.08893C6.90625 5.19482 6.87169 5.324 6.81986 5.4426C5.35698 8.80561 3.89602 12.1686 2.43314 15.5295C2.36211 15.6926 2.29108 15.8599 2.19509 16.0039C1.63451 16.8531 0.490316 16.671 0.123636 15.8175C-0.0472247 15.4215 -0.0357041 15.0213 0.125558 14.6273C0.269542 14.2758 0.423124 13.9285 0.574788 13.5812C2.30836 9.58706 4.04385 5.59084 5.77741 1.59673C5.85229 1.42307 5.93292 1.25154 6.03467 1.0927C6.48006 0.400193 7.54361 0.330307 8.01588 1.16894C8.07924 1.28118 8.13491 1.39978 8.18675 1.51837C10.0528 5.81744 11.9188 10.1186 13.7829 14.4198C13.854 14.5829 13.9096 14.7523 13.9576 14.926C14.1554 15.6672 13.637 16.4995 12.9017 16.5524C12.3392 16.5926 11.9169 16.3237 11.6596 15.7434C11.2949 14.9196 10.9397 14.0894 10.5788 13.2635C9.43845 10.6396 8.30001 8.0178 7.15966 5.39389C7.11358 5.29012 7.08671 5.17152 6.99648 5.08893Z" fill="white"/>
</svg>
