<svg width="16" height="17" viewBox="0 0 16 17" fill="none" xmlns="http://www.w3.org/2000/svg">
<path d="M8.11169 12.4378C8.00933 12.4385 7.90786 12.4171 7.8131 12.3749C7.71833 12.3326 7.63214 12.2704 7.55947 12.1918L2.8928 7.10087C2.74634 6.94109 2.66406 6.72439 2.66406 6.49844C2.66406 6.27249 2.74634 6.05579 2.8928 5.89602C3.03926 5.73624 3.2379 5.64648 3.44502 5.64648C3.65215 5.64648 3.85079 5.73624 3.99724 5.89602L8.11169 10.393L12.2261 5.9045C12.3749 5.7655 12.5663 5.69286 12.7621 5.70111C12.9578 5.70936 13.1435 5.79788 13.282 5.94899C13.4205 6.1001 13.5017 6.30267 13.5092 6.51621C13.5168 6.72976 13.4502 6.93855 13.3228 7.10087L8.65613 12.1918C8.51126 12.3485 8.31573 12.4369 8.11169 12.4378Z" fill="white"/>
</svg>
