<svg width="16" height="17" viewBox="0 0 16 17" fill="none" xmlns="http://www.w3.org/2000/svg">
<path d="M8.46281 10.5786C8.31169 10.6731 8.14168 10.7108 7.99056 10.7108C7.83943 10.7108 7.66942 10.6731 7.5183 10.5786L0 5.98828V12.0898C0 13.3932 1.05785 14.4511 2.36128 14.4511H13.6387C14.9421 14.4511 16 13.3932 16 12.0898V5.98828L8.46281 10.5786Z" fill="url(#paint0_linear_692_22070)"/>
<path d="M13.6374 2.66211H2.35993C1.24541 2.66211 0.300901 3.4555 0.0742188 4.51335L8.0081 9.34924L15.9231 4.51335C15.6964 3.4555 14.7519 2.66211 13.6374 2.66211Z" fill="url(#paint1_linear_692_22070)"/>
<defs>
<linearGradient id="paint0_linear_692_22070" x1="-3.07114" y1="10.2225" x2="22.2022" y2="10.2225" gradientUnits="userSpaceOnUse">
<stop stop-color="#0E8CFA"/>
<stop offset="0.7719" stop-color="#00AAFB"/>
</linearGradient>
<linearGradient id="paint1_linear_692_22070" x1="-2.96792" y1="6.00789" x2="22.0667" y2="6.00789" gradientUnits="userSpaceOnUse">
<stop stop-color="#0E8CFA"/>
<stop offset="0.7719" stop-color="#00AAFB"/>
</linearGradient>
</defs>
</svg>
