<svg width="20" height="21" viewBox="0 0 20 21" fill="none" xmlns="http://www.w3.org/2000/svg">
<g clip-path="url(#clip0_692_22088)">
<path d="M5.26789 11.2086H7.46022V20.2341C7.46022 20.4123 7.6046 20.5566 7.7828 20.5566H11.5C11.6782 20.5566 11.8225 20.4123 11.8225 20.2341V11.2512H14.3428C14.5067 11.2512 14.6445 11.1282 14.6632 10.9654L15.046 7.6427C15.0565 7.55129 15.0276 7.45974 14.9664 7.39116C14.9052 7.32251 14.8176 7.28322 14.7256 7.28322H11.8227V5.20038C11.8227 4.57251 12.1607 4.25412 12.8276 4.25412C12.9226 4.25412 14.7256 4.25412 14.7256 4.25412C14.9038 4.25412 15.0482 4.10967 15.0482 3.93154V0.881608C15.0482 0.703415 14.9038 0.559028 14.7256 0.559028H12.1098C12.0914 0.558124 12.0504 0.556641 11.99 0.556641C11.5362 0.556641 9.95854 0.645737 8.71234 1.79219C7.33157 3.06264 7.52351 4.5838 7.56938 4.84754V7.28316H5.26789C5.0897 7.28316 4.94531 7.42754 4.94531 7.60574V10.886C4.94531 11.0642 5.0897 11.2086 5.26789 11.2086Z" fill="white"/>
</g>
<defs>
<clipPath id="clip0_692_22088">
<rect width="20" height="20" fill="white" transform="translate(0 0.556641)"/>
</clipPath>
</defs>
</svg>
