<svg width="56" height="57" viewBox="0 0 56 57" fill="none" xmlns="http://www.w3.org/2000/svg">
<path d="M40.1947 18.7941V23.9786C40.1916 25.8999 39.7146 27.7909 38.8061 29.4838C37.8975 31.1768 36.5855 32.6196 34.9861 33.6844C33.0793 34.9649 30.8327 35.6452 28.5357 35.6376H27.2336C24.1403 35.6376 21.1735 34.4096 18.9851 32.2235C16.7967 30.0373 15.5657 27.0718 15.5625 23.9786V18.7941C15.5657 15.6997 16.7963 12.733 18.9844 10.5449C21.1725 8.35689 24.1392 7.12624 27.2336 7.12305H28.5357C31.628 7.12943 34.5916 8.36148 36.7771 10.5492C38.9625 12.7369 40.1915 15.7018 40.1947 18.7941Z" fill="white"/>
<path d="M45.379 47.3097H10.4141C10.5851 47.3097 10.7544 47.2761 10.9124 47.2106C11.0704 47.1452 11.2139 47.0493 11.3348 46.9284C11.4557 46.8074 11.5516 46.6639 11.6171 46.5059C11.6825 46.3479 11.7162 46.1786 11.7162 46.0076V43.8494C11.7162 39.4004 18.661 35.6387 26.8838 35.6387H28.9455C37.1683 35.6387 44.1251 39.4004 44.1251 43.8494V46.0076C44.1218 46.3457 44.2514 46.6715 44.4859 46.915C44.7204 47.1585 45.0411 47.3003 45.379 47.3097V47.3097Z" fill="white"/>
<path d="M28.5357 35.6142H27.2336C24.1413 35.611 21.1764 34.382 18.9887 32.1965C16.8009 30.0111 15.5689 27.0474 15.5625 23.9551V18.7707C15.5657 15.6763 16.7963 12.7096 18.9844 10.5215C21.1725 8.33346 24.1392 7.1028 27.2336 7.09961H28.5357C31.628 7.10599 34.5916 8.33805 36.7771 10.5258C38.9625 12.7135 40.1916 15.6784 40.1947 18.7707V23.9551C40.1915 27.0463 38.9622 30.01 36.7764 32.1958C34.5906 34.3816 31.6269 35.611 28.5357 35.6142V35.6142ZM27.2336 9.69184C24.8267 9.69503 22.5193 10.6526 20.8174 12.3545C19.1155 14.0564 18.1579 16.3638 18.1547 18.7707V23.9551C18.1579 26.3609 19.1159 28.667 20.8181 30.3671C22.5204 32.0671 24.8278 33.0219 27.2336 33.0219H28.5357C30.9404 33.0219 33.2466 32.0667 34.9469 30.3663C36.6473 28.666 37.6025 26.3598 37.6025 23.9551V18.7707C37.6025 16.3649 36.6476 14.0575 34.9476 12.3552C33.2476 10.653 30.9415 9.69504 28.5357 9.69184H27.2336Z" fill="white"/>
<path d="M45.3793 47.3095C45.2089 47.3095 45.0401 47.2757 44.8828 47.2101C44.7255 47.1445 44.5827 47.0484 44.4628 46.9274C44.3428 46.8063 44.2481 46.6626 44.1839 46.5047C44.1198 46.3468 44.0876 46.1777 44.0892 46.0073V43.8491C44.0892 39.4001 37.1324 35.6384 28.9096 35.6384H26.8479C18.6251 35.6384 11.6803 39.4001 11.6803 43.8491V46.0073C11.6977 46.188 11.6772 46.3704 11.62 46.5427C11.5628 46.715 11.4702 46.8735 11.3482 47.0079C11.2261 47.1423 11.0773 47.2497 10.9113 47.3232C10.7453 47.3966 10.5657 47.4346 10.3842 47.4346C10.2026 47.4346 10.0231 47.3966 9.85707 47.3232C9.69106 47.2497 9.54224 47.1423 9.42019 47.0079C9.29813 46.8735 9.20554 46.715 9.14835 46.5427C9.09115 46.3704 9.07061 46.188 9.08806 46.0073V43.8491C9.08806 40.8349 11.0292 38.0498 14.5619 36.0122C18.3333 33.9816 22.5654 32.96 26.8479 33.0462H28.9096C33.196 32.959 37.4322 33.9806 41.2076 36.0122C44.7403 38.0498 46.6814 40.8349 46.6814 43.8491V46.0073C46.6814 46.3527 46.5442 46.6839 46.3001 46.9281C46.0559 47.1723 45.7247 47.3095 45.3793 47.3095V47.3095Z" fill="white"/>
<path d="M46.7301 43.8489V46.0071C46.7201 46.2868 46.6195 46.5557 46.4433 46.7732C46.2672 46.9907 46.025 47.145 45.7535 47.2128C45.6453 47.2246 45.5362 47.2246 45.428 47.2128C45.2575 47.2128 45.0888 47.179 44.9315 47.1134C44.7742 47.0479 44.6314 46.9518 44.5114 46.8307C44.3915 46.7096 44.2967 46.566 44.2326 46.408C44.1685 46.2501 44.1363 46.0811 44.1379 45.9106V43.7525C44.1379 39.3035 37.1811 35.5417 28.9583 35.5417H26.8965C18.6737 35.5417 11.729 39.3035 11.729 43.7525V45.9106C11.729 46.256 11.5918 46.5872 11.3476 46.8314C11.1034 47.0756 10.7722 47.2128 10.4268 47.2128C10.3227 47.2246 10.2175 47.2246 10.1134 47.2128C9.84368 47.1415 9.60369 46.9862 9.42812 46.7694C9.25255 46.5527 9.15051 46.2857 9.13675 46.0071V43.8489C9.13322 42.5776 9.47045 41.3286 10.1134 40.2318C11.2019 38.4341 12.7556 36.9637 14.6106 35.9758C16.545 34.8782 18.6405 34.0929 20.8199 33.6488C21.7983 33.4305 22.7887 33.2695 23.7859 33.1665C24.8107 33.0701 25.8476 33.0098 26.8965 33.0098H28.9583C30.0193 33.0098 31.0562 33.0098 32.0689 33.1665C33.066 33.2704 34.0563 33.4315 35.0349 33.6488C37.2181 34.0929 39.3176 34.8782 41.2563 35.9758C43.1112 36.9637 44.665 38.4341 45.7535 40.2318C46.3964 41.3286 46.7336 42.5776 46.7301 43.8489Z" fill="white"/>
<path d="M1.30996 13.6096C1.13896 13.6096 0.969631 13.5759 0.811648 13.5105C0.653665 13.445 0.510123 13.3491 0.389208 13.2282C0.268293 13.1073 0.172376 12.9637 0.106937 12.8058C0.0414986 12.6478 0.0078125 12.4784 0.0078125 12.3074V1.93852C0.0109909 1.59527 0.149584 1.26715 0.393439 1.02556C0.637295 0.783958 0.966688 0.648423 1.30996 0.648438H11.6789C12.0011 0.679548 12.3001 0.829541 12.5177 1.06917C12.7353 1.30879 12.8559 1.62087 12.8559 1.94455C12.8559 2.26823 12.7353 2.58032 12.5177 2.81994C12.3001 3.05957 12.0011 3.20956 11.6789 3.24067H2.60004V12.3195C2.59689 12.6607 2.45997 12.987 2.21871 13.2283C1.97745 13.4695 1.65114 13.6064 1.30996 13.6096V13.6096Z" fill="white"/>
<path d="M11.6771 56.3874H1.30817C1.13717 56.3874 0.967846 56.3538 0.809863 56.2883C0.65188 56.2229 0.508338 56.127 0.387423 56.006C0.266508 55.8851 0.170591 55.7416 0.105152 55.5836C0.0397136 55.4256 0.00602751 55.2563 0.00602751 55.0853V44.7164C-0.0114222 44.5357 0.00911846 44.3533 0.0663156 44.181C0.123513 44.0087 0.216103 43.8502 0.338155 43.7158C0.460207 43.5814 0.609024 43.474 0.775037 43.4005C0.94105 43.327 1.12059 43.2891 1.30214 43.2891C1.48369 43.2891 1.66325 43.327 1.82926 43.4005C1.99527 43.474 2.14407 43.5814 2.26612 43.7158C2.38818 43.8502 2.48078 44.0087 2.53798 44.181C2.59518 44.3533 2.6157 44.5357 2.59825 44.7164V53.7952H11.6771C11.9993 53.8263 12.2983 53.9763 12.5159 54.2159C12.7335 54.4556 12.8541 54.7676 12.8541 55.0913C12.8541 55.415 12.7335 55.7271 12.5159 55.9667C12.2983 56.2063 11.9993 56.3563 11.6771 56.3874V56.3874Z" fill="white"/>
<path d="M54.4564 13.6101C54.111 13.6101 53.7798 13.4729 53.5356 13.2287C53.2914 12.9845 53.1542 12.6533 53.1542 12.308V3.22912H44.0875C43.9067 3.24657 43.7244 3.22604 43.5521 3.16884C43.3798 3.11165 43.2213 3.01905 43.0869 2.89699C42.9525 2.77494 42.8451 2.62613 42.7716 2.46012C42.6981 2.29411 42.6602 2.11456 42.6602 1.93301C42.6602 1.75146 42.6981 1.57191 42.7716 1.4059C42.8451 1.23988 42.9525 1.09107 43.0869 0.969016C43.2213 0.846963 43.3798 0.754364 43.5521 0.697167C43.7244 0.63997 43.9067 0.619438 44.0875 0.636888H54.4564C54.7996 0.640067 55.1278 0.778659 55.3694 1.02252C55.611 1.26637 55.7465 1.59576 55.7465 1.93903V12.308C55.7465 12.6512 55.611 12.9806 55.3694 13.2245C55.1278 13.4683 54.7996 13.6069 54.4564 13.6101V13.6101Z" fill="white"/>
<path d="M54.4564 56.3874H44.0875C43.9067 56.4049 43.7244 56.3844 43.5521 56.3272C43.3798 56.27 43.2213 56.1774 43.0869 56.0553C42.9525 55.9332 42.8451 55.7844 42.7716 55.6184C42.6981 55.4524 42.6602 55.2729 42.6602 55.0913C42.6602 54.9098 42.6981 54.7302 42.7716 54.5642C42.8451 54.3982 42.9525 54.2494 43.0869 54.1273C43.2213 54.0053 43.3798 53.9127 43.5521 53.8555C43.7244 53.7983 43.9067 53.7778 44.0875 53.7952H53.1542V44.7164C53.1368 44.5357 53.1573 44.3533 53.2145 44.181C53.2717 44.0087 53.3643 43.8502 53.4864 43.7158C53.6084 43.5814 53.7572 43.474 53.9232 43.4005C54.0892 43.327 54.2688 43.2891 54.4504 43.2891C54.6319 43.2891 54.8115 43.327 54.9775 43.4005C55.1435 43.474 55.2923 43.5814 55.4143 43.7158C55.5364 43.8502 55.629 44.0087 55.6862 44.181C55.7434 44.3533 55.7639 44.5357 55.7465 44.7164V55.0853C55.7465 55.4286 55.611 55.7579 55.3694 56.0018C55.1278 56.2457 54.7996 56.3842 54.4564 56.3874V56.3874Z" fill="white"/>
<path d="M10.376 47.3086H10.0625C10.1667 47.3204 10.2718 47.3204 10.376 47.3086V47.3086Z" fill="white"/>
<path d="M45.7044 47.2715H45.3789C45.4871 47.2833 45.5962 47.2833 45.7044 47.2715Z" fill="white"/>
</svg>
