<svg width="227" height="56" viewBox="0 0 227 56" fill="none" xmlns="http://www.w3.org/2000/svg">
<path d="M26.5 54.5L26.8844 54.8197L26.5305 55.2452L26.143 54.8501L26.5 54.5ZM71 1L70.6156 0.68026L71.1169 0.0776291L71.452 0.786221L71 1ZM88.5 38V38.5H88.1834L88.048 38.2138L88.5 38ZM220.833 38C220.833 36.5272 222.027 35.3333 223.5 35.3333C224.973 35.3333 226.167 36.5272 226.167 38C226.167 39.4728 224.973 40.6667 223.5 40.6667C222.027 40.6667 220.833 39.4728 220.833 38ZM1.35697 28.1499L26.857 54.1499L26.143 54.8501L0.643031 28.8501L1.35697 28.1499ZM26.1156 54.1803L70.6156 0.68026L71.3844 1.31974L26.8844 54.8197L26.1156 54.1803ZM71.452 0.786221L88.952 37.7862L88.048 38.2138L70.548 1.21378L71.452 0.786221ZM88.5 38C88.5 37.5 88.5003 37.5 88.5008 37.5C88.5013 37.5 88.5022 37.5 88.5032 37.5C88.5043 37.5 88.5056 37.5 88.5072 37.5C88.5089 37.5 88.5107 37.5 88.5129 37.5C88.515 37.5 88.5174 37.5 88.5201 37.5C88.5228 37.5 88.5257 37.5 88.5289 37.5C88.5321 37.5 88.5356 37.5 88.5393 37.5C88.5431 37.5 88.5471 37.5 88.5513 37.5C88.5556 37.5 88.5601 37.5 88.5649 37.5C88.5697 37.5 88.5748 37.5 88.5801 37.5C88.5854 37.5 88.591 37.5 88.5969 37.5C88.6027 37.5 88.6088 37.5 88.6152 37.5C88.6216 37.5 88.6282 37.5 88.6351 37.5C88.642 37.5 88.6492 37.5 88.6566 37.5C88.664 37.5 88.6717 37.5 88.6796 37.5C88.6875 37.5 88.6957 37.5 88.7042 37.5C88.7127 37.5 88.7214 37.5 88.7304 37.5C88.7393 37.5 88.7486 37.5 88.7581 37.5C88.7676 37.5 88.7773 37.5 88.7873 37.5C88.7974 37.5 88.8076 37.5 88.8182 37.5C88.8287 37.5 88.8395 37.5 88.8505 37.5C88.8616 37.5 88.8729 37.5 88.8844 37.5C88.896 37.5 88.9078 37.5 88.9199 37.5C88.9319 37.5 88.9443 37.5 88.9568 37.5C88.9694 37.5 88.9823 37.5 88.9953 37.5C89.0084 37.5 89.0218 37.5 89.0354 37.5C89.049 37.5 89.0628 37.5 89.0769 37.5C89.091 37.5 89.1054 37.5 89.12 37.5C89.1346 37.5 89.1495 37.5 89.1646 37.5C89.1797 37.5 89.1951 37.5 89.2107 37.5C89.2264 37.5 89.2422 37.5 89.2584 37.5C89.2745 37.5 89.2909 37.5 89.3075 37.5C89.3241 37.5 89.341 37.5 89.3581 37.5C89.3753 37.5 89.3926 37.5 89.4103 37.5C89.4279 37.5 89.4458 37.5 89.4639 37.5C89.482 37.5 89.5004 37.5 89.519 37.5C89.5377 37.5 89.5565 37.5 89.5757 37.5C89.5948 37.5 89.6141 37.5 89.6338 37.5C89.6534 37.5 89.6732 37.5 89.6933 37.5C89.7135 37.5 89.7338 37.5 89.7544 37.5C89.775 37.5 89.7959 37.5 89.817 37.5C89.8381 37.5 89.8594 37.5 89.881 37.5C89.9026 37.5 89.9244 37.5 89.9465 37.5C89.9685 37.5 89.9909 37.5 90.0134 37.5C90.036 37.5 90.0588 37.5 90.0818 37.5C90.1049 37.5 90.1282 37.5 90.1517 37.5C90.1753 37.5 90.199 37.5 90.2231 37.5C90.2471 37.5 90.2713 37.5 90.2959 37.5C90.3204 37.5 90.3451 37.5 90.3701 37.5C90.3951 37.5 90.4203 37.5 90.4458 37.5C90.4712 37.5 90.497 37.5 90.5229 37.5C90.5489 37.5 90.575 37.5 90.6015 37.5C90.6279 37.5 90.6546 37.5 90.6815 37.5C90.7084 37.5 90.7355 37.5 90.7629 37.5C90.7903 37.5 90.8179 37.5 90.8458 37.5C90.8736 37.5 90.9017 37.5 90.9301 37.5C90.9584 37.5 90.987 37.5 91.0158 37.5C91.0446 37.5 91.0736 37.5 91.1029 37.5C91.1322 37.5 91.1617 37.5 91.1914 37.5C91.2212 37.5 91.2512 37.5 91.2814 37.5C91.3116 37.5 91.3421 37.5 91.3728 37.5C91.4035 37.5 91.4344 37.5 91.4655 37.5C91.4967 37.5 91.5281 37.5 91.5597 37.5C91.5913 37.5 91.6232 37.5 91.6553 37.5C91.6874 37.5 91.7197 37.5 91.7522 37.5C91.7848 37.5 91.8176 37.5 91.8506 37.5C91.8836 37.5 91.9169 37.5 91.9503 37.5C91.9838 37.5 92.0175 37.5 92.0515 37.5C92.0854 37.5 92.1196 37.5 92.154 37.5C92.1884 37.5 92.223 37.5 92.2579 37.5C92.2927 37.5 92.3278 37.5 92.3631 37.5C92.3984 37.5 92.434 37.5 92.4698 37.5C92.5055 37.5 92.5415 37.5 92.5778 37.5C92.614 37.5 92.6504 37.5 92.6871 37.5C92.7238 37.5 92.7607 37.5 92.7978 37.5C92.835 37.5 92.8723 37.5 92.9099 37.5C92.9475 37.5 92.9853 37.5 93.0234 37.5C93.0614 37.5 93.0997 37.5 93.1381 37.5C93.1766 37.5 93.2153 37.5 93.2543 37.5C93.2932 37.5 93.3324 37.5 93.3717 37.5C93.4111 37.5 93.4507 37.5 93.4906 37.5C93.5304 37.5 93.5704 37.5 93.6107 37.5C93.651 37.5 93.6915 37.5 93.7322 37.5C93.7729 37.5 93.8139 37.5 93.855 37.5C93.8962 37.5 93.9376 37.5 93.9792 37.5C94.0208 37.5 94.0626 37.5 94.1046 37.5C94.1467 37.5 94.1889 37.5 94.2314 37.5C94.2739 37.5 94.3166 37.5 94.3595 37.5C94.4024 37.5 94.4456 37.5 94.4889 37.5C94.5323 37.5 94.5759 37.5 94.6196 37.5C94.6634 37.5 94.7074 37.5 94.7517 37.5C94.7959 37.5 94.8403 37.5 94.885 37.5C94.9297 37.5 94.9745 37.5 95.0196 37.5C95.0647 37.5 95.11 37.5 95.1556 37.5C95.2011 37.5 95.2468 37.5 95.2928 37.5C95.3387 37.5 95.3849 37.5 95.4313 37.5C95.4777 37.5 95.5243 37.5 95.5711 37.5C95.6179 37.5 95.6649 37.5 95.7121 37.5C95.7594 37.5 95.8068 37.5 95.8545 37.5C95.9022 37.5 95.95 37.5 95.9981 37.5C96.0462 37.5 96.0945 37.5 96.143 37.5C96.1915 37.5 96.2402 37.5 96.2892 37.5C96.3381 37.5 96.3873 37.5 96.4366 37.5C96.486 37.5 96.5355 37.5 96.5853 37.5C96.6351 37.5 96.6851 37.5 96.7353 37.5C96.7854 37.5 96.8358 37.5 96.8865 37.5C96.9371 37.5 96.9879 37.5 97.0389 37.5C97.0899 37.5 97.1412 37.5 97.1926 37.5C97.2441 37.5 97.2957 37.5 97.3476 37.5C97.3994 37.5 97.4515 37.5 97.5038 37.5C97.556 37.5 97.6085 37.5 97.6612 37.5C97.7139 37.5 97.7667 37.5 97.8198 37.5C97.8729 37.5 97.9262 37.5 97.9797 37.5C98.0332 37.5 98.0869 37.5 98.1408 37.5C98.1948 37.5 98.2489 37.5 98.3032 37.5C98.3575 37.5 98.412 37.5 98.4668 37.5C98.5215 37.5 98.5764 37.5 98.6315 37.5C98.6867 37.5 98.742 37.5 98.7975 37.5C98.8531 37.5 98.9088 37.5 98.9647 37.5C99.0207 37.5 99.0768 37.5 99.1331 37.5C99.1895 37.5 99.246 37.5 99.3027 37.5C99.3595 37.5 99.4164 37.5 99.4736 37.5C99.5307 37.5 99.588 37.5 99.6456 37.5C99.7031 37.5 99.7608 37.5 99.8188 37.5C99.8767 37.5 99.9348 37.5 99.9932 37.5C100.051 37.5 100.11 37.5 100.169 37.5C100.227 37.5 100.286 37.5 100.345 37.5C100.405 37.5 100.464 37.5 100.523 37.5C100.583 37.5 100.643 37.5 100.703 37.5C100.762 37.5 100.823 37.5 100.883 37.5C100.943 37.5 101.004 37.5 101.064 37.5C101.125 37.5 101.186 37.5 101.247 37.5C101.308 37.5 101.369 37.5 101.431 37.5C101.492 37.5 101.554 37.5 101.616 37.5C101.677 37.5 101.74 37.5 101.802 37.5C101.864 37.5 101.926 37.5 101.989 37.5C102.052 37.5 102.114 37.5 102.177 37.5C102.24 37.5 102.304 37.5 102.367 37.5C102.43 37.5 102.494 37.5 102.558 37.5C102.621 37.5 102.685 37.5 102.749 37.5C102.814 37.5 102.878 37.5 102.942 37.5C103.007 37.5 103.072 37.5 103.136 37.5C103.201 37.5 103.266 37.5 103.332 37.5C103.397 37.5 103.462 37.5 103.528 37.5C103.594 37.5 103.66 37.5 103.726 37.5C103.792 37.5 103.858 37.5 103.924 37.5C103.99 37.5 104.057 37.5 104.124 37.5C104.191 37.5 104.257 37.5 104.325 37.5C104.392 37.5 104.459 37.5 104.527 37.5C104.594 37.5 104.662 37.5 104.73 37.5C104.797 37.5 104.865 37.5 104.934 37.5C105.002 37.5 105.07 37.5 105.139 37.5C105.207 37.5 105.276 37.5 105.345 37.5C105.414 37.5 105.483 37.5 105.553 37.5C105.622 37.5 105.691 37.5 105.761 37.5C105.831 37.5 105.901 37.5 105.971 37.5C106.041 37.5 106.111 37.5 106.181 37.5C106.252 37.5 106.322 37.5 106.393 37.5C106.464 37.5 106.535 37.5 106.606 37.5C106.677 37.5 106.748 37.5 106.82 37.5C106.891 37.5 106.963 37.5 107.035 37.5C107.106 37.5 107.178 37.5 107.251 37.5C107.323 37.5 107.395 37.5 107.468 37.5C107.54 37.5 107.613 37.5 107.686 37.5C107.759 37.5 107.832 37.5 107.905 37.5C107.978 37.5 108.052 37.5 108.125 37.5C108.199 37.5 108.273 37.5 108.346 37.5C108.42 37.5 108.494 37.5 108.569 37.5C108.643 37.5 108.717 37.5 108.792 37.5C108.867 37.5 108.942 37.5 109.017 37.5C109.091 37.5 109.167 37.5 109.242 37.5C109.317 37.5 109.393 37.5 109.468 37.5C109.544 37.5 109.62 37.5 109.696 37.5C109.772 37.5 109.848 37.5 109.924 37.5C110.001 37.5 110.077 37.5 110.154 37.5C110.23 37.5 110.307 37.5 110.384 37.5C110.461 37.5 110.539 37.5 110.616 37.5C110.693 37.5 110.771 37.5 110.848 37.5C110.926 37.5 111.004 37.5 111.082 37.5C111.16 37.5 111.238 37.5 111.317 37.5C111.395 37.5 111.473 37.5 111.552 37.5C111.631 37.5 111.71 37.5 111.789 37.5C111.868 37.5 111.947 37.5 112.026 37.5C112.105 37.5 112.185 37.5 112.265 37.5C112.344 37.5 112.424 37.5 112.504 37.5C112.584 37.5 112.664 37.5 112.745 37.5C112.825 37.5 112.905 37.5 112.986 37.5C113.067 37.5 113.148 37.5 113.229 37.5C113.31 37.5 113.391 37.5 113.472 37.5C113.553 37.5 113.635 37.5 113.716 37.5C113.798 37.5 113.88 37.5 113.962 37.5C114.044 37.5 114.126 37.5 114.208 37.5C114.29 37.5 114.373 37.5 114.455 37.5C114.538 37.5 114.621 37.5 114.703 37.5C114.786 37.5 114.869 37.5 114.953 37.5C115.036 37.5 115.119 37.5 115.203 37.5C115.286 37.5 115.37 37.5 115.454 37.5C115.538 37.5 115.622 37.5 115.706 37.5C115.79 37.5 115.874 37.5 115.959 37.5C116.043 37.5 116.128 37.5 116.213 37.5C116.297 37.5 116.382 37.5 116.467 37.5C116.552 37.5 116.638 37.5 116.723 37.5C116.808 37.5 116.894 37.5 116.98 37.5C117.065 37.5 117.151 37.5 117.237 37.5C117.323 37.5 117.409 37.5 117.496 37.5C117.582 37.5 117.669 37.5 117.755 37.5C117.842 37.5 117.929 37.5 118.015 37.5C118.102 37.5 118.189 37.5 118.277 37.5C118.364 37.5 118.451 37.5 118.539 37.5C118.626 37.5 118.714 37.5 118.802 37.5C118.89 37.5 118.978 37.5 119.066 37.5C119.154 37.5 119.242 37.5 119.33 37.5C119.419 37.5 119.507 37.5 119.596 37.5C119.685 37.5 119.774 37.5 119.863 37.5C119.952 37.5 120.041 37.5 120.13 37.5C120.219 37.5 120.309 37.5 120.398 37.5C120.488 37.5 120.578 37.5 120.668 37.5C120.758 37.5 120.848 37.5 120.938 37.5C121.028 37.5 121.118 37.5 121.209 37.5C121.299 37.5 121.39 37.5 121.48 37.5C121.571 37.5 121.662 37.5 121.753 37.5C121.844 37.5 121.935 37.5 122.027 37.5C122.118 37.5 122.209 37.5 122.301 37.5C122.393 37.5 122.484 37.5 122.576 37.5C122.668 37.5 122.76 37.5 122.852 37.5C122.945 37.5 123.037 37.5 123.129 37.5C123.222 37.5 123.314 37.5 123.407 37.5C123.5 37.5 123.593 37.5 123.686 37.5C123.779 37.5 123.872 37.5 123.965 37.5C124.058 37.5 124.152 37.5 124.245 37.5C124.339 37.5 124.433 37.5 124.526 37.5C124.62 37.5 124.714 37.5 124.808 37.5C124.902 37.5 124.997 37.5 125.091 37.5C125.185 37.5 125.28 37.5 125.375 37.5C125.469 37.5 125.564 37.5 125.659 37.5C125.754 37.5 125.849 37.5 125.944 37.5C126.039 37.5 126.135 37.5 126.23 37.5C126.326 37.5 126.421 37.5 126.517 37.5C126.613 37.5 126.709 37.5 126.805 37.5C126.901 37.5 126.997 37.5 127.093 37.5C127.189 37.5 127.286 37.5 127.382 37.5C127.479 37.5 127.575 37.5 127.672 37.5C127.769 37.5 127.866 37.5 127.963 37.5C128.06 37.5 128.157 37.5 128.254 37.5C128.352 37.5 128.449 37.5 128.547 37.5C128.644 37.5 128.742 37.5 128.84 37.5C128.938 37.5 129.036 37.5 129.134 37.5C129.232 37.5 129.33 37.5 129.428 37.5C129.527 37.5 129.625 37.5 129.724 37.5C129.822 37.5 129.921 37.5 130.02 37.5C130.119 37.5 130.218 37.5 130.317 37.5C130.416 37.5 130.515 37.5 130.614 37.5C130.714 37.5 130.813 37.5 130.913 37.5C131.012 37.5 131.112 37.5 131.212 37.5C131.312 37.5 131.412 37.5 131.512 37.5C131.612 37.5 131.712 37.5 131.812 37.5C131.913 37.5 132.013 37.5 132.114 37.5C132.214 37.5 132.315 37.5 132.416 37.5C132.517 37.5 132.618 37.5 132.719 37.5C132.82 37.5 132.921 37.5 133.022 37.5C133.124 37.5 133.225 37.5 133.327 37.5C133.428 37.5 133.53 37.5 133.632 37.5C133.734 37.5 133.836 37.5 133.938 37.5C134.04 37.5 134.142 37.5 134.244 37.5C134.346 37.5 134.449 37.5 134.551 37.5C134.654 37.5 134.756 37.5 134.859 37.5C134.962 37.5 135.065 37.5 135.168 37.5C135.271 37.5 135.374 37.5 135.477 37.5C135.58 37.5 135.684 37.5 135.787 37.5C135.89 37.5 135.994 37.5 136.098 37.5C136.201 37.5 136.305 37.5 136.409 37.5C136.513 37.5 136.617 37.5 136.721 37.5C136.825 37.5 136.929 37.5 137.034 37.5C137.138 37.5 137.243 37.5 137.347 37.5C137.452 37.5 137.557 37.5 137.661 37.5C137.766 37.5 137.871 37.5 137.976 37.5C138.081 37.5 138.186 37.5 138.292 37.5C138.397 37.5 138.502 37.5 138.608 37.5C138.713 37.5 138.819 37.5 138.924 37.5C139.03 37.5 139.136 37.5 139.242 37.5C139.348 37.5 139.454 37.5 139.56 37.5C139.666 37.5 139.772 37.5 139.879 37.5C139.985 37.5 140.091 37.5 140.198 37.5C140.305 37.5 140.411 37.5 140.518 37.5C140.625 37.5 140.732 37.5 140.839 37.5C140.946 37.5 141.053 37.5 141.16 37.5C141.267 37.5 141.375 37.5 141.482 37.5C141.589 37.5 141.697 37.5 141.805 37.5C141.912 37.5 142.02 37.5 142.128 37.5C142.236 37.5 142.344 37.5 142.452 37.5C142.56 37.5 142.668 37.5 142.776 37.5C142.884 37.5 142.993 37.5 143.101 37.5C143.21 37.5 143.318 37.5 143.427 37.5C143.535 37.5 143.644 37.5 143.753 37.5C143.862 37.5 143.971 37.5 144.08 37.5C144.189 37.5 144.298 37.5 144.408 37.5C144.517 37.5 144.626 37.5 144.736 37.5C144.845 37.5 144.955 37.5 145.064 37.5C145.174 37.5 145.284 37.5 145.394 37.5C145.504 37.5 145.614 37.5 145.724 37.5C145.834 37.5 145.944 37.5 146.054 37.5C146.164 37.5 146.275 37.5 146.385 37.5C146.496 37.5 146.606 37.5 146.717 37.5C146.827 37.5 146.938 37.5 147.049 37.5C147.16 37.5 147.271 37.5 147.382 37.5C147.493 37.5 147.604 37.5 147.715 37.5C147.826 37.5 147.938 37.5 148.049 37.5C148.161 37.5 148.272 37.5 148.384 37.5C148.495 37.5 148.607 37.5 148.719 37.5C148.83 37.5 148.942 37.5 149.054 37.5C149.166 37.5 149.278 37.5 149.391 37.5C149.503 37.5 149.615 37.5 149.727 37.5C149.84 37.5 149.952 37.5 150.065 37.5C150.177 37.5 150.29 37.5 150.402 37.5C150.515 37.5 150.628 37.5 150.741 37.5C150.854 37.5 150.967 37.5 151.08 37.5C151.193 37.5 151.306 37.5 151.419 37.5C151.532 37.5 151.646 37.5 151.759 37.5C151.872 37.5 151.986 37.5 152.099 37.5C152.213 37.5 152.327 37.5 152.44 37.5C152.554 37.5 152.668 37.5 152.782 37.5C152.896 37.5 153.01 37.5 153.124 37.5C153.238 37.5 153.352 37.5 153.467 37.5C153.581 37.5 153.695 37.5 153.81 37.5C153.924 37.5 154.039 37.5 154.153 37.5C154.268 37.5 154.382 37.5 154.497 37.5C154.612 37.5 154.727 37.5 154.842 37.5C154.957 37.5 155.072 37.5 155.187 37.5C155.302 37.5 155.417 37.5 155.532 37.5C155.648 37.5 155.763 37.5 155.878 37.5C155.994 37.5 156.109 37.5 156.225 37.5C156.341 37.5 156.456 37.5 156.572 37.5C156.688 37.5 156.804 37.5 156.919 37.5C157.035 37.5 157.151 37.5 157.267 37.5C157.383 37.5 157.5 37.5 157.616 37.5C157.732 37.5 157.848 37.5 157.965 37.5C158.081 37.5 158.198 37.5 158.314 37.5C158.431 37.5 158.547 37.5 158.664 37.5C158.781 37.5 158.897 37.5 159.014 37.5C159.131 37.5 159.248 37.5 159.365 37.5C159.482 37.5 159.599 37.5 159.716 37.5C159.833 37.5 159.951 37.5 160.068 37.5C160.185 37.5 160.302 37.5 160.42 37.5C160.537 37.5 160.655 37.5 160.772 37.5C160.89 37.5 161.008 37.5 161.125 37.5C161.243 37.5 161.361 37.5 161.479 37.5C161.597 37.5 161.715 37.5 161.833 37.5C161.951 37.5 162.069 37.5 162.187 37.5C162.305 37.5 162.423 37.5 162.542 37.5C162.66 37.5 162.778 37.5 162.897 37.5C163.015 37.5 163.134 37.5 163.252 37.5C163.371 37.5 163.489 37.5 163.608 37.5C163.727 37.5 163.846 37.5 163.964 37.5C164.083 37.5 164.202 37.5 164.321 37.5C164.44 37.5 164.559 37.5 164.678 37.5C164.797 37.5 164.917 37.5 165.036 37.5C165.155 37.5 165.274 37.5 165.394 37.5C165.513 37.5 165.633 37.5 165.752 37.5C165.872 37.5 165.991 37.5 166.111 37.5C166.23 37.5 166.35 37.5 166.47 37.5C166.59 37.5 166.709 37.5 166.829 37.5C166.949 37.5 167.069 37.5 167.189 37.5C167.309 37.5 167.429 37.5 167.549 37.5C167.67 37.5 167.79 37.5 167.91 37.5C168.03 37.5 168.151 37.5 168.271 37.5C168.391 37.5 168.512 37.5 168.632 37.5C168.753 37.5 168.874 37.5 168.994 37.5C169.115 37.5 169.235 37.5 169.356 37.5C169.477 37.5 169.598 37.5 169.719 37.5C169.84 37.5 169.96 37.5 170.081 37.5C170.202 37.5 170.323 37.5 170.445 37.5C170.566 37.5 170.687 37.5 170.808 37.5C170.929 37.5 171.051 37.5 171.172 37.5C171.293 37.5 171.415 37.5 171.536 37.5C171.657 37.5 171.779 37.5 171.9 37.5C172.022 37.5 172.144 37.5 172.265 37.5C172.387 37.5 172.509 37.5 172.63 37.5C172.752 37.5 172.874 37.5 172.996 37.5C173.118 37.5 173.24 37.5 173.362 37.5C173.484 37.5 173.606 37.5 173.728 37.5C173.85 37.5 173.972 37.5 174.094 37.5C174.216 37.5 174.339 37.5 174.461 37.5C174.583 37.5 174.706 37.5 174.828 37.5C174.95 37.5 175.073 37.5 175.195 37.5C175.318 37.5 175.44 37.5 175.563 37.5C175.686 37.5 175.808 37.5 175.931 37.5C176.054 37.5 176.176 37.5 176.299 37.5C176.422 37.5 176.545 37.5 176.668 37.5C176.791 37.5 176.913 37.5 177.036 37.5C177.159 37.5 177.282 37.5 177.406 37.5C177.529 37.5 177.652 37.5 177.775 37.5C177.898 37.5 178.021 37.5 178.145 37.5C178.268 37.5 178.391 37.5 178.514 37.5C178.638 37.5 178.761 37.5 178.885 37.5C179.008 37.5 179.132 37.5 179.255 37.5C179.379 37.5 179.502 37.5 179.626 37.5C179.749 37.5 179.873 37.5 179.997 37.5C180.121 37.5 180.244 37.5 180.368 37.5C180.492 37.5 180.616 37.5 180.74 37.5C180.863 37.5 180.987 37.5 181.111 37.5C181.235 37.5 181.359 37.5 181.483 37.5C181.607 37.5 181.731 37.5 181.856 37.5C181.98 37.5 182.104 37.5 182.228 37.5C182.352 37.5 182.476 37.5 182.601 37.5C182.725 37.5 182.849 37.5 182.974 37.5C183.098 37.5 183.222 37.5 183.347 37.5C183.471 37.5 183.596 37.5 183.72 37.5C183.845 37.5 183.969 37.5 184.094 37.5C184.218 37.5 184.343 37.5 184.468 37.5C184.592 37.5 184.717 37.5 184.842 37.5C184.966 37.5 185.091 37.5 185.216 37.5C185.341 37.5 185.465 37.5 185.59 37.5C185.715 37.5 185.84 37.5 185.965 37.5C186.09 37.5 186.215 37.5 186.34 37.5C186.465 37.5 186.59 37.5 186.715 37.5C186.84 37.5 186.965 37.5 187.09 37.5C187.215 37.5 187.34 37.5 187.466 37.5C187.591 37.5 187.716 37.5 187.841 37.5C187.967 37.5 188.092 37.5 188.217 37.5C188.342 37.5 188.468 37.5 188.593 37.5C188.718 37.5 188.844 37.5 188.969 37.5C189.095 37.5 189.22 37.5 189.346 37.5C189.471 37.5 189.597 37.5 189.722 37.5C189.848 37.5 189.973 37.5 190.099 37.5C190.224 37.5 190.35 37.5 190.476 37.5C190.601 37.5 190.727 37.5 190.853 37.5C190.978 37.5 191.104 37.5 191.23 37.5C191.356 37.5 191.481 37.5 191.607 37.5C191.733 37.5 191.859 37.5 191.985 37.5C192.111 37.5 192.236 37.5 192.362 37.5C192.488 37.5 192.614 37.5 192.74 37.5C192.866 37.5 192.992 37.5 193.118 37.5C193.244 37.5 193.37 37.5 193.496 37.5C193.622 37.5 193.748 37.5 193.874 37.5C194 37.5 194.126 37.5 194.253 37.5C194.379 37.5 194.505 37.5 194.631 37.5C194.757 37.5 194.883 37.5 195.009 37.5C195.136 37.5 195.262 37.5 195.388 37.5C195.514 37.5 195.641 37.5 195.767 37.5C195.893 37.5 196.02 37.5 196.146 37.5C196.272 37.5 196.398 37.5 196.525 37.5C196.651 37.5 196.778 37.5 196.904 37.5C197.03 37.5 197.157 37.5 197.283 37.5C197.41 37.5 197.536 37.5 197.662 37.5C197.789 37.5 197.915 37.5 198.042 37.5C198.168 37.5 198.295 37.5 198.421 37.5C198.548 37.5 198.674 37.5 198.801 37.5C198.928 37.5 199.054 37.5 199.181 37.5C199.307 37.5 199.434 37.5 199.56 37.5C199.687 37.5 199.814 37.5 199.94 37.5C200.067 37.5 200.194 37.5 200.32 37.5C200.447 37.5 200.573 37.5 200.7 37.5C200.827 37.5 200.953 37.5 201.08 37.5C201.207 37.5 201.334 37.5 201.46 37.5C201.587 37.5 201.714 37.5 201.84 37.5C201.967 37.5 202.094 37.5 202.221 37.5C202.347 37.5 202.474 37.5 202.601 37.5C202.728 37.5 202.855 37.5 202.981 37.5C203.108 37.5 203.235 37.5 203.362 37.5C203.489 37.5 203.615 37.5 203.742 37.5C203.869 37.5 203.996 37.5 204.123 37.5C204.249 37.5 204.376 37.5 204.503 37.5C204.63 37.5 204.757 37.5 204.884 37.5C205.01 37.5 205.137 37.5 205.264 37.5C205.391 37.5 205.518 37.5 205.645 37.5C205.772 37.5 205.899 37.5 206.025 37.5C206.152 37.5 206.279 37.5 206.406 37.5C206.533 37.5 206.66 37.5 206.787 37.5C206.914 37.5 207.04 37.5 207.167 37.5C207.294 37.5 207.421 37.5 207.548 37.5C207.675 37.5 207.802 37.5 207.929 37.5C208.056 37.5 208.183 37.5 208.309 37.5C208.436 37.5 208.563 37.5 208.69 37.5C208.817 37.5 208.944 37.5 209.071 37.5C209.198 37.5 209.325 37.5 209.451 37.5C209.578 37.5 209.705 37.5 209.832 37.5C209.959 37.5 210.086 37.5 210.213 37.5C210.34 37.5 210.467 37.5 210.593 37.5C210.72 37.5 210.847 37.5 210.974 37.5C211.101 37.5 211.228 37.5 211.355 37.5C211.481 37.5 211.608 37.5 211.735 37.5C211.862 37.5 211.989 37.5 212.116 37.5C212.243 37.5 212.369 37.5 212.496 37.5C212.623 37.5 212.75 37.5 212.877 37.5C213.003 37.5 213.13 37.5 213.257 37.5C213.384 37.5 213.511 37.5 213.637 37.5C213.764 37.5 213.891 37.5 214.018 37.5C214.145 37.5 214.271 37.5 214.398 37.5C214.525 37.5 214.652 37.5 214.778 37.5C214.905 37.5 215.032 37.5 215.158 37.5C215.285 37.5 215.412 37.5 215.538 37.5C215.665 37.5 215.792 37.5 215.919 37.5C216.045 37.5 216.172 37.5 216.298 37.5C216.425 37.5 216.552 37.5 216.678 37.5C216.805 37.5 216.932 37.5 217.058 37.5C217.185 37.5 217.311 37.5 217.438 37.5C217.564 37.5 217.691 37.5 217.818 37.5C217.944 37.5 218.071 37.5 218.197 37.5C218.324 37.5 218.45 37.5 218.577 37.5C218.703 37.5 218.829 37.5 218.956 37.5C219.082 37.5 219.209 37.5 219.335 37.5C219.462 37.5 219.588 37.5 219.714 37.5C219.841 37.5 219.967 37.5 220.093 37.5C220.22 37.5 220.346 37.5 220.472 37.5C220.599 37.5 220.725 37.5 220.851 37.5C220.978 37.5 221.104 37.5 221.23 37.5C221.356 37.5 221.483 37.5 221.609 37.5C221.735 37.5 221.861 37.5 221.987 37.5C222.113 37.5 222.24 37.5 222.366 37.5C222.492 37.5 222.618 37.5 222.744 37.5C222.87 37.5 222.996 37.5 223.122 37.5C223.248 37.5 223.374 37.5 223.5 37.5V38.5C223.374 38.5 223.248 38.5 223.122 38.5C222.996 38.5 222.87 38.5 222.744 38.5C222.618 38.5 222.492 38.5 222.366 38.5C222.24 38.5 222.113 38.5 221.987 38.5C221.861 38.5 221.735 38.5 221.609 38.5C221.483 38.5 221.356 38.5 221.23 38.5C221.104 38.5 220.978 38.5 220.851 38.5C220.725 38.5 220.599 38.5 220.472 38.5C220.346 38.5 220.22 38.5 220.093 38.5C219.967 38.5 219.841 38.5 219.714 38.5C219.588 38.5 219.462 38.5 219.335 38.5C219.209 38.5 219.082 38.5 218.956 38.5C218.829 38.5 218.703 38.5 218.577 38.5C218.45 38.5 218.324 38.5 218.197 38.5C218.071 38.5 217.944 38.5 217.818 38.5C217.691 38.5 217.564 38.5 217.438 38.5C217.311 38.5 217.185 38.5 217.058 38.5C216.932 38.5 216.805 38.5 216.678 38.5C216.552 38.5 216.425 38.5 216.298 38.5C216.172 38.5 216.045 38.5 215.919 38.5C215.792 38.5 215.665 38.5 215.538 38.5C215.412 38.5 215.285 38.5 215.158 38.5C215.032 38.5 214.905 38.5 214.778 38.5C214.652 38.5 214.525 38.5 214.398 38.5C214.271 38.5 214.145 38.5 214.018 38.5C213.891 38.5 213.764 38.5 213.637 38.5C213.511 38.5 213.384 38.5 213.257 38.5C213.13 38.5 213.003 38.5 212.877 38.5C212.75 38.5 212.623 38.5 212.496 38.5C212.369 38.5 212.243 38.5 212.116 38.5C211.989 38.5 211.862 38.5 211.735 38.5C211.608 38.5 211.481 38.5 211.355 38.5C211.228 38.5 211.101 38.5 210.974 38.5C210.847 38.5 210.72 38.5 210.593 38.5C210.467 38.5 210.34 38.5 210.213 38.5C210.086 38.5 209.959 38.5 209.832 38.5C209.705 38.5 209.578 38.5 209.451 38.5C209.325 38.5 209.198 38.5 209.071 38.5C208.944 38.5 208.817 38.5 208.69 38.5C208.563 38.5 208.436 38.5 208.309 38.5C208.183 38.5 208.056 38.5 207.929 38.5C207.802 38.5 207.675 38.5 207.548 38.5C207.421 38.5 207.294 38.5 207.167 38.5C207.04 38.5 206.914 38.5 206.787 38.5C206.66 38.5 206.533 38.5 206.406 38.5C206.279 38.5 206.152 38.5 206.025 38.5C205.899 38.5 205.772 38.5 205.645 38.5C205.518 38.5 205.391 38.5 205.264 38.5C205.137 38.5 205.01 38.5 204.884 38.5C204.757 38.5 204.63 38.5 204.503 38.5C204.376 38.5 204.249 38.5 204.123 38.5C203.996 38.5 203.869 38.5 203.742 38.5C203.615 38.5 203.489 38.5 203.362 38.5C203.235 38.5 203.108 38.5 202.981 38.5C202.855 38.5 202.728 38.5 202.601 38.5C202.474 38.5 202.347 38.5 202.221 38.5C202.094 38.5 201.967 38.5 201.84 38.5C201.714 38.5 201.587 38.5 201.46 38.5C201.334 38.5 201.207 38.5 201.08 38.5C200.953 38.5 200.827 38.5 200.7 38.5C200.573 38.5 200.447 38.5 200.32 38.5C200.194 38.5 200.067 38.5 199.94 38.5C199.814 38.5 199.687 38.5 199.56 38.5C199.434 38.5 199.307 38.5 199.181 38.5C199.054 38.5 198.928 38.5 198.801 38.5C198.674 38.5 198.548 38.5 198.421 38.5C198.295 38.5 198.168 38.5 198.042 38.5C197.915 38.5 197.789 38.5 197.662 38.5C197.536 38.5 197.41 38.5 197.283 38.5C197.157 38.5 197.03 38.5 196.904 38.5C196.778 38.5 196.651 38.5 196.525 38.5C196.398 38.5 196.272 38.5 196.146 38.5C196.02 38.5 195.893 38.5 195.767 38.5C195.641 38.5 195.514 38.5 195.388 38.5C195.262 38.5 195.136 38.5 195.009 38.5C194.883 38.5 194.757 38.5 194.631 38.5C194.505 38.5 194.379 38.5 194.253 38.5C194.126 38.5 194 38.5 193.874 38.5C193.748 38.5 193.622 38.5 193.496 38.5C193.37 38.5 193.244 38.5 193.118 38.5C192.992 38.5 192.866 38.5 192.74 38.5C192.614 38.5 192.488 38.5 192.362 38.5C192.236 38.5 192.111 38.5 191.985 38.5C191.859 38.5 191.733 38.5 191.607 38.5C191.481 38.5 191.356 38.5 191.23 38.5C191.104 38.5 190.978 38.5 190.853 38.5C190.727 38.5 190.601 38.5 190.476 38.5C190.35 38.5 190.224 38.5 190.099 38.5C189.973 38.5 189.848 38.5 189.722 38.5C189.597 38.5 189.471 38.5 189.346 38.5C189.22 38.5 189.095 38.5 188.969 38.5C188.844 38.5 188.718 38.5 188.593 38.5C188.468 38.5 188.342 38.5 188.217 38.5C188.092 38.5 187.967 38.5 187.841 38.5C187.716 38.5 187.591 38.5 187.466 38.5C187.34 38.5 187.215 38.5 187.09 38.5C186.965 38.5 186.84 38.5 186.715 38.5C186.59 38.5 186.465 38.5 186.34 38.5C186.215 38.5 186.09 38.5 185.965 38.5C185.84 38.5 185.715 38.5 185.59 38.5C185.465 38.5 185.341 38.5 185.216 38.5C185.091 38.5 184.966 38.5 184.842 38.5C184.717 38.5 184.592 38.5 184.468 38.5C184.343 38.5 184.218 38.5 184.094 38.5C183.969 38.5 183.845 38.5 183.72 38.5C183.596 38.5 183.471 38.5 183.347 38.5C183.222 38.5 183.098 38.5 182.974 38.5C182.849 38.5 182.725 38.5 182.601 38.5C182.476 38.5 182.352 38.5 182.228 38.5C182.104 38.5 181.98 38.5 181.856 38.5C181.731 38.5 181.607 38.5 181.483 38.5C181.359 38.5 181.235 38.5 181.111 38.5C180.987 38.5 180.863 38.5 180.74 38.5C180.616 38.5 180.492 38.5 180.368 38.5C180.244 38.5 180.121 38.5 179.997 38.5C179.873 38.5 179.749 38.5 179.626 38.5C179.502 38.5 179.379 38.5 179.255 38.5C179.132 38.5 179.008 38.5 178.885 38.5C178.761 38.5 178.638 38.5 178.514 38.5C178.391 38.5 178.268 38.5 178.145 38.5C178.021 38.5 177.898 38.5 177.775 38.5C177.652 38.5 177.529 38.5 177.406 38.5C177.282 38.5 177.159 38.5 177.036 38.5C176.913 38.5 176.791 38.5 176.668 38.5C176.545 38.5 176.422 38.5 176.299 38.5C176.176 38.5 176.054 38.5 175.931 38.5C175.808 38.5 175.686 38.5 175.563 38.5C175.44 38.5 175.318 38.5 175.195 38.5C175.073 38.5 174.95 38.5 174.828 38.5C174.706 38.5 174.583 38.5 174.461 38.5C174.339 38.5 174.216 38.5 174.094 38.5C173.972 38.5 173.85 38.5 173.728 38.5C173.606 38.5 173.484 38.5 173.362 38.5C173.24 38.5 173.118 38.5 172.996 38.5C172.874 38.5 172.752 38.5 172.63 38.5C172.509 38.5 172.387 38.5 172.265 38.5C172.144 38.5 172.022 38.5 171.9 38.5C171.779 38.5 171.657 38.5 171.536 38.5C171.415 38.5 171.293 38.5 171.172 38.5C171.051 38.5 170.929 38.5 170.808 38.5C170.687 38.5 170.566 38.5 170.445 38.5C170.323 38.5 170.202 38.5 170.081 38.5C169.96 38.5 169.84 38.5 169.719 38.5C169.598 38.5 169.477 38.5 169.356 38.5C169.235 38.5 169.115 38.5 168.994 38.5C168.874 38.5 168.753 38.5 168.632 38.5C168.512 38.5 168.391 38.5 168.271 38.5C168.151 38.5 168.03 38.5 167.91 38.5C167.79 38.5 167.67 38.5 167.549 38.5C167.429 38.5 167.309 38.5 167.189 38.5C167.069 38.5 166.949 38.5 166.829 38.5C166.709 38.5 166.59 38.5 166.47 38.5C166.35 38.5 166.23 38.5 166.111 38.5C165.991 38.5 165.872 38.5 165.752 38.5C165.633 38.5 165.513 38.5 165.394 38.5C165.274 38.5 165.155 38.5 165.036 38.5C164.917 38.5 164.797 38.5 164.678 38.5C164.559 38.5 164.44 38.5 164.321 38.5C164.202 38.5 164.083 38.5 163.964 38.5C163.846 38.5 163.727 38.5 163.608 38.5C163.489 38.5 163.371 38.5 163.252 38.5C163.134 38.5 163.015 38.5 162.897 38.5C162.778 38.5 162.66 38.5 162.542 38.5C162.423 38.5 162.305 38.5 162.187 38.5C162.069 38.5 161.951 38.5 161.833 38.5C161.715 38.5 161.597 38.5 161.479 38.5C161.361 38.5 161.243 38.5 161.125 38.5C161.008 38.5 160.89 38.5 160.772 38.5C160.655 38.5 160.537 38.5 160.42 38.5C160.302 38.5 160.185 38.5 160.068 38.5C159.951 38.5 159.833 38.5 159.716 38.5C159.599 38.5 159.482 38.5 159.365 38.5C159.248 38.5 159.131 38.5 159.014 38.5C158.897 38.5 158.781 38.5 158.664 38.5C158.547 38.5 158.431 38.5 158.314 38.5C158.198 38.5 158.081 38.5 157.965 38.5C157.848 38.5 157.732 38.5 157.616 38.5C157.5 38.5 157.383 38.5 157.267 38.5C157.151 38.5 157.035 38.5 156.919 38.5C156.804 38.5 156.688 38.5 156.572 38.5C156.456 38.5 156.341 38.5 156.225 38.5C156.109 38.5 155.994 38.5 155.878 38.5C155.763 38.5 155.648 38.5 155.532 38.5C155.417 38.5 155.302 38.5 155.187 38.5C155.072 38.5 154.957 38.5 154.842 38.5C154.727 38.5 154.612 38.5 154.497 38.5C154.382 38.5 154.268 38.5 154.153 38.5C154.039 38.5 153.924 38.5 153.81 38.5C153.695 38.5 153.581 38.5 153.467 38.5C153.352 38.5 153.238 38.5 153.124 38.5C153.01 38.5 152.896 38.5 152.782 38.5C152.668 38.5 152.554 38.5 152.44 38.5C152.327 38.5 152.213 38.5 152.099 38.5C151.986 38.5 151.872 38.5 151.759 38.5C151.646 38.5 151.532 38.5 151.419 38.5C151.306 38.5 151.193 38.5 151.08 38.5C150.967 38.5 150.854 38.5 150.741 38.5C150.628 38.5 150.515 38.5 150.402 38.5C150.29 38.5 150.177 38.5 150.065 38.5C149.952 38.5 149.84 38.5 149.727 38.5C149.615 38.5 149.503 38.5 149.391 38.5C149.278 38.5 149.166 38.5 149.054 38.5C148.942 38.5 148.83 38.5 148.719 38.5C148.607 38.5 148.495 38.5 148.384 38.5C148.272 38.5 148.161 38.5 148.049 38.5C147.938 38.5 147.826 38.5 147.715 38.5C147.604 38.5 147.493 38.5 147.382 38.5C147.271 38.5 147.16 38.5 147.049 38.5C146.938 38.5 146.827 38.5 146.717 38.5C146.606 38.5 146.496 38.5 146.385 38.5C146.275 38.5 146.164 38.5 146.054 38.5C145.944 38.5 145.834 38.5 145.724 38.5C145.614 38.5 145.504 38.5 145.394 38.5C145.284 38.5 145.174 38.5 145.064 38.5C144.955 38.5 144.845 38.5 144.736 38.5C144.626 38.5 144.517 38.5 144.408 38.5C144.298 38.5 144.189 38.5 144.08 38.5C143.971 38.5 143.862 38.5 143.753 38.5C143.644 38.5 143.535 38.5 143.427 38.5C143.318 38.5 143.21 38.5 143.101 38.5C142.993 38.5 142.884 38.5 142.776 38.5C142.668 38.5 142.56 38.5 142.452 38.5C142.344 38.5 142.236 38.5 142.128 38.5C142.02 38.5 141.912 38.5 141.805 38.5C141.697 38.5 141.589 38.5 141.482 38.5C141.375 38.5 141.267 38.5 141.16 38.5C141.053 38.5 140.946 38.5 140.839 38.5C140.732 38.5 140.625 38.5 140.518 38.5C140.411 38.5 140.305 38.5 140.198 38.5C140.091 38.5 139.985 38.5 139.879 38.5C139.772 38.5 139.666 38.5 139.56 38.5C139.454 38.5 139.348 38.5 139.242 38.5C139.136 38.5 139.03 38.5 138.924 38.5C138.819 38.5 138.713 38.5 138.608 38.5C138.502 38.5 138.397 38.5 138.292 38.5C138.186 38.5 138.081 38.5 137.976 38.5C137.871 38.5 137.766 38.5 137.661 38.5C137.557 38.5 137.452 38.5 137.347 38.5C137.243 38.5 137.138 38.5 137.034 38.5C136.929 38.5 136.825 38.5 136.721 38.5C136.617 38.5 136.513 38.5 136.409 38.5C136.305 38.5 136.201 38.5 136.098 38.5C135.994 38.5 135.89 38.5 135.787 38.5C135.684 38.5 135.58 38.5 135.477 38.5C135.374 38.5 135.271 38.5 135.168 38.5C135.065 38.5 134.962 38.5 134.859 38.5C134.756 38.5 134.654 38.5 134.551 38.5C134.449 38.5 134.346 38.5 134.244 38.5C134.142 38.5 134.04 38.5 133.938 38.5C133.836 38.5 133.734 38.5 133.632 38.5C133.53 38.5 133.428 38.5 133.327 38.5C133.225 38.5 133.124 38.5 133.022 38.5C132.921 38.5 132.82 38.5 132.719 38.5C132.618 38.5 132.517 38.5 132.416 38.5C132.315 38.5 132.214 38.5 132.114 38.5C132.013 38.5 131.913 38.5 131.812 38.5C131.712 38.5 131.612 38.5 131.512 38.5C131.412 38.5 131.312 38.5 131.212 38.5C131.112 38.5 131.012 38.5 130.913 38.5C130.813 38.5 130.714 38.5 130.614 38.5C130.515 38.5 130.416 38.5 130.317 38.5C130.218 38.5 130.119 38.5 130.02 38.5C129.921 38.5 129.822 38.5 129.724 38.5C129.625 38.5 129.527 38.5 129.428 38.5C129.33 38.5 129.232 38.5 129.134 38.5C129.036 38.5 128.938 38.5 128.84 38.5C128.742 38.5 128.644 38.5 128.547 38.5C128.449 38.5 128.352 38.5 128.254 38.5C128.157 38.5 128.06 38.5 127.963 38.5C127.866 38.5 127.769 38.5 127.672 38.5C127.575 38.5 127.479 38.5 127.382 38.5C127.286 38.5 127.189 38.5 127.093 38.5C126.997 38.5 126.901 38.5 126.805 38.5C126.709 38.5 126.613 38.5 126.517 38.5C126.421 38.5 126.326 38.5 126.23 38.5C126.135 38.5 126.039 38.5 125.944 38.5C125.849 38.5 125.754 38.5 125.659 38.5C125.564 38.5 125.469 38.5 125.375 38.5C125.28 38.5 125.185 38.5 125.091 38.5C124.997 38.5 124.902 38.5 124.808 38.5C124.714 38.5 124.62 38.5 124.526 38.5C124.433 38.5 124.339 38.5 124.245 38.5C124.152 38.5 124.058 38.5 123.965 38.5C123.872 38.5 123.779 38.5 123.686 38.5C123.593 38.5 123.5 38.5 123.407 38.5C123.314 38.5 123.222 38.5 123.129 38.5C123.037 38.5 122.945 38.5 122.852 38.5C122.76 38.5 122.668 38.5 122.576 38.5C122.484 38.5 122.393 38.5 122.301 38.5C122.209 38.5 122.118 38.5 122.027 38.5C121.935 38.5 121.844 38.5 121.753 38.5C121.662 38.5 121.571 38.5 121.48 38.5C121.39 38.5 121.299 38.5 121.209 38.5C121.118 38.5 121.028 38.5 120.938 38.5C120.848 38.5 120.758 38.5 120.668 38.5C120.578 38.5 120.488 38.5 120.398 38.5C120.309 38.5 120.219 38.5 120.13 38.5C120.041 38.5 119.952 38.5 119.863 38.5C119.774 38.5 119.685 38.5 119.596 38.5C119.507 38.5 119.419 38.5 119.33 38.5C119.242 38.5 119.154 38.5 119.066 38.5C118.978 38.5 118.89 38.5 118.802 38.5C118.714 38.5 118.626 38.5 118.539 38.5C118.451 38.5 118.364 38.5 118.277 38.5C118.189 38.5 118.102 38.5 118.015 38.5C117.929 38.5 117.842 38.5 117.755 38.5C117.669 38.5 117.582 38.5 117.496 38.5C117.409 38.5 117.323 38.5 117.237 38.5C117.151 38.5 117.065 38.5 116.98 38.5C116.894 38.5 116.808 38.5 116.723 38.5C116.638 38.5 116.552 38.5 116.467 38.5C116.382 38.5 116.297 38.5 116.213 38.5C116.128 38.5 116.043 38.5 115.959 38.5C115.874 38.5 115.79 38.5 115.706 38.5C115.622 38.5 115.538 38.5 115.454 38.5C115.37 38.5 115.286 38.5 115.203 38.5C115.119 38.5 115.036 38.5 114.953 38.5C114.869 38.5 114.786 38.5 114.703 38.5C114.621 38.5 114.538 38.5 114.455 38.5C114.373 38.5 114.29 38.5 114.208 38.5C114.126 38.5 114.044 38.5 113.962 38.5C113.88 38.5 113.798 38.5 113.716 38.5C113.635 38.5 113.553 38.5 113.472 38.5C113.391 38.5 113.31 38.5 113.229 38.5C113.148 38.5 113.067 38.5 112.986 38.5C112.905 38.5 112.825 38.5 112.745 38.5C112.664 38.5 112.584 38.5 112.504 38.5C112.424 38.5 112.344 38.5 112.265 38.5C112.185 38.5 112.105 38.5 112.026 38.5C111.947 38.5 111.868 38.5 111.789 38.5C111.71 38.5 111.631 38.5 111.552 38.5C111.473 38.5 111.395 38.5 111.317 38.5C111.238 38.5 111.16 38.5 111.082 38.5C111.004 38.5 110.926 38.5 110.848 38.5C110.771 38.5 110.693 38.5 110.616 38.5C110.539 38.5 110.461 38.5 110.384 38.5C110.307 38.5 110.23 38.5 110.154 38.5C110.077 38.5 110.001 38.5 109.924 38.5C109.848 38.5 109.772 38.5 109.696 38.5C109.62 38.5 109.544 38.5 109.468 38.5C109.393 38.5 109.317 38.5 109.242 38.5C109.167 38.5 109.091 38.5 109.017 38.5C108.942 38.5 108.867 38.5 108.792 38.5C108.717 38.5 108.643 38.5 108.569 38.5C108.494 38.5 108.42 38.5 108.346 38.5C108.273 38.5 108.199 38.5 108.125 38.5C108.052 38.5 107.978 38.5 107.905 38.5C107.832 38.5 107.759 38.5 107.686 38.5C107.613 38.5 107.54 38.5 107.468 38.5C107.395 38.5 107.323 38.5 107.251 38.5C107.178 38.5 107.106 38.5 107.035 38.5C106.963 38.5 106.891 38.5 106.82 38.5C106.748 38.5 106.677 38.5 106.606 38.5C106.535 38.5 106.464 38.5 106.393 38.5C106.322 38.5 106.252 38.5 106.181 38.5C106.111 38.5 106.041 38.5 105.971 38.5C105.901 38.5 105.831 38.5 105.761 38.5C105.691 38.5 105.622 38.5 105.553 38.5C105.483 38.5 105.414 38.5 105.345 38.5C105.276 38.5 105.207 38.5 105.139 38.5C105.07 38.5 105.002 38.5 104.934 38.5C104.865 38.5 104.797 38.5 104.73 38.5C104.662 38.5 104.594 38.5 104.527 38.5C104.459 38.5 104.392 38.5 104.325 38.5C104.257 38.5 104.191 38.5 104.124 38.5C104.057 38.5 103.99 38.5 103.924 38.5C103.858 38.5 103.792 38.5 103.726 38.5C103.66 38.5 103.594 38.5 103.528 38.5C103.462 38.5 103.397 38.5 103.332 38.5C103.266 38.5 103.201 38.5 103.136 38.5C103.072 38.5 103.007 38.5 102.942 38.5C102.878 38.5 102.814 38.5 102.749 38.5C102.685 38.5 102.621 38.5 102.558 38.5C102.494 38.5 102.43 38.5 102.367 38.5C102.304 38.5 102.24 38.5 102.177 38.5C102.114 38.5 102.052 38.5 101.989 38.5C101.926 38.5 101.864 38.5 101.802 38.5C101.74 38.5 101.677 38.5 101.616 38.5C101.554 38.5 101.492 38.5 101.431 38.5C101.369 38.5 101.308 38.5 101.247 38.5C101.186 38.5 101.125 38.5 101.064 38.5C101.004 38.5 100.943 38.5 100.883 38.5C100.823 38.5 100.762 38.5 100.703 38.5C100.643 38.5 100.583 38.5 100.523 38.5C100.464 38.5 100.405 38.5 100.345 38.5C100.286 38.5 100.227 38.5 100.169 38.5C100.11 38.5 100.051 38.5 99.9932 38.5C99.9348 38.5 99.8767 38.5 99.8188 38.5C99.7608 38.5 99.7031 38.5 99.6456 38.5C99.588 38.5 99.5307 38.5 99.4736 38.5C99.4164 38.5 99.3595 38.5 99.3027 38.5C99.246 38.5 99.1895 38.5 99.1331 38.5C99.0768 38.5 99.0207 38.5 98.9647 38.5C98.9088 38.5 98.8531 38.5 98.7975 38.5C98.742 38.5 98.6867 38.5 98.6315 38.5C98.5764 38.5 98.5215 38.5 98.4668 38.5C98.412 38.5 98.3575 38.5 98.3032 38.5C98.2489 38.5 98.1948 38.5 98.1408 38.5C98.0869 38.5 98.0332 38.5 97.9797 38.5C97.9262 38.5 97.8729 38.5 97.8198 38.5C97.7667 38.5 97.7139 38.5 97.6612 38.5C97.6085 38.5 97.556 38.5 97.5038 38.5C97.4515 38.5 97.3994 38.5 97.3476 38.5C97.2957 38.5 97.2441 38.5 97.1926 38.5C97.1412 38.5 97.0899 38.5 97.0389 38.5C96.9879 38.5 96.9371 38.5 96.8865 38.5C96.8358 38.5 96.7854 38.5 96.7353 38.5C96.6851 38.5 96.6351 38.5 96.5853 38.5C96.5355 38.5 96.486 38.5 96.4366 38.5C96.3873 38.5 96.3381 38.5 96.2892 38.5C96.2402 38.5 96.1915 38.5 96.143 38.5C96.0945 38.5 96.0462 38.5 95.9981 38.5C95.95 38.5 95.9022 38.5 95.8545 38.5C95.8068 38.5 95.7594 38.5 95.7121 38.5C95.6649 38.5 95.6179 38.5 95.5711 38.5C95.5243 38.5 95.4777 38.5 95.4313 38.5C95.3849 38.5 95.3387 38.5 95.2928 38.5C95.2468 38.5 95.2011 38.5 95.1556 38.5C95.11 38.5 95.0647 38.5 95.0196 38.5C94.9745 38.5 94.9297 38.5 94.885 38.5C94.8403 38.5 94.7959 38.5 94.7517 38.5C94.7074 38.5 94.6634 38.5 94.6196 38.5C94.5759 38.5 94.5323 38.5 94.4889 38.5C94.4456 38.5 94.4024 38.5 94.3595 38.5C94.3166 38.5 94.2739 38.5 94.2314 38.5C94.1889 38.5 94.1467 38.5 94.1046 38.5C94.0626 38.5 94.0208 38.5 93.9792 38.5C93.9376 38.5 93.8962 38.5 93.855 38.5C93.8139 38.5 93.7729 38.5 93.7322 38.5C93.6915 38.5 93.651 38.5 93.6107 38.5C93.5704 38.5 93.5304 38.5 93.4906 38.5C93.4507 38.5 93.4111 38.5 93.3717 38.5C93.3324 38.5 93.2932 38.5 93.2543 38.5C93.2153 38.5 93.1766 38.5 93.1381 38.5C93.0997 38.5 93.0614 38.5 93.0234 38.5C92.9853 38.5 92.9475 38.5 92.9099 38.5C92.8723 38.5 92.835 38.5 92.7978 38.5C92.7607 38.5 92.7238 38.5 92.6871 38.5C92.6504 38.5 92.614 38.5 92.5778 38.5C92.5415 38.5 92.5055 38.5 92.4698 38.5C92.434 38.5 92.3984 38.5 92.3631 38.5C92.3278 38.5 92.2927 38.5 92.2579 38.5C92.223 38.5 92.1884 38.5 92.154 38.5C92.1196 38.5 92.0854 38.5 92.0515 38.5C92.0175 38.5 91.9838 38.5 91.9503 38.5C91.9169 38.5 91.8836 38.5 91.8506 38.5C91.8176 38.5 91.7848 38.5 91.7522 38.5C91.7197 38.5 91.6874 38.5 91.6553 38.5C91.6232 38.5 91.5913 38.5 91.5597 38.5C91.5281 38.5 91.4967 38.5 91.4655 38.5C91.4344 38.5 91.4035 38.5 91.3728 38.5C91.3421 38.5 91.3116 38.5 91.2814 38.5C91.2512 38.5 91.2212 38.5 91.1914 38.5C91.1617 38.5 91.1322 38.5 91.1029 38.5C91.0736 38.5 91.0446 38.5 91.0158 38.5C90.987 38.5 90.9584 38.5 90.9301 38.5C90.9017 38.5 90.8736 38.5 90.8458 38.5C90.8179 38.5 90.7903 38.5 90.7629 38.5C90.7355 38.5 90.7084 38.5 90.6815 38.5C90.6546 38.5 90.6279 38.5 90.6015 38.5C90.575 38.5 90.5489 38.5 90.5229 38.5C90.497 38.5 90.4712 38.5 90.4458 38.5C90.4203 38.5 90.3951 38.5 90.3701 38.5C90.3451 38.5 90.3204 38.5 90.2959 38.5C90.2713 38.5 90.2471 38.5 90.2231 38.5C90.199 38.5 90.1753 38.5 90.1517 38.5C90.1282 38.5 90.1049 38.5 90.0818 38.5C90.0588 38.5 90.036 38.5 90.0134 38.5C89.9909 38.5 89.9685 38.5 89.9465 38.5C89.9244 38.5 89.9026 38.5 89.881 38.5C89.8594 38.5 89.8381 38.5 89.817 38.5C89.7959 38.5 89.775 38.5 89.7544 38.5C89.7338 38.5 89.7135 38.5 89.6933 38.5C89.6732 38.5 89.6534 38.5 89.6338 38.5C89.6141 38.5 89.5948 38.5 89.5757 38.5C89.5565 38.5 89.5377 38.5 89.519 38.5C89.5004 38.5 89.482 38.5 89.4639 38.5C89.4458 38.5 89.4279 38.5 89.4103 38.5C89.3926 38.5 89.3753 38.5 89.3581 38.5C89.341 38.5 89.3241 38.5 89.3075 38.5C89.2909 38.5 89.2745 38.5 89.2584 38.5C89.2422 38.5 89.2264 38.5 89.2107 38.5C89.1951 38.5 89.1797 38.5 89.1646 38.5C89.1495 38.5 89.1346 38.5 89.12 38.5C89.1054 38.5 89.091 38.5 89.0769 38.5C89.0628 38.5 89.049 38.5 89.0354 38.5C89.0218 38.5 89.0084 38.5 88.9953 38.5C88.9823 38.5 88.9694 38.5 88.9568 38.5C88.9443 38.5 88.9319 38.5 88.9199 38.5C88.9078 38.5 88.896 38.5 88.8844 38.5C88.8729 38.5 88.8616 38.5 88.8505 38.5C88.8395 38.5 88.8287 38.5 88.8182 38.5C88.8076 38.5 88.7974 38.5 88.7873 38.5C88.7773 38.5 88.7676 38.5 88.7581 38.5C88.7486 38.5 88.7393 38.5 88.7304 38.5C88.7214 38.5 88.7127 38.5 88.7042 38.5C88.6957 38.5 88.6875 38.5 88.6796 38.5C88.6717 38.5 88.664 38.5 88.6566 38.5C88.6492 38.5 88.642 38.5 88.6351 38.5C88.6282 38.5 88.6216 38.5 88.6152 38.5C88.6088 38.5 88.6027 38.5 88.5969 38.5C88.591 38.5 88.5854 38.5 88.5801 38.5C88.5748 38.5 88.5697 38.5 88.5649 38.5C88.5601 38.5 88.5556 38.5 88.5513 38.5C88.5471 38.5 88.5431 38.5 88.5393 38.5C88.5356 38.5 88.5321 38.5 88.5289 38.5C88.5257 38.5 88.5228 38.5 88.5201 38.5C88.5174 38.5 88.515 38.5 88.5129 38.5C88.5107 38.5 88.5089 38.5 88.5072 38.5C88.5056 38.5 88.5043 38.5 88.5032 38.5C88.5022 38.5 88.5013 38.5 88.5008 38.5C88.5003 38.5 88.5 38.5 88.5 38Z" fill="url(#paint0_linear_692_2711)"/>
<defs>
<linearGradient id="paint0_linear_692_2711" x1="-41.7081" y1="27.7322" x2="309.749" y2="27.7322" gradientUnits="userSpaceOnUse">
<stop stop-color="#0E8CFA"/>
<stop offset="0.7719" stop-color="#00AAFB"/>
</linearGradient>
</defs>
</svg>
