<svg width="44" height="44" viewBox="0 0 44 44" fill="none" xmlns="http://www.w3.org/2000/svg">
<path d="M35.293 14.666L39.968 8.43268C40.1718 8.16018 40.2957 7.83637 40.3261 7.49745C40.3564 7.15853 40.2918 6.81785 40.1397 6.5135C39.9875 6.20915 39.7537 5.95312 39.4643 5.77402C39.175 5.59492 38.8416 5.49982 38.5013 5.49935H16.5013C16.5013 5.01312 16.3081 4.5468 15.9643 4.20299C15.6205 3.85917 15.1542 3.66602 14.668 3.66602C14.1817 3.66602 13.7154 3.85917 13.3716 4.20299C13.0278 4.5468 12.8346 5.01312 12.8346 5.49935V36.666H11.0013C10.5151 36.666 10.0488 36.8592 9.70494 37.203C9.36112 37.5468 9.16797 38.0131 9.16797 38.4994C9.16797 38.9856 9.36112 39.4519 9.70494 39.7957C10.0488 40.1395 10.5151 40.3327 11.0013 40.3327H18.3346C18.8209 40.3327 19.2872 40.1395 19.631 39.7957C19.9748 39.4519 20.168 38.9856 20.168 38.4994C20.168 38.0131 19.9748 37.5468 19.631 37.203C19.2872 36.8592 18.8209 36.666 18.3346 36.666H16.5013V23.8327H38.5013C38.8416 23.8322 39.175 23.7371 39.4643 23.558C39.7537 23.3789 39.9875 23.1229 40.1397 22.8185C40.2918 22.5142 40.3564 22.1735 40.3261 21.8346C40.2957 21.4957 40.1718 21.1719 39.968 20.8993L35.293 14.666Z" fill="#00AFFA"/>
</svg>
