<svg width="146" height="43" viewBox="0 0 146 43" fill="none" xmlns="http://www.w3.org/2000/svg">
<path d="M0.739088 1.8191C0.503524 1.67501 0.429376 1.36723 0.573473 1.13166C0.717571 0.896103 1.02535 0.821953 1.26091 0.966053L0.739088 1.8191ZM63.938 39.8926V40.3926H63.7972L63.6771 40.3191L63.938 39.8926ZM139.833 39.8926C139.833 38.4198 141.027 37.2259 142.5 37.2259C143.973 37.2259 145.167 38.4198 145.167 39.8926C145.167 41.3653 143.973 42.5592 142.5 42.5592C141.027 42.5592 139.833 41.3653 139.833 39.8926ZM1.26091 0.966053L64.1989 39.4661L63.6771 40.3191L0.739088 1.8191L1.26091 0.966053ZM63.938 39.3926H142.5V40.3926H63.938V39.3926Z" fill="url(#paint0_linear_692_21742)"/>
<defs>
<linearGradient id="paint0_linear_692_21742" x1="-26.1604" y1="20.6298" x2="197.35" y2="20.6298" gradientUnits="userSpaceOnUse">
<stop stop-color="#0E8CFA"/>
<stop offset="0.7719" stop-color="#00AAFB"/>
</linearGradient>
</defs>
</svg>
