<svg width="145" height="43" viewBox="0 0 145 43" fill="none" xmlns="http://www.w3.org/2000/svg">
<path d="M144.761 41.4661C144.996 41.6101 145.071 41.9179 144.927 42.1535C144.782 42.3891 144.475 42.4632 144.239 42.3191L144.761 41.4661ZM81.562 3.39258V2.89258H81.7028L81.8229 2.96605L81.562 3.39258ZM5.66667 3.39258C5.66667 4.86534 4.47276 6.05924 3 6.05924C1.52724 6.05924 0.333328 4.86534 0.333328 3.39258C0.333328 1.91982 1.52724 0.725911 3 0.725911C4.47276 0.725911 5.66667 1.91982 5.66667 3.39258ZM144.239 42.3191L81.3011 3.8191L81.8229 2.96605L144.761 41.4661L144.239 42.3191ZM81.562 3.89258H3V2.89258H81.562V3.89258Z" fill="white"/>
</svg>
