<svg width="362" height="91" viewBox="0 0 362 91" fill="none" xmlns="http://www.w3.org/2000/svg">
<path d="M0.607384 90.1464C0.412122 90.3417 0.412122 90.6583 0.607384 90.8536C0.802646 91.0488 1.11923 91.0488 1.31449 90.8536L0.607384 90.1464ZM88.4611 3V2.5H88.254L88.1076 2.64645L88.4611 3ZM356.335 3C356.335 4.47276 357.529 5.66667 359.002 5.66667C360.474 5.66667 361.668 4.47276 361.668 3C361.668 1.52724 360.474 0.333333 359.002 0.333333C357.529 0.333333 356.335 1.52724 356.335 3ZM1.31449 90.8536L88.8147 3.35355L88.1076 2.64645L0.607384 90.1464L1.31449 90.8536ZM88.4611 3.5H359.002V2.5H88.4611V3.5Z" fill="white"/>
</svg>
