<svg width="223" height="47" viewBox="0 0 223 47" fill="none" xmlns="http://www.w3.org/2000/svg">
<path d="M222.275 45.5821C222.505 45.7338 222.57 46.0438 222.418 46.2746C222.266 46.5054 221.956 46.5695 221.725 46.4179L222.275 45.5821ZM156.562 3V2.5H156.712L156.837 2.58214L156.562 3ZM5.66667 3C5.66667 4.47276 4.47276 5.66667 3 5.66667C1.52724 5.66667 0.333328 4.47276 0.333328 3C0.333328 1.52724 1.52724 0.333333 3 0.333333C4.47276 0.333333 5.66667 1.52724 5.66667 3ZM221.725 46.4179L156.287 3.41786L156.837 2.58214L222.275 45.5821L221.725 46.4179ZM156.562 3.5H3V2.5H156.562V3.5Z" fill="url(#paint0_linear_692_19161)"/>
<defs>
<linearGradient id="paint0_linear_692_19161" x1="264.036" y1="24.5143" x2="-81.8921" y2="24.5143" gradientUnits="userSpaceOnUse">
<stop stop-color="#0E8CFA"/>
<stop offset="0.7719" stop-color="#00AAFB"/>
</linearGradient>
</defs>
</svg>
