<svg width="276" height="47" viewBox="0 0 276 47" fill="none" xmlns="http://www.w3.org/2000/svg">
<path d="M0.72542 45.5821C0.494643 45.7338 0.430495 46.0438 0.582141 46.2746C0.733787 46.5054 1.0438 46.5695 1.27458 46.4179L0.72542 45.5821ZM66.438 3V2.5H66.2884L66.1634 2.58214L66.438 3ZM269.833 3C269.833 4.47276 271.027 5.66667 272.5 5.66667C273.973 5.66667 275.167 4.47276 275.167 3C275.167 1.52724 273.973 0.333333 272.5 0.333333C271.027 0.333333 269.833 1.52724 269.833 3ZM1.27458 46.4179L66.7126 3.41786L66.1634 2.58214L0.72542 45.5821L1.27458 46.4179ZM66.438 3.5H272.5V2.5H66.438V3.5Z" fill="url(#paint0_linear_692_19151)"/>
<defs>
<linearGradient id="paint0_linear_692_19151" x1="-51.1135" y1="24.5143" x2="377.743" y2="24.5143" gradientUnits="userSpaceOnUse">
<stop stop-color="#0E8CFA"/>
<stop offset="0.7719" stop-color="#00AAFB"/>
</linearGradient>
</defs>
</svg>
