<svg width="40" height="181" viewBox="0 0 40 181" fill="none" xmlns="http://www.w3.org/2000/svg">
<path d="M0.867428 0.553466C0.680141 0.350541 0.363811 0.337864 0.160889 0.525151C-0.042038 0.712437 -0.0547142 1.02877 0.132572 1.23169L0.867428 0.553466ZM36.4375 39.8307H36.9375V39.6353L36.8049 39.4916L36.4375 39.8307ZM36.4375 174.726C34.9647 174.726 33.7708 175.92 33.7708 177.393C33.7708 178.865 34.9647 180.059 36.4375 180.059C37.9103 180.059 39.1042 178.865 39.1042 177.393C39.1042 175.92 37.9103 174.726 36.4375 174.726ZM0.132572 1.23169L36.0701 40.1699L36.8049 39.4916L0.867428 0.553466L0.132572 1.23169ZM35.9375 39.8307L35.9375 177.393H36.9375L36.9375 39.8307H35.9375Z" fill="white"/>
</svg>
