<svg width="146" height="43" viewBox="0 0 146 43" fill="none" xmlns="http://www.w3.org/2000/svg">
<path d="M0.739088 41.4661C0.503524 41.6101 0.429376 41.9179 0.573473 42.1535C0.717571 42.3891 1.02535 42.4632 1.26091 42.3191L0.739088 41.4661ZM63.938 3.39258V2.89258H63.7972L63.6771 2.96605L63.938 3.39258ZM139.833 3.39258C139.833 4.86534 141.027 6.05924 142.5 6.05924C143.973 6.05924 145.167 4.86534 145.167 3.39258C145.167 1.91982 143.973 0.725911 142.5 0.725911C141.027 0.725911 139.833 1.91982 139.833 3.39258ZM1.26091 42.3191L64.1989 3.8191L63.6771 2.96605L0.739088 41.4661L1.26091 42.3191ZM63.938 3.89258H142.5V2.89258H63.938V3.89258Z" fill="url(#paint0_linear_692_21745)"/>
<defs>
<linearGradient id="paint0_linear_692_21745" x1="-26.1604" y1="22.6554" x2="197.35" y2="22.6554" gradientUnits="userSpaceOnUse">
<stop stop-color="#0E8CFA"/>
<stop offset="0.7719" stop-color="#00AAFB"/>
</linearGradient>
</defs>
</svg>
