<svg width="270" height="90" viewBox="0 0 270 90" fill="none" xmlns="http://www.w3.org/2000/svg">
<path d="M0.597626 1.29681C0.433703 1.07458 0.480966 0.761551 0.703191 0.597626C0.925416 0.433701 1.23845 0.480965 1.40237 0.703194L0.597626 1.29681ZM64.4375 87V87.5H64.185L64.0351 87.2968L64.4375 87ZM263.833 87C263.833 85.5272 265.027 84.3333 266.5 84.3333C267.973 84.3333 269.167 85.5272 269.167 87C269.167 88.4728 267.973 89.6667 266.5 89.6667C265.027 89.6667 263.833 88.4728 263.833 87ZM1.40237 0.703194L64.8399 86.7032L64.0351 87.2968L0.597626 1.29681L1.40237 0.703194ZM64.4375 86.5H266.5V87.5H64.4375V86.5Z" fill="white"/>
</svg>
