<svg width="350" height="47" viewBox="0 0 350 47" fill="none" xmlns="http://www.w3.org/2000/svg">
<path d="M349.275 45.5802C349.505 45.7318 349.57 46.0419 349.418 46.2726C349.266 46.5034 348.956 46.5676 348.725 46.4159L349.275 45.5802ZM283.562 2.99805V2.49805H283.712L283.837 2.58019L283.562 2.99805ZM5.66666 2.99805C5.66666 4.47081 4.47275 5.66471 3 5.66471C1.52725 5.66471 0.333344 4.47081 0.333344 2.99805C0.333344 1.52529 1.52725 0.33138 3 0.33138C4.47275 0.33138 5.66666 1.52529 5.66666 2.99805ZM348.725 46.4159L283.287 3.41591L283.837 2.58019L349.275 45.5802L348.725 46.4159ZM283.562 3.49805H3V2.49805H283.562V3.49805Z" fill="white"/>
</svg>
