<svg width="145" height="43" viewBox="0 0 145 43" fill="none" xmlns="http://www.w3.org/2000/svg">
<path d="M144.761 1.8191C144.996 1.67501 145.071 1.36723 144.927 1.13166C144.782 0.896103 144.475 0.821953 144.239 0.966053L144.761 1.8191ZM81.562 39.8926V40.3926H81.7028L81.8229 40.3191L81.562 39.8926ZM5.66667 39.8926C5.66667 38.4198 4.47276 37.2259 3 37.2259C1.52724 37.2259 0.333328 38.4198 0.333328 39.8926C0.333328 41.3653 1.52724 42.5592 3 42.5592C4.47276 42.5592 5.66667 41.3653 5.66667 39.8926ZM144.239 0.966053L81.3011 39.4661L81.8229 40.3191L144.761 1.8191L144.239 0.966053ZM81.562 39.3926H3V40.3926H81.562V39.3926Z" fill="white"/>
</svg>
