<svg width="18" height="19" viewBox="0 0 18 19" fill="none" xmlns="http://www.w3.org/2000/svg">
<path fill-rule="evenodd" clip-rule="evenodd" d="M9 1.4375C6.20775 1.4375 3.9375 3.728 3.9375 6.55325C3.9375 7.51025 4.359 8.6975 4.9725 9.88175C6.32325 12.4895 8.57325 15.116 8.57325 15.116C8.67975 15.2405 8.83575 15.3125 9 15.3125C9.16425 15.3125 9.32025 15.2405 9.42675 15.116C9.42675 15.116 11.6768 12.4895 13.0275 9.88175C13.641 8.6975 14.0625 7.51025 14.0625 6.55325C14.0625 3.728 11.7923 1.4375 9 1.4375ZM9 4.4375C7.8615 4.4375 6.9375 5.3615 6.9375 6.5C6.9375 7.6385 7.8615 8.5625 9 8.5625C10.1385 8.5625 11.0625 7.6385 11.0625 6.5C11.0625 5.3615 10.1385 4.4375 9 4.4375Z" fill="url(#paint0_linear_692_21859)"/>
<path fill-rule="evenodd" clip-rule="evenodd" d="M12.5919 13.5313C13.2017 13.7143 13.7042 13.9408 14.0514 14.2063C14.2764 14.3773 14.4414 14.5446 14.4414 14.7486C14.4414 14.8686 14.3732 14.9773 14.2772 15.0861C14.1182 15.2653 13.8819 15.4266 13.5894 15.5766C12.5559 16.1053 10.8849 16.4361 9.00391 16.4361C7.12291 16.4361 5.45191 16.1053 4.41841 15.5766C4.12591 15.4266 3.88966 15.2653 3.73066 15.0861C3.63466 14.9773 3.56641 14.8686 3.56641 14.7486C3.56641 14.5446 3.73141 14.3773 3.95641 14.2063C4.30366 13.9408 4.80616 13.7143 5.41591 13.5313C5.71291 13.4421 5.88166 13.1278 5.79241 12.8308C5.70316 12.5331 5.38891 12.3643 5.09191 12.4536C4.16341 12.7333 3.44191 13.1166 3.00841 13.5403C2.62741 13.9116 2.44141 14.3271 2.44141 14.7486C2.44141 15.2751 2.73916 15.8001 3.34441 16.2381C4.40641 17.0061 6.53941 17.5611 9.00391 17.5611C11.4684 17.5611 13.6014 17.0061 14.6634 16.2381C15.2687 15.8001 15.5664 15.2751 15.5664 14.7486C15.5664 14.3271 15.3804 13.9116 14.9994 13.5403C14.5659 13.1166 13.8444 12.7333 12.9159 12.4536C12.6189 12.3643 12.3047 12.5331 12.2154 12.8308C12.1262 13.1278 12.2949 13.4421 12.5919 13.5313Z" fill="url(#paint1_linear_692_21859)"/>
<defs>
<linearGradient id="paint0_linear_692_21859" x1="0.720972" y1="8.66975" x2="11.9638" y2="8.6383" gradientUnits="userSpaceOnUse">
<stop offset="0.3063" stop-color="#0668EB"/>
<stop offset="1" stop-color="#0F88FA"/>
</linearGradient>
<linearGradient id="paint1_linear_692_21859" x1="-1.72817" y1="15.1044" x2="12.8446" y2="14.9615" gradientUnits="userSpaceOnUse">
<stop offset="0.3063" stop-color="#0668EB"/>
<stop offset="1" stop-color="#0F88FA"/>
</linearGradient>
</defs>
</svg>
