<svg width="108" height="37" viewBox="0 0 108 37" fill="none" xmlns="http://www.w3.org/2000/svg">
<g clip-path="url(#clip0_692_19210)">
<path d="M9.80632 10.2252C10.1048 10.4554 10.481 10.5904 10.8873 10.5904L11.7651 10.5904C12.0134 11.0256 12.1563 11.5284 12.1563 12.0661C12.1563 12.6039 12.0134 13.1066 11.7651 13.5394L5.73833 13.5394C5.33705 13.5394 4.96586 13.6719 4.66741 13.897L4.66741 13.8945C4.384 14.1021 4.03539 14.2247 3.65668 14.2247C3.29553 14.2247 2.95945 14.1121 2.68357 13.9195L2.68106 13.9195C2.40518 13.7244 2.0666 13.6094 1.70043 13.6094C0.762436 13.6119 7.73147e-08 14.3723 8.25651e-08 15.3102C8.53514e-08 15.808 0.213181 16.2532 0.554271 16.5633C1.03581 17.0886 1.33175 17.7864 1.33175 18.5568C1.33175 19.3222 1.03832 20.02 0.559287 20.5428C0.215689 20.8529 1.16112e-07 21.3031 1.18898e-07 21.8009C1.24149e-07 22.7388 0.762436 23.4967 1.70043 23.4967C2.64094 23.4967 3.40086 22.7363 3.40086 21.8009C3.40086 21.3231 3.20273 20.8929 2.88672 20.5853L2.88923 20.5853C2.38512 20.055 2.07663 19.3422 2.07663 18.5543C2.07663 17.8189 2.3475 17.1461 2.79643 16.6284C3.04974 16.4808 3.34318 16.3957 3.65668 16.3957C4.03037 16.3957 4.37648 16.5158 4.65738 16.7209L4.66741 16.7209C4.96586 16.946 5.33705 17.0811 5.73833 17.0811L7.84255 17.0811C8.09085 17.5163 8.2338 18.0215 8.2338 18.5593C8.2338 19.0946 8.09335 19.5973 7.84506 20.0325L5.70823 20.0325C4.7276 20.0325 3.93256 20.8254 3.93256 21.8034C3.93256 22.7813 4.7276 23.5742 5.70823 23.5742L15.8105 23.5742C16.0638 24.0094 16.2068 24.5122 16.2068 25.05C16.2068 25.8353 15.8983 26.5507 15.3942 27.0809L15.3967 27.0809C15.0782 27.3886 14.8825 27.8188 14.8825 28.2965C14.8825 29.2345 15.645 29.9924 16.583 29.9924C17.5235 29.9924 18.2834 29.232 18.2834 28.2965C18.2834 27.7988 18.0677 27.3511 17.7266 27.0409C17.2451 26.5157 16.9516 25.8178 16.9516 25.0525C16.9516 24.3446 17.2024 23.6968 17.6188 23.1865C18.0251 22.8614 18.2834 22.3636 18.2834 21.8059C18.2834 20.8279 17.4884 20.035 16.5077 20.035L9.50536 20.035C9.25707 19.6023 9.11662 19.0996 9.11662 18.5618C9.11662 18.024 9.25958 17.5188 9.50787 17.0836L12.5451 17.0836C12.9514 17.0836 13.3276 16.946 13.6285 16.7184C13.9094 16.5133 14.253 16.4007 14.6292 16.4007C14.9929 16.4007 15.329 16.5158 15.6048 16.7084L15.6048 16.7009C15.8807 16.896 16.2193 17.011 16.5855 17.011C17.526 17.011 18.2859 16.2507 18.2859 15.3152C18.2859 14.3773 17.5235 13.6194 16.5855 13.6194C16.2193 13.6194 15.8832 13.7345 15.6048 13.9295L15.5998 13.9295C15.3239 14.1221 14.9904 14.2347 14.6267 14.2347C14.2957 14.2347 13.9872 14.1396 13.7263 13.9796C13.295 13.4643 13.0366 12.799 13.0366 12.0736C13.0366 11.5359 13.1796 11.0331 13.4279 10.5979L16.5102 10.5979C17.4909 10.5979 18.2859 9.80504 18.2859 8.82707C18.2859 8.35183 18.1028 7.92663 17.7994 7.60897C17.3053 7.07872 17.0018 6.36587 17.0018 5.58049C17.0018 4.7926 17.3028 4.07976 17.8019 3.547C18.1028 3.22934 18.2859 2.80164 18.2859 2.33141C18.2859 1.35343 17.4909 0.560547 16.5102 0.560547L13.6988 0.560547C12.7181 0.560547 11.9231 1.35343 11.9231 2.33141C11.9231 3.30938 12.7181 4.10227 13.6988 4.10227L15.7302 4.10227C15.9785 4.53748 16.1215 5.04022 16.1215 5.57799C16.1215 6.11575 15.9785 6.61849 15.7302 7.0512L10.8873 7.0512C10.481 7.0512 10.1073 7.18877 9.80632 7.41638C9.52292 7.62398 9.18183 7.73904 8.80563 7.73904C8.44448 7.73904 8.1084 7.62648 7.83252 7.43389L7.8275 7.43389C7.54911 7.23879 7.21304 7.12374 6.84687 7.12374C5.90637 7.12374 5.14644 7.88411 5.14644 8.81956C5.14644 9.75752 5.90888 10.5154 6.84687 10.5154C7.21304 10.5154 7.54911 10.4003 7.8275 10.2052L7.8275 10.2127C8.10339 10.0201 8.43946 9.90509 8.80312 9.90509C9.17932 9.90509 9.52543 10.0201 9.80632 10.2252ZM8.12345 9.94011C8.12596 9.94011 8.12596 9.94011 8.12345 9.94011V9.94011Z" fill="white"/>
<path d="M39.5612 16.5672C39.9048 16.2571 40.123 15.8068 40.123 15.3091C40.123 14.3712 39.3605 13.6133 38.4225 13.6133C37.482 13.6133 36.7221 14.3737 36.7221 15.3091C36.7221 15.7868 36.9202 16.217 37.2362 16.5247L37.2337 16.5247C37.7378 17.055 38.0463 17.7678 38.0463 18.5557C38.0463 19.291 37.7755 19.9639 37.3265 20.4816C37.0732 20.6292 36.7798 20.7142 36.4663 20.7142C36.1402 20.7142 35.8393 20.6242 35.5809 20.4666C35.27 20.1965 34.8612 20.0314 34.4147 20.0314L24.3099 20.0314C24.0566 19.5962 23.9137 19.0934 23.9137 18.5557C23.9137 17.7703 24.2222 17.055 24.7263 16.5247L24.7238 16.5247C25.0423 16.217 25.2379 15.7868 25.2379 15.3091C25.2379 14.3712 24.4755 13.6133 23.5375 13.6133C22.597 13.6133 21.837 14.3737 21.837 15.3091C21.837 15.8068 22.0527 16.2546 22.3938 16.5647C22.8754 17.09 23.1688 17.7878 23.1688 18.5532C23.1688 19.261 22.918 19.9088 22.5017 20.4191C22.0954 20.7442 21.837 21.242 21.837 21.7998C21.837 22.7777 22.6321 23.5706 23.6127 23.5706L27.292 23.5706C27.5403 24.0058 27.6832 24.5111 27.6832 25.0488C27.6832 25.5941 27.5352 26.1069 27.2794 26.5446C26.991 26.5921 26.7277 26.7096 26.5019 26.8797L26.5019 26.8772C26.2185 27.0848 25.8699 27.2074 25.4912 27.2074C25.1301 27.2074 24.794 27.0948 24.5181 26.9022L24.5156 26.9022C24.2397 26.7071 23.9011 26.5921 23.535 26.5921C22.5945 26.5921 21.8345 27.3525 21.8345 28.2879C21.8345 28.7857 22.0477 29.2309 22.3888 29.541C22.8703 30.0663 23.1663 30.7641 23.1663 31.5345C23.1663 32.2398 22.918 32.8877 22.5017 33.3954C22.0929 33.7206 21.832 34.2183 21.832 34.7811C21.832 35.759 22.6271 36.5519 23.6077 36.5519L29.2307 36.5519C30.2113 36.5519 31.0063 35.759 31.0063 34.7811C31.0063 33.8031 30.2113 33.0102 29.2307 33.0102L24.3099 33.0102C24.0591 32.5775 23.9137 32.0723 23.9137 31.5345C23.9137 30.7991 24.1845 30.1263 24.6335 29.6086C24.8868 29.461 25.1802 29.3759 25.4937 29.3759C25.8674 29.3759 26.2135 29.496 26.4944 29.7011L26.5045 29.7011C26.8029 29.9262 27.1741 30.0613 27.5754 30.0613L34.3821 30.0613C35.3628 30.0613 36.1578 29.2684 36.1578 28.2904C36.1578 27.3124 35.3628 26.5196 34.3821 26.5196L28.9548 26.5196C28.7065 26.0868 28.566 25.5841 28.566 25.0463C28.566 24.5086 28.709 24.0033 28.9573 23.5681L34.4147 23.5681C34.8662 23.5681 35.28 23.398 35.5935 23.1204C35.8493 22.9678 36.1478 22.8803 36.4663 22.8803C36.8274 22.8803 37.1635 22.9928 37.4394 23.1854L37.4419 23.1854C37.7178 23.3805 38.0564 23.4956 38.4225 23.4956C39.363 23.4956 40.123 22.7352 40.123 21.7998C40.123 21.302 39.9098 20.8568 39.5687 20.5467C39.0872 20.0214 38.7912 19.3236 38.7912 18.5532C38.7887 17.7878 39.0821 17.0925 39.5612 16.5672Z" fill="white"/>
<path d="M33.2696 10.0334C33.7712 10.5636 34.0797 11.2765 34.0797 12.0644C34.0797 12.6021 33.9343 13.1049 33.6835 13.5401L27.5765 13.5401C26.5958 13.5401 25.8008 14.333 25.8008 15.3109C25.8008 16.2889 26.5958 17.0818 27.5765 17.0818L34.3832 17.0818C35.3638 17.0818 36.1589 16.2889 36.1589 15.3109C36.1589 14.7507 35.898 14.2529 35.4917 13.9278C35.0754 13.42 34.8271 12.7722 34.8271 12.0669C34.8271 11.299 35.1206 10.6036 35.6021 10.0784C35.9457 9.76824 36.1589 9.32052 36.1589 8.82278C36.1589 7.88482 35.3964 7.12695 34.4584 7.12695C33.5179 7.12695 32.758 7.88732 32.758 8.82278C32.7555 9.29301 32.9511 9.72572 33.2696 10.0334Z" fill="white"/>
<path d="M23.6116 10.5896L29.2346 10.5896C30.2152 10.5896 31.0102 9.79668 31.0102 8.81871C31.0102 7.84073 30.2152 7.04784 29.2346 7.04784L27.3059 7.04784C27.0576 6.61263 26.9147 6.10989 26.9147 5.57463C26.9147 4.78675 27.2156 4.0739 27.7147 3.54114C28.0157 3.22349 28.1988 2.79578 28.1988 2.32555C28.1988 1.34757 27.4037 0.554687 26.4231 0.554687L23.6116 0.554687C22.631 0.554687 21.8359 1.34757 21.8359 2.32555C21.8359 3.30352 22.631 4.09641 23.6116 4.09641L25.6431 4.09641C25.8914 4.53162 26.0343 5.03437 26.0343 5.57213C26.0343 6.10989 25.8914 6.61263 25.6431 7.04534L23.6116 7.04534C22.631 7.04534 21.8359 7.83823 21.8359 8.8162C21.8359 9.79668 22.631 10.5896 23.6116 10.5896Z" fill="white"/>
<path d="M16.5113 33.0116L11.6683 33.0116C11.42 32.5764 11.2771 32.0736 11.2771 31.5384C11.2771 31.0006 11.42 30.4979 11.6683 30.0627L12.521 30.0627C13.4992 30.0627 14.2892 29.2723 14.2892 28.2993L14.2892 28.2868C14.2892 27.3113 13.4966 26.5234 12.521 26.5234L5.70174 26.5234C4.72362 26.5234 3.93359 27.3138 3.93359 28.2868L3.93359 28.2993C3.93359 29.2748 4.72613 30.0627 5.70174 30.0627L10.003 30.0627C10.2513 30.4979 10.3942 31.0006 10.3942 31.5384C10.3942 32.3213 10.0908 33.0341 9.59668 33.5669C9.29572 33.8845 9.11013 34.3122 9.11013 34.785C9.11013 35.7629 9.90517 36.5558 10.8858 36.5558L16.5088 36.5558C17.4894 36.5558 18.2844 35.7629 18.2844 34.785C18.2869 33.8045 17.4919 33.0116 16.5113 33.0116Z" fill="white"/>
<path d="M93.9214 14.4447C93.8036 14.5698 93.7584 14.7223 93.6907 14.8624C91.7796 18.8343 89.871 22.8063 87.9599 26.7757C87.8671 26.9683 87.7743 27.1659 87.6489 27.336C86.9166 28.339 85.4218 28.1239 84.9428 27.1159C84.7196 26.6481 84.7346 26.1754 84.9453 25.7102C85.1334 25.295 85.334 24.8848 85.5322 24.4746C87.7969 19.7573 90.0641 15.0375 92.3289 10.3202C92.4267 10.1151 92.532 9.91251 92.6649 9.72492C93.2468 8.90702 94.6362 8.82448 95.2532 9.81496C95.336 9.94753 95.4087 10.0876 95.4764 10.2277C97.9142 15.3051 100.352 20.3851 102.787 25.4651C102.88 25.6577 102.953 25.8578 103.016 26.0629C103.274 26.9383 102.597 27.9213 101.636 27.9838C100.901 28.0313 100.349 27.7137 100.013 27.0283C99.5369 26.0554 99.0729 25.0749 98.6014 24.0994C97.1116 21.0004 95.6244 17.9039 94.1346 14.8049C94.0744 14.6823 94.0393 14.5423 93.9214 14.4447Z" fill="white"/>
<path d="M53.81 22.4705C53.9204 22.4305 53.9329 22.3229 53.973 22.2354C54.6803 20.6921 55.3851 19.1464 56.0898 17.6006C57.2159 15.1344 58.3395 12.6657 59.4656 10.1995C59.5007 10.122 59.5383 10.0445 59.5785 9.96942C59.8794 9.39664 60.3509 9.114 61.003 9.1165C61.7404 9.119 62.3197 9.55171 62.5304 10.2621C62.6407 10.6372 62.6006 10.9974 62.4476 11.3476C62.2645 11.7653 62.0739 12.1805 61.8833 12.5957C59.7565 17.273 57.6297 21.9477 55.5004 26.625C55.4177 26.8076 55.3374 26.9902 55.2396 27.1628C54.9211 27.718 54.4446 27.9982 53.7925 27.9882C53.1554 27.9782 52.709 27.6705 52.4156 27.1253C52.2952 26.9001 52.1924 26.6625 52.087 26.4274C50.2838 22.4655 48.4805 18.5036 46.6798 14.5416C46.2358 13.5687 45.7944 12.5932 45.3505 11.6177C45.2251 11.3451 45.1122 11.0674 45.0997 10.7623C45.0671 10.0795 45.4257 9.49418 46.0477 9.22405C46.6446 8.96393 47.3644 9.114 47.8259 9.59423C47.9864 9.76181 48.0993 9.95941 48.1946 10.1695C48.5733 10.9999 48.952 11.8303 49.3307 12.6632C50.5346 15.3145 51.7359 17.9658 52.9397 20.6171C53.1805 21.1499 53.4238 21.6826 53.6671 22.2154C53.6997 22.3029 53.7298 22.4005 53.81 22.4705Z" fill="white"/>
<path d="M72.1801 15.4324C72.298 15.4274 72.3707 15.3549 72.4485 15.2999C73.1331 14.8246 73.8981 14.5595 74.7182 14.4595C75.5007 14.3644 76.2857 14.3244 77.0732 14.4295C79.1549 14.7071 80.5945 15.8276 81.4171 17.7411C81.6604 18.3088 81.7758 18.9116 81.7833 19.5319C81.8084 21.6155 81.8109 23.699 81.7883 25.7825C81.7858 26.0401 81.7958 26.2977 81.7783 26.5529C81.7256 27.3032 81.1789 27.876 80.4239 27.9936C79.7066 28.1036 79.0094 27.7059 78.736 27.0256C78.6382 26.7855 78.6056 26.5303 78.6056 26.2727C78.6081 25.745 78.6056 25.2172 78.6056 24.6894C78.6031 23.0486 78.6006 21.4078 78.6031 19.7646C78.6031 19.2568 78.5103 18.7691 78.2846 18.3163C77.7328 17.2133 76.8174 16.603 75.6035 16.5205C74.1213 16.4204 72.7118 17.4234 72.3532 18.9091C72.2654 19.2718 72.2579 19.6445 72.2553 20.0172C72.2478 20.7875 72.2453 21.5579 72.2453 22.3283C72.2453 23.6264 72.2453 24.9271 72.2478 26.2252C72.2478 26.4678 72.2378 26.7079 72.155 26.943C71.9017 27.6734 71.2195 28.0936 70.4395 27.991C69.6846 27.8935 69.1103 27.2782 69.0727 26.5178C69.0626 26.3327 69.0677 26.1477 69.0677 25.9601C69.0677 22.721 69.0677 19.4794 69.0677 16.2403C69.0677 16.0277 69.0652 15.8151 69.1203 15.6025C69.2959 14.9397 69.7248 14.5495 70.3919 14.4245C71.0515 14.2994 71.5656 14.5545 71.9619 15.0748C72.0447 15.1848 72.1074 15.3149 72.1801 15.4324Z" fill="white"/>
<path d="M63.7559 22.033C63.7559 20.6198 63.7559 19.2066 63.7559 17.7959C63.7559 17.6533 63.7609 17.5108 63.781 17.3707C63.8362 16.9905 63.9917 16.6579 64.2901 16.4102C64.4607 16.2677 64.5861 16.0976 64.6663 15.8975C64.9648 15.1471 64.9347 14.4218 64.4908 13.7314C64.3353 13.4888 64.1221 13.2962 63.9315 13.0836C63.2794 12.3608 63.2518 11.3228 63.8562 10.5724C64.3679 9.93709 65.2507 9.69698 66.0282 9.98211C66.7906 10.2623 67.2922 10.9926 67.2822 11.8005C67.2747 12.3258 67.0891 12.7735 66.7154 13.1437C66.6451 13.2137 66.5674 13.2762 66.4972 13.3488C65.8501 14.0216 65.7147 14.8145 65.9579 15.6874C66.0357 15.965 66.1787 16.2076 66.4069 16.4027C66.763 16.7079 66.9361 17.1031 66.9436 17.5708C66.9486 17.956 66.9536 18.3412 66.9536 18.7264C66.9536 21.1375 66.9561 23.5487 66.9536 25.9599C66.9536 26.1875 66.9461 26.4176 66.916 26.6427C66.8182 27.3806 66.2614 27.9909 65.356 28.0134C64.5685 28.0334 63.8989 27.4481 63.781 26.6552C63.7559 26.4876 63.7584 26.3151 63.7559 26.1425C63.7559 24.7743 63.7559 23.4036 63.7559 22.033Z" fill="white"/>
<path d="M104.524 22.0235C104.524 20.6679 104.524 19.3122 104.524 17.9565C104.524 17.829 104.524 17.6989 104.526 17.5714C104.534 17.1236 104.682 16.7309 105.015 16.4233C105.374 16.0931 105.519 15.6754 105.562 15.2077C105.63 14.4799 105.401 13.8595 104.89 13.3393C104.789 13.2367 104.687 13.1392 104.594 13.0291C103.696 11.9561 104.207 10.2953 105.564 9.94014C106.432 9.71253 107.21 10.0477 107.674 10.723C108.135 11.3984 108.105 12.3213 107.603 12.9641C107.508 13.0867 107.393 13.1967 107.282 13.3068C106.66 13.9421 106.467 14.695 106.678 15.5529C106.756 15.8755 106.901 16.1632 107.164 16.3883C107.533 16.7034 107.704 17.1161 107.706 17.5989C107.706 17.6839 107.706 17.7689 107.706 17.8565C107.706 20.6103 107.706 23.3642 107.706 26.118C107.706 26.3606 107.704 26.6007 107.636 26.8384C107.41 27.6212 106.738 28.0715 105.905 27.9839C105.148 27.9039 104.546 27.2586 104.534 26.4757C104.518 25.6203 104.526 24.7649 104.526 23.9069C104.524 23.2791 104.524 22.6513 104.524 22.0235Z" fill="white"/>
</g>
<defs>
<clipPath id="clip0_692_19210">
<rect width="108" height="36" fill="white" transform="translate(0 0.554688)"/>
</clipPath>
</defs>
</svg>
