<svg width="169" height="56" viewBox="0 0 169 56" fill="none" xmlns="http://www.w3.org/2000/svg">
<g clip-path="url(#clip0_692_22000)">
<path d="M15.3451 15.0418C15.8121 15.3997 16.4008 15.6098 17.0366 15.6098L18.4102 15.6098C18.7987 16.2868 19.0224 17.0689 19.0224 17.9054C19.0224 18.7419 18.7987 19.524 18.4102 20.1971L8.97942 20.1971C8.35149 20.1971 7.77066 20.4033 7.30363 20.7535L7.30363 20.7496C6.86016 21.0725 6.31464 21.2631 5.72203 21.2631C5.15689 21.2631 4.631 21.0881 4.19929 20.7885L4.19537 20.7885C3.76367 20.485 3.23385 20.306 2.66086 20.306C1.19307 20.3099 1.20267e-07 21.4927 1.28435e-07 22.9517C1.32769e-07 23.726 0.333589 24.4186 0.867331 24.901C1.62085 25.7181 2.08395 26.8036 2.08395 28.002C2.08395 29.1926 1.62477 30.2781 0.87518 31.0913C0.337514 31.5737 1.80619e-07 32.2741 1.84953e-07 33.0483C1.9312e-07 34.5074 1.19307 35.6863 2.66086 35.6863C4.13258 35.6863 5.32172 34.5035 5.32172 33.0483C5.32172 32.3052 5.01168 31.636 4.51718 31.1574L4.52111 31.1574C3.73227 30.3326 3.24955 29.2237 3.24955 27.9981C3.24955 26.8542 3.6734 25.8076 4.3759 25.0022C4.77228 24.7726 5.23146 24.6403 5.72203 24.6403C6.30679 24.6403 6.84838 24.8271 7.28793 25.1461L7.30363 25.1461C7.77066 25.4963 8.35149 25.7064 8.97942 25.7064L12.2721 25.7064C12.6607 26.3834 12.8844 27.1694 12.8844 28.0059C12.8844 28.8385 12.6646 29.6205 12.2761 30.2975L8.93233 30.2975C7.39782 30.2975 6.15373 31.5309 6.15373 33.0522C6.15373 34.5735 7.39782 35.8069 8.93233 35.8069L24.7405 35.8069C25.1369 36.4839 25.3606 37.2659 25.3606 38.1024C25.3606 39.3241 24.8779 40.4369 24.089 41.2618L24.093 41.2618C23.5945 41.7403 23.2884 42.4095 23.2884 43.1527C23.2884 44.6117 24.4815 45.7906 25.9493 45.7906C27.421 45.7906 28.6101 44.6078 28.6101 43.1527C28.6101 42.3784 28.2726 41.682 27.7389 41.1995C26.9854 40.3824 26.5262 39.2969 26.5262 38.1063C26.5262 37.0052 26.9187 35.9975 27.5701 35.2038C28.2059 34.698 28.6101 33.9237 28.6101 33.0561C28.6101 31.5348 27.3661 30.3014 25.8315 30.3014L14.8741 30.3014C14.4856 29.6283 14.2658 28.8463 14.2658 28.0098C14.2658 27.1732 14.4895 26.3873 14.8781 25.7103L19.6307 25.7103C20.2665 25.7103 20.8552 25.4963 21.3261 25.1423C21.7657 24.8232 22.3034 24.6481 22.892 24.6481C23.4611 24.6481 23.987 24.8271 24.4187 25.1267L24.4187 25.115C24.8504 25.4185 25.3802 25.5975 25.9532 25.5975C27.4249 25.5975 28.6141 24.4147 28.6141 22.9595C28.6141 21.5005 27.421 20.3216 25.9532 20.3216C25.3802 20.3216 24.8543 20.5006 24.4187 20.804L24.4108 20.804C23.9791 21.1036 23.4572 21.2787 22.8881 21.2787C22.3701 21.2787 21.8873 21.1309 21.4792 20.8818C20.8042 20.0803 20.3999 19.0454 20.3999 17.9171C20.3999 17.0806 20.6236 16.2985 21.0122 15.6215L25.8355 15.6215C27.37 15.6215 28.6141 14.3881 28.6141 12.8668C28.6141 12.1276 28.3276 11.4662 27.8527 10.972C27.0796 10.1472 26.6047 9.03831 26.6047 7.81661C26.6047 6.59101 27.0756 5.48214 27.8566 4.6534C28.3276 4.15927 28.6141 3.49395 28.6141 2.76248C28.6141 1.24119 27.37 0.00781235 25.8355 0.00781236L21.436 0.00781238C19.9015 0.00781239 18.6574 1.24119 18.6574 2.76248C18.6574 4.28378 19.9015 5.51716 21.436 5.51716L24.6149 5.51716C25.0035 6.19415 25.2272 6.9762 25.2272 7.81272C25.2272 8.64924 25.0035 9.43128 24.6149 10.1044L17.0366 10.1044C16.4008 10.1044 15.816 10.3184 15.3451 10.6724C14.9016 10.9954 14.3679 11.1744 13.7792 11.1744C13.214 11.1744 12.6881 10.9993 12.2564 10.6997L12.2486 10.6997C11.813 10.3962 11.2871 10.2172 10.7141 10.2172C9.24237 10.2172 8.05323 11.4 8.05323 12.8552C8.05323 14.3142 9.2463 15.4931 10.7141 15.4931C11.2871 15.4931 11.813 15.3141 12.2486 15.0107L12.2486 15.0223C12.6803 14.7227 13.2062 14.5438 13.7753 14.5438C14.3639 14.5438 14.9055 14.7227 15.3451 15.0418ZM12.7117 14.5982C12.7156 14.5982 12.7156 14.5982 12.7117 14.5982V14.5982Z" fill="white"/>
<path d="M61.9069 24.9075C62.4445 24.4251 62.786 23.7247 62.786 22.9505C62.786 21.4914 61.5929 20.3125 60.1251 20.3125C58.6534 20.3125 57.4643 21.4953 57.4643 22.9505C57.4643 23.6936 57.7743 24.3628 58.2688 24.8414L58.2649 24.8414C59.0537 25.6662 59.5364 26.7751 59.5364 28.0007C59.5364 29.1446 59.1126 30.1912 58.4101 30.9966C58.0137 31.2261 57.5545 31.3584 57.0639 31.3584C56.5538 31.3584 56.0828 31.2184 55.6786 30.9732C55.1919 30.553 54.5522 30.2962 53.8536 30.2962L38.0415 30.2962C37.6452 29.6192 37.4215 28.8372 37.4215 28.0007C37.4215 26.779 37.9042 25.6662 38.693 24.8414L38.6891 24.8414C39.1875 24.3628 39.4936 23.6936 39.4936 22.9505C39.4936 21.4914 38.3006 20.3125 36.8328 20.3125C35.3611 20.3125 34.1719 21.4953 34.1719 22.9505C34.1719 23.7247 34.5094 24.4212 35.0432 24.9036C35.7967 25.7207 36.2559 26.8062 36.2559 27.9968C36.2559 29.0979 35.8634 30.1056 35.2119 30.8993C34.5761 31.4051 34.1719 32.1794 34.1719 33.047C34.1719 34.5683 35.416 35.8017 36.9505 35.8017L42.7079 35.8017C43.0964 36.4787 43.3201 37.2646 43.3201 38.1012C43.3201 38.9493 43.0885 39.747 42.6882 40.4278C42.2369 40.5018 41.8248 40.6846 41.4716 40.9492L41.4716 40.9453C41.0281 41.2682 40.4826 41.4589 39.89 41.4589C39.3249 41.4589 38.799 41.2838 38.3673 40.9842L38.3634 40.9842C37.9317 40.6807 37.4018 40.5018 36.8288 40.5018C35.3571 40.5018 34.168 41.6846 34.168 43.1397C34.168 43.914 34.5016 44.6065 35.0353 45.089C35.7888 45.9061 36.2519 46.9916 36.2519 48.1899C36.2519 49.2871 35.8634 50.2949 35.2119 51.0847C34.5722 51.5905 34.1641 52.3647 34.1641 53.2402C34.1641 54.7615 35.4082 55.9949 36.9427 55.9949L45.7416 55.9949C47.2761 55.9949 48.5202 54.7615 48.5202 53.2402C48.5202 51.7189 47.2761 50.4855 45.7416 50.4855L38.0415 50.4855C37.6491 49.8124 37.4215 49.0265 37.4215 48.1899C37.4215 47.0461 37.8453 45.9994 38.5478 45.194C38.9442 44.9645 39.4034 44.8322 39.8939 44.8322C40.4787 44.8322 41.0203 45.019 41.4598 45.338L41.4755 45.338C41.9426 45.6882 42.5234 45.8983 43.1513 45.8983L53.8026 45.8983C55.3371 45.8983 56.5812 44.6649 56.5812 43.1436C56.5812 41.6223 55.3371 40.3889 53.8026 40.3889L45.3098 40.3889C44.9213 39.7158 44.7015 38.9338 44.7015 38.0973C44.7015 37.2607 44.9252 36.4748 45.3138 35.7978L53.8536 35.7978C54.5601 35.7978 55.2076 35.5332 55.6982 35.1014C56.0985 34.864 56.5655 34.7278 57.0639 34.7278C57.6291 34.7278 58.155 34.9029 58.5867 35.2025L58.5906 35.2025C59.0223 35.506 59.5521 35.685 60.1251 35.685C61.5968 35.685 62.786 34.5022 62.786 33.047C62.786 32.2728 62.4524 31.5802 61.9186 31.0977C61.1651 30.2807 60.702 29.1952 60.702 27.9968C60.6981 26.8062 61.1573 25.7246 61.9069 24.9075Z" fill="white"/>
<path d="M52.0624 14.7457C52.8473 15.5705 53.33 16.6794 53.33 17.905C53.33 18.7415 53.1024 19.5236 52.7099 20.2006L43.1536 20.2006C41.6191 20.2006 40.375 21.4339 40.375 22.9552C40.375 24.4765 41.6191 25.7099 43.1536 25.7099L53.8049 25.7099C55.3394 25.7099 56.5835 24.4765 56.5835 22.9552C56.5835 22.0837 56.1753 21.3094 55.5396 20.8036C54.8881 20.0138 54.4995 19.0061 54.4995 17.9089C54.4995 16.7144 54.9587 15.6328 55.7122 14.8157C56.2499 14.3333 56.5835 13.6368 56.5835 12.8626C56.5835 11.4035 55.3904 10.2246 53.9226 10.2246C52.4509 10.2246 51.2618 11.4074 51.2618 12.8626C51.2578 13.594 51.564 14.2671 52.0624 14.7457Z" fill="white"/>
<path d="M36.9505 15.6098L45.7494 15.6098C47.2839 15.6098 48.528 14.3764 48.528 12.8551C48.528 11.3338 47.2839 10.1005 45.7494 10.1005L42.7314 10.1005C42.3428 9.42347 42.1191 8.64142 42.1191 7.8088C42.1191 6.5832 42.5901 5.47433 43.3711 4.64559C43.842 4.15146 44.1285 3.48614 44.1285 2.75467C44.1285 1.23338 42.8844 -4.87708e-08 41.3499 -4.0181e-08L36.9505 -1.55539e-08C35.416 -6.96412e-09 34.1719 1.23338 34.1719 2.75467C34.1719 4.27597 35.416 5.50935 36.9505 5.50935L40.1294 5.50935C40.5179 6.18634 40.7416 6.96839 40.7416 7.80491C40.7416 8.64142 40.5179 9.42347 40.1294 10.0966L36.9505 10.0966C35.416 10.0966 34.1719 11.33 34.1719 12.8512C34.1719 14.3764 35.416 15.6098 36.9505 15.6098Z" fill="white"/>
<path d="M25.838 50.4892L18.2596 50.4892C17.8711 49.8122 17.6474 49.0301 17.6474 48.1975C17.6474 47.361 17.8711 46.5789 18.2596 45.9019L19.594 45.9019C21.1246 45.9019 22.3608 44.6725 22.3608 43.1589L22.3608 43.1395C22.3608 41.6221 21.1206 40.3965 19.594 40.3965L8.92307 40.3965C7.39249 40.3965 6.15625 41.626 6.15625 43.1395L6.15625 43.1589C6.15625 44.6763 7.39642 45.9019 8.92307 45.9019L15.6537 45.9019C16.0423 46.5789 16.266 47.361 16.266 48.1975C16.266 49.4153 15.7911 50.5242 15.0179 51.3529C14.547 51.8471 14.2566 52.5124 14.2566 53.2477C14.2566 54.769 15.5007 56.0024 17.0352 56.0024L25.8341 56.0024C27.3686 56.0024 28.6127 54.769 28.6127 53.2477C28.6166 51.7225 27.3725 50.4892 25.838 50.4892Z" fill="white"/>
<path d="M146.975 21.608C146.79 21.8026 146.72 22.0399 146.614 22.2578C143.623 28.4363 140.636 34.6149 137.646 40.7896C137.501 41.0891 137.355 41.3965 137.159 41.6611C136.013 43.2213 133.674 42.8867 132.925 41.3187C132.575 40.5911 132.599 39.8558 132.929 39.1321C133.223 38.4862 133.537 37.8481 133.847 37.21C137.391 29.872 140.939 22.5301 144.482 15.1921C144.636 14.8731 144.8 14.5579 145.008 14.2661C145.919 12.9938 148.093 12.8654 149.059 14.4062C149.188 14.6124 149.302 14.8303 149.408 15.0482C153.223 22.9464 157.037 30.8486 160.848 38.7508C160.993 39.0504 161.107 39.3616 161.205 39.6807C161.609 41.0425 160.55 42.5715 159.047 42.6688C157.897 42.7427 157.033 42.2486 156.507 41.1825C155.762 39.669 155.036 38.1438 154.298 36.6264C151.967 31.8057 149.639 26.989 147.308 22.1683C147.214 21.9776 147.159 21.7598 146.975 21.608Z" fill="white"/>
<path d="M84.2075 34.0932C84.3801 34.031 84.3998 33.8637 84.4626 33.7275C85.5693 31.3269 86.6721 28.9224 87.7749 26.5179C89.537 22.6815 91.2952 18.8413 93.0574 15.005C93.1123 14.8844 93.1712 14.7638 93.234 14.6471C93.7049 13.7561 94.4428 13.3164 95.4631 13.3203C96.617 13.3242 97.5235 13.9973 97.8532 15.1023C98.0259 15.6859 97.9631 16.2462 97.7237 16.7909C97.4372 17.4407 97.1389 18.0865 96.8407 18.7324C93.5126 26.0082 90.1846 33.28 86.8526 40.5558C86.7231 40.8398 86.5975 41.1238 86.4445 41.3923C85.9461 42.2561 85.2004 42.6918 84.18 42.6763C83.1832 42.6607 82.4846 42.1821 82.0254 41.3339C81.837 40.9838 81.6761 40.6142 81.5113 40.2484C78.6895 34.0854 75.8677 27.9224 73.0499 21.7594C72.3553 20.2459 71.6645 18.7285 70.9699 17.2111C70.7737 16.787 70.597 16.3551 70.5774 15.8805C70.5264 14.8183 71.0876 13.9078 72.0609 13.4876C72.995 13.083 74.1213 13.3164 74.8434 14.0635C75.0946 14.3242 75.2712 14.6315 75.4203 14.9583C76.013 16.2501 76.6056 17.5418 77.1982 18.8375C79.082 22.9617 80.9618 27.0859 82.8456 31.2101C83.2224 32.0389 83.6031 32.8676 83.9838 33.6963C84.0348 33.8325 84.0819 33.9843 84.2075 34.0932Z" fill="white"/>
<path d="M112.954 23.1434C113.139 23.1356 113.253 23.0228 113.374 22.9372C114.446 22.1979 115.643 21.7855 116.926 21.6299C118.151 21.482 119.379 21.4198 120.611 21.5832C123.869 22.0151 126.121 23.7581 127.409 26.7346C127.789 27.6178 127.97 28.5555 127.982 29.5204C128.021 32.7614 128.025 36.0024 127.989 39.2434C127.985 39.6442 128.001 40.0449 127.974 40.4418C127.891 41.609 127.036 42.5 125.854 42.6829C124.732 42.8541 123.641 42.2355 123.213 41.1772C123.06 40.8036 123.009 40.4068 123.009 40.006C123.013 39.1851 123.009 38.3641 123.009 37.5432C123.005 34.9908 123.001 32.4385 123.005 29.8822C123.005 29.0924 122.86 28.3337 122.507 27.6295C121.643 25.9136 120.211 24.9643 118.311 24.8359C115.992 24.6803 113.786 26.2405 113.225 28.5516C113.088 29.1157 113.076 29.6955 113.072 30.2752C113.06 31.4736 113.056 32.6719 113.056 33.8703C113.056 35.8896 113.056 37.9128 113.06 39.9321C113.06 40.3095 113.045 40.683 112.915 41.0488C112.519 42.1849 111.451 42.8385 110.231 42.679C109.049 42.5273 108.151 41.5701 108.092 40.3873C108.076 40.0994 108.084 39.8115 108.084 39.5197C108.084 34.4811 108.084 29.4387 108.084 24.4001C108.084 24.0694 108.08 23.7387 108.166 23.408C108.441 22.3769 109.112 21.77 110.156 21.5754C111.188 21.3809 111.993 21.7777 112.613 22.587C112.742 22.7582 112.841 22.9605 112.954 23.1434Z" fill="white"/>
<path d="M99.7688 33.4111C99.7688 31.2128 99.7688 29.0145 99.7688 26.8201C99.7688 26.5983 99.7767 26.3766 99.808 26.1587C99.8944 25.5673 100.138 25.0498 100.605 24.6646C100.872 24.4429 101.068 24.1783 101.193 23.867C101.66 22.6998 101.613 21.5715 100.919 20.4976C100.675 20.1202 100.342 19.8206 100.044 19.4899C99.0231 18.3655 98.98 16.7508 99.9258 15.5835C100.726 14.5953 102.108 14.2218 103.324 14.6653C104.518 15.1011 105.302 16.2372 105.287 17.4939C105.275 18.311 104.985 19.0074 104.4 19.5833C104.29 19.6922 104.168 19.7895 104.058 19.9023C103.046 20.9489 102.834 22.1823 103.215 23.5402C103.336 23.9721 103.56 24.3495 103.917 24.653C104.474 25.1276 104.745 25.7424 104.757 26.4699C104.765 27.0691 104.773 27.6683 104.773 28.2675C104.773 32.0182 104.777 35.7689 104.773 39.5196C104.773 39.8737 104.761 40.2316 104.714 40.5818C104.561 41.7296 103.689 42.6789 102.273 42.714C101.04 42.7451 99.9925 41.8346 99.8081 40.6013C99.7688 40.3406 99.7727 40.0721 99.7688 39.8037C99.7688 37.6754 99.7688 35.5433 99.7688 33.4111Z" fill="white"/>
<path d="M163.566 33.397C163.566 31.2882 163.566 29.1794 163.566 27.0706C163.566 26.8722 163.566 26.6699 163.57 26.4715C163.581 25.775 163.813 25.1642 164.335 24.6856C164.896 24.172 165.124 23.5222 165.19 22.7947C165.296 21.6625 164.939 20.6975 164.139 19.8883C163.982 19.7287 163.821 19.577 163.676 19.4058C162.271 17.7367 163.071 15.1532 165.194 14.6007C166.552 14.2466 167.769 14.768 168.495 15.8185C169.217 16.869 169.17 18.3047 168.385 19.3046C168.236 19.4953 168.055 19.6665 167.883 19.8377C166.909 20.8259 166.607 21.9971 166.937 23.3316C167.059 23.8335 167.286 24.2809 167.698 24.6311C168.275 25.1214 168.542 25.7633 168.546 26.5143C168.546 26.6465 168.546 26.7788 168.546 26.915C168.546 31.1988 168.546 35.4825 168.546 39.7663C168.546 40.1437 168.542 40.5172 168.436 40.8868C168.083 42.1046 167.031 42.805 165.728 42.6688C164.543 42.5443 163.601 41.5405 163.581 40.3226C163.558 38.992 163.57 37.6613 163.57 36.3268C163.566 35.3502 163.566 34.3736 163.566 33.397Z" fill="white"/>
</g>
<defs>
<clipPath id="clip0_692_22000">
<rect width="169" height="56" fill="white"/>
</clipPath>
</defs>
</svg>
