<svg width="514" height="173" viewBox="0 0 514 173" fill="none" xmlns="http://www.w3.org/2000/svg">
<g clip-path="url(#clip0_692_21621)">
<path d="M46.6708 46.6387C48.0913 47.7381 49.8817 48.3834 51.8154 48.3834H55.9931C57.1748 50.4628 57.8551 52.8648 57.8551 55.4341C57.8551 58.0034 57.1748 60.4054 55.9931 62.4728H27.3102C25.4004 62.4728 23.6338 63.1061 22.2134 64.1816V64.1697C20.8646 65.1616 19.2055 65.7471 17.4031 65.7471C15.6843 65.7471 14.0848 65.2094 12.7718 64.2892H12.7599C11.4469 63.3571 9.83549 62.8074 8.0928 62.8074C3.62863 62.8193 0 66.4522 0 70.9335C0 73.3116 1.01458 75.4388 2.63792 76.9206C4.92968 79.4302 6.33816 82.7643 6.33816 86.445C6.33816 90.1018 4.94162 93.4359 2.66179 95.9335C1.02652 97.4153 0 99.5664 0 101.944C0 106.426 3.62863 110.047 8.0928 110.047C12.5689 110.047 16.1856 106.414 16.1856 101.944C16.1856 99.662 15.2426 97.6065 13.7387 96.1366H13.7506C11.3514 93.6032 9.88324 90.1973 9.88324 86.433C9.88324 82.9196 11.1724 79.705 13.3089 77.2313C14.5145 76.5263 15.9111 76.1199 17.4031 76.1199C19.1816 76.1199 20.8288 76.6936 22.1657 77.6735H22.2134C23.6338 78.749 25.4004 79.3943 27.3102 79.3943H37.3247C38.5064 81.4737 39.1868 83.8876 39.1868 86.4569C39.1868 89.0143 38.5184 91.4163 37.3367 93.4956H27.167C22.4999 93.4956 18.7161 97.2839 18.7161 101.956C18.7161 106.629 22.4999 110.417 27.167 110.417H75.2463C76.4519 112.497 77.1322 114.899 77.1322 117.468C77.1322 121.22 75.6641 124.638 73.2649 127.171H73.2768C71.7609 128.641 70.8299 130.697 70.8299 132.979C70.8299 137.461 74.4585 141.082 78.9227 141.082C83.3988 141.082 87.0155 137.449 87.0155 132.979C87.0155 130.601 85.989 128.462 84.3656 126.98C82.0739 124.471 80.6773 121.137 80.6773 117.48C80.6773 114.098 81.8709 111.003 83.8524 108.565C85.786 107.011 87.0155 104.633 87.0155 101.968C87.0155 97.2958 83.2317 93.5076 78.5646 93.5076H45.2385C44.0568 91.4402 43.3884 89.0382 43.3884 86.4689C43.3884 83.8996 44.0687 81.4856 45.2504 79.4063H59.7053C61.6389 79.4063 63.4294 78.749 64.8617 77.6615C66.1986 76.6816 67.8339 76.1439 69.6243 76.1439C71.3551 76.1439 72.9545 76.6936 74.2675 77.6137V77.5779C75.5805 78.51 77.1919 79.0597 78.9346 79.0597C83.4107 79.0597 87.0274 75.4268 87.0274 70.9574C87.0274 66.4761 83.3988 62.8552 78.9346 62.8552C77.1919 62.8552 75.5925 63.4049 74.2675 64.337H74.2437C72.9307 65.2572 71.3431 65.7949 69.6124 65.7949C68.0368 65.7949 66.5686 65.3408 65.3272 64.576C63.2742 62.1143 62.0448 58.9355 62.0448 55.4699C62.0448 52.9006 62.7251 50.4986 63.9068 48.4193H78.5765C83.2436 48.4193 87.0274 44.631 87.0274 39.9585C87.0274 37.6879 86.1561 35.6564 84.7118 34.1387C82.3603 31.6053 80.916 28.1994 80.916 24.4471C80.916 20.6827 82.3484 17.2769 84.7237 14.7315C86.1561 13.2138 87.0274 11.1703 87.0274 8.92367C87.0274 4.25112 83.2436 0.462891 78.5765 0.462891H65.196C60.5289 0.462891 56.7451 4.25112 56.7451 8.92367C56.7451 13.5962 60.5289 17.3845 65.196 17.3845H74.8643C76.046 19.4638 76.7264 21.8658 76.7264 24.4351C76.7264 27.0044 76.046 29.4064 74.8643 31.4738H51.8154C49.8817 31.4738 48.1032 32.1311 46.6708 33.2185C45.322 34.2104 43.6987 34.7601 41.9083 34.7601C40.1895 34.7601 38.59 34.2224 37.277 33.3022H37.2531C35.9282 32.3701 34.3287 31.8204 32.586 31.8204C28.1099 31.8204 24.4932 35.4532 24.4932 39.9226C24.4932 44.404 28.1219 48.0249 32.586 48.0249C34.3287 48.0249 35.9282 47.4752 37.2531 46.5431V46.5789C38.5661 45.6588 40.1656 45.109 41.8963 45.109C43.6868 45.109 45.334 45.6588 46.6708 46.6387ZM38.6616 45.2763C38.6735 45.2763 38.6735 45.2763 38.6616 45.2763V45.2763Z" fill="white"/>
<path d="M188.284 76.9453C189.919 75.4634 190.958 73.3124 190.958 70.9343C190.958 66.453 187.329 62.832 182.865 62.832C178.389 62.832 174.772 66.4649 174.772 70.9343C174.772 73.2168 175.715 75.2722 177.219 76.7421H177.207C179.606 79.2756 181.074 82.6814 181.074 86.4457C181.074 89.9591 179.785 93.1737 177.649 95.6474C176.443 96.3525 175.046 96.7588 173.554 96.7588C172.003 96.7588 170.57 96.3286 169.341 95.5757C167.861 94.2851 165.915 93.4964 163.791 93.4964H115.699C114.494 91.417 113.813 89.015 113.813 86.4457C113.813 82.6934 115.282 79.2756 117.681 76.7421H117.669C119.185 75.2722 120.116 73.2168 120.116 70.9343C120.116 66.453 116.487 62.832 112.023 62.832C107.547 62.832 103.93 66.4649 103.93 70.9343C103.93 73.3124 104.957 75.4515 106.58 76.9333C108.872 79.4429 110.268 82.777 110.268 86.4338C110.268 89.8157 109.075 92.9108 107.093 95.3487C105.16 96.9022 103.93 99.2803 103.93 101.945C103.93 106.618 107.714 110.406 112.381 110.406H129.892C131.073 112.485 131.754 114.899 131.754 117.469C131.754 120.074 131.049 122.524 129.832 124.615C128.459 124.842 127.206 125.404 126.132 126.216V126.204C124.783 127.196 123.124 127.782 121.321 127.782C119.602 127.782 118.003 127.244 116.69 126.324H116.678C115.365 125.392 113.754 124.842 112.011 124.842C107.535 124.842 103.918 128.475 103.918 132.944C103.918 135.322 104.933 137.449 106.556 138.931C108.848 141.441 110.256 144.775 110.256 148.456C110.256 151.826 109.075 154.921 107.093 157.347C105.148 158.9 103.906 161.278 103.906 163.967C103.906 168.64 107.69 172.428 112.357 172.428H139.118C143.785 172.428 147.569 168.64 147.569 163.967C147.569 159.294 143.785 155.506 139.118 155.506H115.699C114.506 153.439 113.813 151.025 113.813 148.456C113.813 144.942 115.102 141.728 117.239 139.254C118.445 138.549 119.841 138.143 121.333 138.143C123.112 138.143 124.759 138.716 126.096 139.696H126.144C127.564 140.772 129.331 141.417 131.24 141.417H163.635C168.302 141.417 172.086 137.629 172.086 132.956C172.086 128.284 168.302 124.495 163.635 124.495H137.805C136.624 122.428 135.955 120.026 135.955 117.457C135.955 114.887 136.636 112.473 137.817 110.394H163.791C165.939 110.394 167.909 109.581 169.401 108.255C170.618 107.526 172.039 107.108 173.554 107.108C175.273 107.108 176.873 107.645 178.186 108.566H178.198C179.511 109.498 181.122 110.047 182.865 110.047C187.341 110.047 190.958 106.415 190.958 101.945C190.958 99.5671 189.943 97.44 188.32 95.9581C186.028 93.4486 184.619 90.1145 184.619 86.4338C184.607 82.777 186.004 79.4548 188.284 76.9453Z" fill="white"/>
<path d="M158.335 45.7319C160.723 48.2654 162.191 51.6712 162.191 55.4355C162.191 58.0048 161.498 60.4068 160.305 62.4862H131.24C126.573 62.4862 122.789 66.2744 122.789 70.9469C122.789 75.6195 126.573 79.4077 131.24 79.4077H163.635C168.302 79.4077 172.086 75.6195 172.086 70.9469C172.086 68.2701 170.845 65.892 168.911 64.3384C166.929 61.9125 165.748 58.8174 165.748 55.4475C165.748 51.7787 167.144 48.4566 169.436 45.947C171.071 44.4652 172.086 42.3261 172.086 39.948C172.086 35.4666 168.457 31.8457 163.993 31.8457C159.517 31.8457 155.9 35.4786 155.9 39.948C155.888 42.1946 156.819 44.262 158.335 45.7319Z" fill="white"/>
<path d="M112.381 48.3839H139.142C143.809 48.3839 147.593 44.5956 147.593 39.9231C147.593 35.2505 143.809 31.4623 139.142 31.4623H129.963C128.781 29.383 128.101 26.981 128.101 24.4236C128.101 20.6593 129.533 17.2535 131.908 14.7081C133.341 13.1904 134.212 11.1469 134.212 8.90023C134.212 4.22768 130.428 0.439453 125.761 0.439453H112.381C107.713 0.439453 103.93 4.22768 103.93 8.90023C103.93 13.5728 107.713 17.361 112.381 17.361H122.049C123.231 19.4404 123.911 21.8424 123.911 24.4117C123.911 26.981 123.231 29.383 122.049 31.4504H112.381C107.713 31.4504 103.93 35.2386 103.93 39.9111C103.93 44.5956 107.713 48.3839 112.381 48.3839Z" fill="white"/>
<path d="M78.5753 155.518H55.5263C54.3446 153.439 53.6643 151.037 53.6643 148.48C53.6643 145.91 54.3446 143.508 55.5263 141.429H59.5847C64.2398 141.429 67.9997 137.653 67.9997 133.004V132.944C67.9997 128.284 64.2279 124.52 59.5847 124.52H27.1299C22.4748 124.52 18.7148 128.296 18.7148 132.944V133.004C18.7148 137.665 22.4867 141.429 27.1299 141.429H47.6006C48.7823 143.508 49.4627 145.91 49.4627 148.48C49.4627 152.22 48.0184 155.626 45.667 158.171C44.2346 159.689 43.3513 161.733 43.3513 163.991C43.3513 168.664 47.1351 172.452 51.8022 172.452H78.5633C83.2304 172.452 87.0142 168.664 87.0142 163.991C87.0262 159.307 83.2424 155.518 78.5753 155.518Z" fill="white"/>
<path d="M447.001 66.8114C446.44 67.4089 446.225 68.1379 445.902 68.8071C436.807 87.7841 427.723 106.761 418.628 125.726C418.186 126.646 417.745 127.59 417.148 128.403C413.663 133.195 406.549 132.167 404.269 127.351C403.206 125.117 403.278 122.858 404.281 120.635C405.176 118.652 406.131 116.692 407.074 114.732C417.852 92.1937 428.643 69.6436 439.421 47.1054C439.887 46.1255 440.388 45.1575 441.021 44.2613C443.79 40.3535 450.402 39.9592 453.339 44.6915C453.733 45.3248 454.079 45.994 454.401 46.6633C466.003 70.9223 477.605 95.1932 489.195 119.464C489.637 120.384 489.983 121.34 490.282 122.32C491.511 126.503 488.288 131.199 483.717 131.498C480.219 131.725 477.593 130.207 475.994 126.933C473.726 122.284 471.518 117.6 469.274 112.939C462.184 98.133 455.105 83.3386 448.015 68.5322C447.729 67.9467 447.562 67.2774 447.001 66.8114Z" fill="white"/>
<path d="M256.105 105.16C256.63 104.969 256.69 104.455 256.881 104.037C260.247 96.6634 263.601 89.2781 266.955 81.8929C272.315 70.1099 277.662 58.315 283.021 46.5321C283.188 46.1616 283.368 45.7912 283.559 45.4327C284.991 42.696 287.235 41.3457 290.338 41.3576C293.848 41.3696 296.605 43.437 297.608 46.8308C298.133 48.6234 297.942 50.3442 297.214 52.0172C296.342 54.0129 295.435 55.9967 294.528 57.9804C284.406 80.3274 274.284 102.662 264.15 125.009C263.756 125.882 263.374 126.754 262.909 127.579C261.393 130.232 259.125 131.57 256.022 131.522C252.99 131.474 250.865 130.005 249.468 127.399C248.896 126.324 248.406 125.189 247.905 124.065C239.323 105.136 230.74 86.2069 222.17 67.2777C220.058 62.6291 217.957 57.9685 215.844 53.3079C215.247 52.0053 214.71 50.6788 214.65 49.2209C214.495 45.9585 216.202 43.1621 219.162 41.8715C222.003 40.6286 225.429 41.3457 227.625 43.6401C228.389 44.4408 228.926 45.3848 229.38 46.3887C231.182 50.3562 232.984 54.3236 234.787 58.3031C240.516 70.9703 246.234 83.6376 251.963 96.3049C253.109 98.8503 254.267 101.396 255.425 103.941C255.58 104.359 255.723 104.825 256.105 105.16Z" fill="white"/>
<path d="M343.526 71.5329C344.087 71.509 344.433 71.1625 344.803 70.8996C348.062 68.629 351.702 67.3623 355.605 66.8843C359.33 66.4302 363.066 66.239 366.814 66.7409C376.721 68.0674 383.572 73.4211 387.487 82.563C388.645 85.2757 389.194 88.1557 389.23 91.1194C389.349 101.074 389.361 111.029 389.254 120.983C389.242 122.214 389.29 123.445 389.206 124.664C388.955 128.249 386.353 130.985 382.76 131.547C379.347 132.073 376.028 130.173 374.727 126.922C374.262 125.775 374.107 124.556 374.107 123.325C374.119 120.804 374.107 118.282 374.107 115.761C374.095 107.921 374.083 100.082 374.095 92.2308C374.095 89.8049 373.653 87.4746 372.579 85.3116C369.953 80.0415 365.596 77.1256 359.819 76.7313C352.765 76.2533 346.056 81.0453 344.35 88.1438C343.932 89.8766 343.896 91.6572 343.884 93.4377C343.848 97.1184 343.836 100.799 343.836 104.48C343.836 110.682 343.836 116.896 343.848 123.098C343.848 124.257 343.8 125.405 343.407 126.528C342.201 130.017 338.954 132.025 335.242 131.535C331.649 131.069 328.916 128.129 328.737 124.496C328.689 123.612 328.713 122.728 328.713 121.832C328.713 106.356 328.713 90.8684 328.713 75.3929C328.713 74.3771 328.701 73.3613 328.964 72.3455C329.799 69.1787 331.84 67.3145 335.015 66.717C338.155 66.1195 340.602 67.3384 342.487 69.824C342.881 70.3499 343.18 70.9713 343.526 71.5329Z" fill="white"/>
<path d="M303.434 103.068C303.434 96.316 303.434 89.5641 303.434 82.8242C303.434 82.143 303.457 81.4619 303.553 80.7926C303.815 78.9762 304.556 77.3868 305.976 76.2037C306.788 75.5226 307.384 74.71 307.766 73.7539C309.187 70.1689 309.044 66.7033 306.931 63.405C306.191 62.2458 305.176 61.3257 304.269 60.3099C301.166 56.8563 301.034 51.8969 303.911 48.3118C306.346 45.2765 310.548 44.1293 314.248 45.4916C317.876 46.83 320.264 50.3195 320.216 54.1794C320.18 56.689 319.297 58.8281 317.518 60.5967C317.184 60.9313 316.814 61.2301 316.48 61.5766C313.4 64.7912 312.756 68.5795 313.914 72.7501C314.284 74.0766 314.964 75.2358 316.05 76.1679C317.745 77.6258 318.569 79.514 318.605 81.7487C318.628 83.589 318.652 85.4293 318.652 87.2697C318.652 98.7897 318.664 110.31 318.652 121.83C318.652 122.917 318.616 124.017 318.473 125.092C318.008 128.618 315.358 131.533 311.049 131.641C307.301 131.737 304.114 128.94 303.553 125.152C303.434 124.351 303.445 123.527 303.434 122.702C303.434 116.165 303.434 109.617 303.434 103.068Z" fill="white"/>
<path d="M497.456 103.02C497.456 96.5431 497.456 90.0661 497.456 83.589C497.456 82.9796 497.456 82.3581 497.468 81.7487C497.504 79.6096 498.208 77.7334 499.796 76.2635C501.502 74.6861 502.195 72.6904 502.398 70.4557C502.72 66.9782 501.634 64.0145 499.199 61.5289C498.721 61.0389 498.232 60.5728 497.79 60.047C493.517 54.9204 495.952 46.9854 502.41 45.2885C506.54 44.201 510.24 45.8023 512.448 49.0289C514.644 52.2555 514.501 56.6651 512.114 59.7363C511.66 60.3219 511.111 60.8477 510.586 61.3735C507.626 64.4089 506.707 68.0059 507.709 72.1048C508.079 73.6464 508.772 75.0207 510.025 76.0962C511.78 77.6019 512.591 79.5737 512.603 81.8801C512.603 82.2864 512.603 82.6928 512.603 83.111C512.603 96.2682 512.603 109.425 512.603 122.583C512.603 123.742 512.591 124.889 512.269 126.024C511.195 129.765 507.996 131.916 504.033 131.498C500.428 131.115 497.563 128.032 497.504 124.292C497.432 120.205 497.468 116.118 497.468 112.019C497.456 109.019 497.456 106.02 497.456 103.02Z" fill="white"/>
</g>
<defs>
<clipPath id="clip0_692_21621">
<rect width="514" height="172" fill="white" transform="translate(0 0.439453)"/>
</clipPath>
</defs>
</svg>
