<svg width="148" height="131" viewBox="0 0 148 131" fill="none" xmlns="http://www.w3.org/2000/svg">
<path d="M59.4582 25.9131C63.1594 24.3609 64.7115 19.9434 63.04 16.3615L57.1897 4.06396C55.5182 0.602726 51.4588 -0.95059 47.877 0.602726C37.7285 4.90091 29.0127 10.5124 22.0879 17.3179C13.6109 25.3161 7.88 34.5094 4.77576 44.6579C1.67152 54.927 0 68.8949 0 86.6846V123.339C0 127.279 3.22364 130.502 7.16364 130.502H54.0855C58.0255 130.502 61.2491 127.279 61.2491 123.339V76.4167C61.2491 72.4755 58.0255 69.2531 54.0855 69.2531H31.6394C31.8782 57.1931 34.7436 47.5234 39.997 40.2391C44.2952 34.3912 50.7424 29.6155 59.4582 25.9131Z" fill="url(#paint0_linear_692_21731)" fill-opacity="0.2"/>
<path d="M143.749 25.9142C147.45 24.3621 149.001 19.9445 147.331 16.3627L141.48 4.18571C139.809 0.723286 135.75 -0.828836 132.168 0.723286C122.139 5.02147 113.541 10.633 106.498 17.319C98.0199 25.4378 92.1708 34.6312 89.0653 44.7797C85.9611 54.8076 84.4102 68.7778 84.4102 86.6869V123.341C84.4102 127.281 87.6338 130.505 91.5738 130.505H138.496C142.436 130.505 145.659 127.281 145.659 123.341V76.4191C145.659 72.4779 142.436 69.2554 138.496 69.2554H115.93C116.169 57.1954 119.036 47.5257 124.288 40.2415C128.586 34.3924 135.033 29.6166 143.749 25.9142Z" fill="url(#paint1_linear_692_21731)" fill-opacity="0.2"/>
<defs>
<linearGradient id="paint0_linear_692_21731" x1="-12.2289" y1="65.2944" x2="88.4064" y2="65.2944" gradientUnits="userSpaceOnUse">
<stop stop-color="#0E8CFA"/>
<stop offset="0.7719" stop-color="#00AAFB"/>
</linearGradient>
<linearGradient id="paint1_linear_692_21731" x1="72.2042" y1="65.3561" x2="172.65" y2="65.3561" gradientUnits="userSpaceOnUse">
<stop stop-color="#0E8CFA"/>
<stop offset="0.7719" stop-color="#00AAFB"/>
</linearGradient>
</defs>
</svg>
