<svg width="48" height="48" viewBox="0 0 48 48" fill="none" xmlns="http://www.w3.org/2000/svg">
<path fill-rule="evenodd" clip-rule="evenodd" d="M5.49034 28.2967C5.94381 30.2022 6.69934 32.0222 7.72628 33.6901L6.16975 37.1946L10.3003 41.3253L13.8038 39.7693C15.472 40.7965 17.2926 41.552 19.1986 42.0055L20.5748 45.581H26.4162L27.7929 42.0047C29.6984 41.5512 31.5183 40.7957 33.1862 39.7687L36.6908 41.3253L40.8213 37.1948L39.2908 33.7486H39.0198C38.8471 33.7486 38.6763 33.7331 38.5091 33.7028L36.8823 33.9738C34.656 34.3447 32.234 34.709 30.0221 34.0805C29.6345 33.9704 29.2619 33.8329 28.9026 33.6697C27.3033 34.5658 25.4594 35.0773 23.4956 35.0773C17.3769 35.0773 12.4177 30.1181 12.4177 23.9995C12.4177 17.8807 17.3769 12.9216 23.4956 12.9216C25.4314 12.9216 27.2509 13.4186 28.8343 14.291C30.1404 13.2985 31.3413 12.1938 31.3413 10.4187V7.23297C30.2055 6.70066 29.0166 6.28488 27.7925 5.99359L26.4164 2.41797H20.5749L19.1985 5.99416C17.2928 6.44753 15.4726 7.20306 13.8048 8.23009L10.3005 6.67384L6.16984 10.8044L7.72638 14.309C6.69944 15.9769 5.94391 17.7969 5.49044 19.7024L1.91406 21.079V26.9204L5.49034 28.2967ZM26.6071 30.7901H22.1172V17.209H26.6071V30.7901ZM36.1173 17.9298C36.1173 19.8118 37.3994 19.9253 34.0602 21.843C33.7026 22.0485 33.5793 22.5049 33.7847 22.8625C33.9902 23.2201 34.4467 23.3433 34.8043 23.1379C34.9424 23.0586 35.1025 22.9625 35.2766 22.8502C35.397 23.4031 35.6758 23.8982 36.0625 24.2849C36.2556 24.478 36.4757 24.6441 36.7166 24.7772C36.3429 25.2651 36.1203 25.8764 36.1202 26.539C36.1203 27.363 36.4663 28.1392 37.0765 28.6914C36.4664 29.2423 36.1202 30.0209 36.1203 30.8435C36.1203 31.457 36.311 32.0263 36.6356 32.4945C34.1202 32.9135 32.1767 33.1337 30.4319 32.6378C29.6267 32.4091 28.864 32.0279 28.107 31.4434V16.66C28.7977 16.1697 29.51 15.6825 30.1656 15.1539C31.6481 13.9588 32.8411 12.5521 32.8411 10.4189V6.29584C35.5516 6.29584 37.7862 8.51106 37.7862 11.2402V14.4384C37.6606 15.3492 37.5156 15.3331 36.9693 15.8794C36.4437 16.4052 36.1173 17.1309 36.1173 17.9298ZM43.7734 19.3321H39.0196C38.2498 19.3321 37.6173 18.6996 37.6173 17.9298C37.6173 17.1621 38.2516 16.5246 39.0196 16.5246L43.7736 16.5247C44.5396 16.5247 45.1788 17.1637 45.1788 17.9297C45.1787 18.6999 44.5428 19.3321 43.7734 19.3321ZM44.6803 23.6396C42.4911 23.6396 40.3021 23.6367 38.1129 23.6367C37.3431 23.6367 36.7106 23.0043 36.7106 22.2345C36.7106 21.4647 37.3431 20.8321 38.1129 20.8321C40.3021 20.8321 42.4911 20.8292 44.6803 20.8292C45.4485 20.8293 46.0854 21.4668 46.0854 22.2346C46.0854 23.0005 45.4462 23.6396 44.6803 23.6396ZM43.1699 27.9413C41.7865 27.9413 40.4045 27.9398 39.0197 27.9442C38.2518 27.9442 37.6144 27.3068 37.6143 26.5389C37.6144 25.7708 38.252 25.1367 39.0197 25.1367H43.1699C43.9397 25.1367 44.5721 25.7691 44.5721 26.5389C44.5721 27.3087 43.9398 27.9413 43.1699 27.9413ZM39.0196 32.2487C38.2535 32.2487 37.6144 31.6094 37.6144 30.8433C37.6144 30.1053 38.2099 29.4798 38.9457 29.4403C39.9078 29.4643 40.9164 29.4404 41.8862 29.4412C42.656 29.4412 43.2913 30.0739 43.2913 30.8437C43.2913 31.6115 42.6539 32.2487 41.8862 32.2487H39.0196ZM39.2862 14.2608V11.2403C39.2862 10.3816 39.1143 9.54691 38.7944 8.7775L40.8213 10.8045L39.2862 14.2608Z" fill="white"/>
</svg>
