<svg width="20" height="21" viewBox="0 0 20 21" fill="none" xmlns="http://www.w3.org/2000/svg">
<g clip-path="url(#clip0_692_21843)">
<path d="M19.8678 10.1808L15.3225 5.63545C15.1592 5.44479 14.8722 5.42257 14.6816 5.58588C14.4909 5.74916 14.4687 6.03611 14.632 6.22677C14.6472 6.24454 14.6638 6.26114 14.6816 6.27634L18.4497 10.049H0.454523C0.203512 10.049 0 10.2525 0 10.5036C0 10.7546 0.203512 10.9581 0.454523 10.9581H18.4497L14.6816 14.7262C14.4909 14.8895 14.4687 15.1764 14.632 15.3671C14.7953 15.5577 15.0822 15.58 15.2729 15.4166C15.2907 15.4014 15.3073 15.3849 15.3225 15.3671L19.8679 10.8217C20.0441 10.6445 20.0441 10.3581 19.8678 10.1808Z" fill="white"/>
</g>
<defs>
<clipPath id="clip0_692_21843">
<rect width="20" height="20" fill="white" transform="translate(0 0.5)"/>
</clipPath>
</defs>
</svg>
