<svg width="20" height="21" viewBox="0 0 20 21" fill="none" xmlns="http://www.w3.org/2000/svg">
<g clip-path="url(#clip0_692_21484)">
<path d="M0.132183 10.8192L4.67753 15.3645C4.84081 15.5552 5.12776 15.5774 5.31842 15.4141C5.50908 15.2508 5.53131 14.9639 5.36799 14.7732C5.35276 14.7555 5.33619 14.7389 5.31842 14.7237L1.55032 10.951L19.5455 10.951C19.7965 10.951 20 10.7475 20 10.4964C20 10.2454 19.7965 10.0419 19.5455 10.0419L1.55032 10.0419L5.31842 6.27381C5.50908 6.11053 5.53131 5.82358 5.36799 5.63292C5.20467 5.44226 4.91776 5.42004 4.7271 5.58335C4.70933 5.59859 4.69273 5.61515 4.67753 5.63292L0.132143 10.1783C-0.0440655 10.3555 -0.0440636 10.6419 0.132183 10.8192Z" fill="white"/>
</g>
<defs>
<clipPath id="clip0_692_21484">
<rect width="20" height="20" fill="white" transform="matrix(-1 0 0 -1 20 20.5)"/>
</clipPath>
</defs>
</svg>
