<svg width="71" height="70" viewBox="0 0 71 70" fill="none" xmlns="http://www.w3.org/2000/svg">
<path d="M64.8819 18.0179C64.7982 16.1764 64.7982 14.4185 64.7982 12.6607C64.7982 11.2377 63.71 10.1495 62.287 10.1495C51.8236 10.1495 43.8714 7.13602 37.2586 0.690583C36.2541 -0.230194 34.7474 -0.230194 33.7429 0.690583C27.13 7.13602 19.1779 10.1495 8.71447 10.1495C7.29146 10.1495 6.20326 11.2377 6.20326 12.6607C6.20326 14.4185 6.20326 16.1764 6.11956 18.0179C5.78473 35.5964 5.28249 59.704 34.6637 69.8326L35.5007 70L36.3378 69.8326C65.6353 59.704 65.2167 35.6801 64.8819 18.0179ZM33.4918 42.3767C32.9895 42.7952 32.4036 43.0463 31.7339 43.0463H31.6502C30.9805 43.0463 30.3109 42.7115 29.8924 42.2093L22.1076 33.5874L25.8744 30.2392L31.985 37.0194L45.5456 24.1285L48.9776 27.8117L33.4918 42.3767Z" fill="url(#paint0_linear_881_4608)"/>
<defs>
<linearGradient id="paint0_linear_881_4608" x1="-12.6726" y1="36.487" x2="52.7443" y2="36.276" gradientUnits="userSpaceOnUse">
<stop offset="0.3063" stop-color="#0668EB"/>
<stop offset="1" stop-color="#0F88FA"/>
</linearGradient>
</defs>
</svg>
