<svg width="223" height="47" viewBox="0 0 223 47" fill="none" xmlns="http://www.w3.org/2000/svg">
<path d="M0.72542 1.41786C0.494643 1.26621 0.430495 0.956196 0.582141 0.725422C0.733787 0.494644 1.0438 0.430496 1.27458 0.582142L0.72542 1.41786ZM66.438 44V44.5H66.2884L66.1634 44.4179L66.438 44ZM216.833 44C216.833 42.5272 218.027 41.3333 219.5 41.3333C220.973 41.3333 222.167 42.5272 222.167 44C222.167 45.4728 220.973 46.6667 219.5 46.6667C218.027 46.6667 216.833 45.4728 216.833 44ZM1.27458 0.582142L66.7126 43.5821L66.1634 44.4179L0.72542 1.41786L1.27458 0.582142ZM66.438 43.5H219.5V44.5H66.438V43.5Z" fill="url(#paint0_linear_692_15676)"/>
<defs>
<linearGradient id="paint0_linear_692_15676" x1="-40.9403" y1="22.4857" x2="304.198" y2="22.4857" gradientUnits="userSpaceOnUse">
<stop stop-color="#0E8CFA"/>
<stop offset="0.7719" stop-color="#00AAFB"/>
</linearGradient>
</defs>
</svg>
