<svg width="249" height="401" viewBox="0 0 249 401" fill="none" xmlns="http://www.w3.org/2000/svg">
<path d="M133.493 132.229C137.525 135.343 142.606 137.171 148.094 137.171H159.951C163.305 143.059 165.236 149.862 165.236 157.138C165.236 164.414 163.305 171.217 159.951 177.071H78.5447C73.1244 177.071 68.1106 178.865 64.0792 181.911V181.877C60.2511 184.686 55.5422 186.344 50.4267 186.344C45.5484 186.344 41.0089 184.821 37.2824 182.216H37.2485C33.522 179.576 28.9486 178.019 24.0026 178.019C11.2986 178.019 1.03388 188.307 1.03388 200.965C1.03388 207.699 3.91343 213.723 8.52072 217.92C15.0251 225.027 19.0226 234.469 19.0226 244.893C19.0226 255.249 15.059 264.691 8.58847 271.764C3.94731 275.961 1 282.052 1 288.787C1 301.478 11.2986 311.732 23.9687 311.732C36.6726 311.732 46.9374 301.444 46.9374 288.787C46.9374 282.323 44.2611 276.502 39.9926 272.339H40.0264C33.2171 265.165 29.0503 255.519 29.0503 244.859C29.0503 234.909 32.709 225.805 38.773 218.8C42.1946 216.803 46.1582 215.652 50.3928 215.652C55.4405 215.652 60.1156 217.277 63.9098 220.052H64.0453C68.0767 223.098 73.0905 224.925 78.5109 224.925H106.934C110.288 230.814 112.219 237.65 112.219 244.926C112.219 252.169 110.321 258.971 106.968 264.86H78.1043C64.8584 264.86 54.1193 275.588 54.1193 288.821C54.1193 302.053 64.8584 312.782 78.1043 312.782H214.561C217.983 318.67 219.914 325.473 219.914 332.749C219.914 343.376 215.747 353.055 208.938 360.229H208.972C204.669 364.392 202.027 370.213 202.027 376.677C202.027 389.368 212.325 399.623 224.996 399.623C237.699 399.623 247.964 389.334 247.964 376.677C247.964 369.942 245.051 363.885 240.443 359.688C233.939 352.581 229.975 343.139 229.975 332.783C229.975 323.205 233.363 314.44 238.987 307.536C244.475 303.136 247.964 296.402 247.964 288.855C247.964 275.622 237.225 264.894 223.979 264.894H129.428C126.074 259.039 124.177 252.237 124.177 244.96C124.177 237.684 126.108 230.848 129.462 224.959H170.487C175.975 224.959 181.057 223.098 185.122 220.018C188.916 217.243 193.558 215.72 198.639 215.72C203.551 215.72 208.091 217.277 211.817 219.883V219.781C215.544 222.421 220.117 223.978 225.063 223.978C237.767 223.978 248.032 213.689 248.032 201.032C248.032 188.341 237.733 178.087 225.063 178.087C220.117 178.087 215.578 179.643 211.817 182.283H211.75C208.023 184.889 203.517 186.412 198.605 186.412C194.133 186.412 189.967 185.126 186.443 182.96C180.616 175.988 177.127 166.986 177.127 157.172C177.127 149.895 179.058 143.093 182.412 137.204H224.047C237.293 137.204 248.032 126.476 248.032 113.244C248.032 106.813 245.559 101.06 241.46 96.762C234.786 89.5873 230.687 79.9421 230.687 69.3154C230.687 58.6549 234.752 49.0096 241.494 41.8011C245.559 37.503 248.032 31.7159 248.032 25.3534C248.032 12.1208 237.293 1.39258 224.047 1.39258H186.071C172.825 1.39258 162.086 12.1208 162.086 25.3534C162.086 38.586 172.825 49.3142 186.071 49.3142H213.511C216.865 55.2029 218.796 62.0053 218.796 69.2815C218.796 76.5578 216.865 83.3602 213.511 89.2151H148.094C142.606 89.2151 137.559 91.0764 133.493 94.1561C129.665 96.9651 125.058 98.5219 119.976 98.5219C115.098 98.5219 110.559 96.9989 106.832 94.393H106.764C103.004 91.7533 98.4645 90.1965 93.5184 90.1965C80.8145 90.1965 70.5497 100.485 70.5497 113.142C70.5497 125.833 80.8484 136.088 93.5184 136.088C98.4645 136.088 103.004 134.531 106.764 131.891V131.993C110.491 129.387 115.03 127.83 119.943 127.83C125.024 127.898 129.699 129.454 133.493 132.229ZM110.762 128.371C110.796 128.371 110.796 128.371 110.762 128.371Z" fill="url(#paint0_linear_692_21737)" stroke="black" stroke-miterlimit="10"/>
<defs>
<linearGradient id="paint0_linear_692_21737" x1="-46.4169" y1="200.64" x2="343.79" y2="200.64" gradientUnits="userSpaceOnUse">
<stop stop-color="#0E8CFA"/>
<stop offset="0.7719" stop-color="#00AAFB"/>
</linearGradient>
</defs>
</svg>
