<svg width="196" height="138" viewBox="0 0 196 138" fill="none" xmlns="http://www.w3.org/2000/svg">
<path d="M171.046 88.5718H105.629C102.276 82.6832 100.345 75.8807 100.345 68.6383C100.345 61.3621 102.276 54.5597 105.629 48.671H117.148C130.36 48.671 141.031 37.9766 141.031 24.8117V24.6425C141.031 11.4437 130.326 0.783203 117.148 0.783203H25.0357C11.8236 0.783203 1.15234 11.4776 1.15234 24.6425V24.8117C1.15234 38.0104 11.8575 48.671 25.0357 48.671H83.135C86.4888 54.5597 88.4198 61.3621 88.4198 68.6383C88.4198 79.2312 84.3207 88.8764 77.6469 96.085C73.5816 100.383 71.0747 106.17 71.0747 112.566C71.0747 125.799 81.8138 136.527 95.0597 136.527H171.012C184.258 136.527 194.997 125.799 194.997 112.566C195.031 99.3 184.292 88.5718 171.046 88.5718Z" stroke="url(#paint0_linear_692_21741)" stroke-miterlimit="10"/>
<defs>
<linearGradient id="paint0_linear_692_21741" x1="-36.0555" y1="68.7003" x2="270.138" y2="68.7003" gradientUnits="userSpaceOnUse">
<stop stop-color="#0E8CFA"/>
<stop offset="0.7719" stop-color="#00AAFB"/>
</linearGradient>
</defs>
</svg>
