<svg width="249" height="312" viewBox="0 0 249 312" fill="none" xmlns="http://www.w3.org/2000/svg">
<path d="M240.411 41.0545C245.052 36.8579 247.999 30.7662 247.999 24.0315C247.999 11.3404 237.701 1.08594 225.031 1.08594C212.327 1.08594 202.062 11.3742 202.062 24.0315C202.062 30.4955 204.738 36.3165 209.007 40.4791H208.973C215.782 47.6538 219.949 57.2991 219.949 67.9596C219.949 77.9095 216.29 87.0132 210.226 94.0187C206.805 96.0154 202.841 97.1661 198.607 97.1661C194.203 97.1661 190.137 95.9478 186.648 93.8157C182.447 90.1606 176.925 87.927 170.895 87.927H34.4042C30.9826 82.0383 29.0516 75.2359 29.0516 67.9596C29.0516 57.3329 33.2185 47.6538 40.0278 40.4791H39.9939C44.2963 36.3165 46.9387 30.4955 46.9387 24.0315C46.9387 11.3404 36.6401 1.08594 23.97 1.08594C11.2661 1.08594 1.00134 11.3742 1.00134 24.0315C1.00134 30.7662 3.91477 36.8241 8.52206 41.0206C15.0265 48.1277 18.9901 57.5698 18.9901 67.9258C18.9901 77.5033 15.6024 86.2687 9.97878 93.1726C4.49068 97.5722 1.00134 104.307 1.00134 111.854C1.00134 125.087 11.7404 135.815 24.9863 135.815H74.6841C78.0379 141.703 79.9689 148.54 79.9689 155.816C79.9689 163.194 77.9701 170.132 74.5147 176.054C70.6188 176.697 67.0617 178.288 64.0128 180.589V180.555C60.1847 183.364 55.4757 185.022 50.3603 185.022C45.482 185.022 40.9425 183.499 37.216 180.894H37.1821C33.4556 178.254 28.8822 176.697 23.9361 176.697C11.2322 176.697 0.967452 186.985 0.967452 199.643C0.967452 206.377 3.847 212.401 8.45429 216.598C14.9587 223.705 18.9562 233.147 18.9562 243.571C18.9562 253.114 15.6024 261.88 9.97878 268.75C4.45681 273.149 0.933594 279.884 0.933594 287.499C0.933594 300.731 11.6726 311.46 24.9186 311.46H100.871C114.117 311.46 124.856 300.731 124.856 287.499C124.856 274.266 114.117 263.538 100.871 263.538H34.4042C31.0165 257.683 29.0516 250.847 29.0516 243.571C29.0516 233.621 32.7103 224.517 38.7743 217.512C42.1959 215.515 46.1595 214.364 50.3942 214.364C55.4419 214.364 60.1169 215.989 63.9111 218.764H64.0467C68.078 221.81 73.0918 223.637 78.5122 223.637H170.455C183.701 223.637 194.44 212.909 194.44 199.676C194.44 186.444 183.701 175.716 170.455 175.716H97.1446C93.7907 169.861 91.8936 163.058 91.8936 155.782C91.8936 148.506 93.8246 141.67 97.1785 135.781H170.895C176.993 135.781 182.583 133.48 186.817 129.723C190.273 127.659 194.304 126.474 198.607 126.474C203.485 126.474 208.024 127.997 211.751 130.603H211.785C215.511 133.243 220.085 134.799 225.031 134.799C237.735 134.799 247.999 124.511 247.999 111.854C247.999 105.119 245.12 99.0952 240.513 94.8986C234.008 87.7916 230.011 78.3494 230.011 67.9258C229.977 57.5698 233.94 48.1615 240.411 41.0545Z" fill="url(#paint0_linear_692_21738)" stroke="url(#paint1_linear_692_21738)" stroke-miterlimit="10"/>
<defs>
<linearGradient id="paint0_linear_692_21738" x1="-46.4898" y1="156.376" x2="343.771" y2="156.376" gradientUnits="userSpaceOnUse">
<stop stop-color="#0E8CFA"/>
<stop offset="0.7719" stop-color="#00AAFB"/>
</linearGradient>
<linearGradient id="paint1_linear_692_21738" x1="-46.4898" y1="156.376" x2="343.771" y2="156.376" gradientUnits="userSpaceOnUse">
<stop stop-color="#0E8CFA"/>
<stop offset="0.7719" stop-color="#00AAFB"/>
</linearGradient>
</defs>
</svg>
