<svg width="127" height="64" viewBox="0 0 127 64" fill="none" xmlns="http://www.w3.org/2000/svg">
<path d="M28.5 1L28.8222 0.617636L28.3129 0.188555L28.0429 0.797273L28.5 1ZM82.5 46.5L82.1778 46.8824L82.6744 47.3008L82.952 46.7138L82.5 46.5ZM100 9.5V9H99.6834L99.548 9.28622L100 9.5ZM120.833 9.5C120.833 10.9728 122.027 12.1667 123.5 12.1667C124.973 12.1667 126.167 10.9728 126.167 9.5C126.167 8.02724 124.973 6.83333 123.5 6.83333C122.027 6.83333 120.833 8.02724 120.833 9.5ZM1.45706 63.2027L28.9571 1.20273L28.0429 0.797273L0.542942 62.7973L1.45706 63.2027ZM28.1778 1.38236L82.1778 46.8824L82.8222 46.1176L28.8222 0.617636L28.1778 1.38236ZM82.952 46.7138L100.452 9.71378L99.548 9.28622L82.048 46.2862L82.952 46.7138ZM100 10H123.5V9H100V10Z" fill="white"/>
</svg>
