<svg width="141" height="137" viewBox="0 0 141 137" fill="none" xmlns="http://www.w3.org/2000/svg">
<path d="M101.413 40.6576C108.189 47.8323 112.356 57.4775 112.356 68.138C112.356 75.4143 110.391 82.2167 107.003 88.1054H24.5123C11.2664 88.1054 0.527344 98.8336 0.527344 112.066C0.527344 125.299 11.2664 136.027 24.5123 136.027H116.455C129.701 136.027 140.44 125.299 140.44 112.066C140.44 104.485 136.917 97.7506 131.428 93.351C125.805 86.4809 122.451 77.7156 122.451 68.1719C122.451 57.7821 126.415 48.3737 132.919 41.2667C137.56 37.0702 140.44 31.0123 140.44 24.2776C140.44 11.5864 130.141 1.33203 117.471 1.33203C104.767 1.33203 94.5025 11.6203 94.5025 24.2776C94.4686 30.64 97.111 36.4949 101.413 40.6576Z" stroke="url(#paint0_linear_692_21739)" stroke-miterlimit="10"/>
<defs>
<linearGradient id="paint0_linear_692_21739" x1="-26.3284" y1="68.7242" x2="194.675" y2="68.7242" gradientUnits="userSpaceOnUse">
<stop stop-color="#0E8CFA"/>
<stop offset="0.7719" stop-color="#00AAFB"/>
</linearGradient>
</defs>
</svg>
