<svg width="248" height="399" viewBox="0 0 248 399" fill="none" xmlns="http://www.w3.org/2000/svg">
<path d="M132.493 131.229C136.525 134.343 141.606 136.171 147.094 136.171H158.951C162.305 142.059 164.236 148.862 164.236 156.138C164.236 163.414 162.305 170.217 158.951 176.071H77.5447C72.1244 176.071 67.1106 177.865 63.0792 180.911V180.877C59.2511 183.686 54.5422 185.344 49.4267 185.344C44.5484 185.344 40.0089 183.821 36.2824 181.215H36.2485C32.522 178.576 27.9486 177.019 23.0026 177.019C10.2986 177.019 0.0338771 187.307 0.0338771 199.965C0.0338771 206.699 2.91343 212.723 7.52072 216.92C14.0251 224.027 18.0226 233.469 18.0226 243.893C18.0226 254.249 14.059 263.691 7.58847 270.764C2.94731 274.961 0 281.052 0 287.787C0 300.478 10.2986 310.732 22.9687 310.732C35.6726 310.732 45.9374 300.444 45.9374 287.787C45.9374 281.323 43.2611 275.502 38.9926 271.339H39.0264C32.2171 264.165 28.0503 254.519 28.0503 243.859C28.0503 233.909 31.709 224.805 37.773 217.8C41.1946 215.803 45.1582 214.652 49.3928 214.652C54.4405 214.652 59.1156 216.277 62.9098 219.052H63.0453C67.0767 222.098 72.0905 223.925 77.5108 223.925H105.934C109.288 229.814 111.219 236.65 111.219 243.926C111.219 251.169 109.321 257.971 105.968 263.86H77.1043C63.8584 263.86 53.1193 274.588 53.1193 287.821C53.1193 301.053 63.8584 311.782 77.1043 311.782H213.561C216.983 317.67 218.914 324.473 218.914 331.749C218.914 342.376 214.747 352.055 207.938 359.229H207.972C203.669 363.392 201.027 369.213 201.027 375.677C201.027 388.368 211.325 398.623 223.996 398.623C236.699 398.623 246.964 388.334 246.964 375.677C246.964 368.942 244.051 362.885 239.443 358.688C232.939 351.581 228.975 342.139 228.975 331.783C228.975 322.205 232.363 313.44 237.987 306.536C243.475 302.136 246.964 295.402 246.964 287.855C246.964 274.622 236.225 263.894 222.979 263.894H128.428C125.074 258.039 123.177 251.237 123.177 243.96C123.177 236.684 125.108 229.848 128.462 223.959H169.487C174.975 223.959 180.057 222.098 184.122 219.018C187.916 216.243 192.558 214.72 197.639 214.72C202.551 214.72 207.091 216.277 210.817 218.883V218.781C214.544 221.421 219.117 222.978 224.063 222.978C236.767 222.978 247.032 212.689 247.032 200.032C247.032 187.341 236.733 177.087 224.063 177.087C219.117 177.087 214.578 178.643 210.817 181.283H210.75C207.023 183.889 202.517 185.412 197.605 185.412C193.133 185.412 188.967 184.126 185.443 181.96C179.616 174.988 176.127 165.986 176.127 156.172C176.127 148.895 178.058 142.093 181.412 136.204H223.047C236.293 136.204 247.032 125.476 247.032 112.244C247.032 105.813 244.559 100.06 240.46 95.762C233.786 88.5873 229.687 78.9421 229.687 68.3154C229.687 57.6549 233.752 48.0096 240.494 40.8011C244.559 36.503 247.032 30.7159 247.032 24.3534C247.032 11.1208 236.293 0.392578 223.047 0.392578H185.071C171.825 0.392578 161.086 11.1208 161.086 24.3534C161.086 37.586 171.825 48.3142 185.071 48.3142H212.511C215.865 54.2029 217.796 61.0053 217.796 68.2815C217.796 75.5578 215.865 82.3602 212.511 88.2151H147.094C141.606 88.2151 136.559 90.0764 132.493 93.1561C128.665 95.9651 124.058 97.5219 118.976 97.5219C114.098 97.5219 109.559 95.9989 105.832 93.393H105.764C102.004 90.7533 97.4645 89.1965 92.5184 89.1965C79.8145 89.1965 69.5497 99.4848 69.5497 112.142C69.5497 124.833 79.8484 135.088 92.5184 135.088C97.4645 135.088 102.004 133.531 105.764 130.891V130.993C109.491 128.387 114.03 126.83 118.943 126.83C124.024 126.898 128.699 128.454 132.493 131.229ZM109.762 127.371C109.796 127.371 109.796 127.371 109.762 127.371V127.371Z" fill="white"/>
</svg>
