<svg width="126" height="138" viewBox="0 0 126 138" fill="none" xmlns="http://www.w3.org/2000/svg">
<path d="M24.985 137.17H100.938C114.183 137.17 124.923 126.442 124.923 113.21C124.923 99.9771 114.183 89.2489 100.938 89.2489H74.886C71.5322 83.3602 69.6012 76.5578 69.6012 69.3154C69.6012 58.6549 73.6664 49.0096 80.408 41.8011C84.4732 37.503 86.9463 31.7159 86.9463 25.3534C86.9463 12.1208 76.2072 1.39258 62.9613 1.39258H24.985C11.7391 1.39258 1 12.1208 1 25.3534C1 38.586 11.7391 49.3142 24.985 49.3142H52.4255C55.7793 55.2029 57.7103 62.0053 57.7103 69.2815C57.7103 76.5578 55.7793 83.3602 52.4255 89.215H24.985C11.7391 89.215 1 99.9433 1 113.176C1 126.442 11.7391 137.17 24.985 137.17Z" stroke="url(#paint0_linear_692_21740)" stroke-miterlimit="10"/>
<defs>
<linearGradient id="paint0_linear_692_21740" x1="-22.7865" y1="69.3266" x2="172.959" y2="69.3266" gradientUnits="userSpaceOnUse">
<stop stop-color="#0E8CFA"/>
<stop offset="0.7719" stop-color="#00AAFB"/>
</linearGradient>
</defs>
</svg>
