<svg width="20" height="21" viewBox="0 0 20 21" fill="none" xmlns="http://www.w3.org/2000/svg">
<g clip-path="url(#clip0_1702_143)">
<path d="M6.25078 18.6292C13.7984 18.6292 17.9258 12.3762 17.9258 6.95417C17.9258 6.77656 17.9221 6.59971 17.9142 6.42378C18.7152 5.84455 19.4117 5.12174 19.961 4.29898C19.2258 4.62583 18.4345 4.84571 17.6046 4.94504C18.4517 4.43692 19.1022 3.63339 19.4089 2.67545C18.6161 3.14542 17.7381 3.48691 16.8033 3.67139C16.0546 2.87381 14.9884 2.375 13.808 2.375C11.5421 2.375 9.70446 4.21262 9.70446 6.47779C9.70446 6.79991 9.74047 7.11302 9.81081 7.41346C6.40046 7.2418 3.37632 5.60911 1.35269 3.12619C1.00037 3.73258 0.797121 4.43708 0.797121 5.18873C0.797121 6.61222 1.52161 7.86909 2.62314 8.60426C1.94992 8.58351 1.3176 8.39872 0.764772 8.09111C0.764162 8.10835 0.764162 8.12513 0.764162 8.14344C0.764162 10.1308 2.1785 11.79 4.05625 12.166C3.7114 12.2598 3.34855 12.3103 2.97425 12.3103C2.71027 12.3103 2.45301 12.2844 2.20292 12.2363C2.72538 13.8667 4.24027 15.0531 6.03624 15.0864C4.63181 16.1871 2.86255 16.8428 0.939791 16.8428C0.60898 16.8428 0.282136 16.8239 -0.0390625 16.786C1.77689 17.95 3.93342 18.6293 6.25093 18.6293" fill="white"/>
</g>
<defs>
<clipPath id="clip0_1702_143">
<rect width="20" height="20" fill="white" transform="translate(0 0.5)"/>
</clipPath>
</defs>
</svg>
