<svg width="17" height="17" viewBox="0 0 17 17" fill="none" xmlns="http://www.w3.org/2000/svg">
<g clip-path="url(#clip0_692_22017)">
<path d="M8.5 16.5C12.9183 16.5 16.5 12.9183 16.5 8.5C16.5 4.08172 12.9183 0.5 8.5 0.5C4.08172 0.5 0.5 4.08172 0.5 8.5C0.5 12.9183 4.08172 16.5 8.5 16.5Z" fill="#012169"/>
<path d="M14.6642 3.40234L8.49996 7.10101L2.3357 3.40234C1.823 4.02231 1.40693 4.71619 1.10156 5.46048L6.16823 8.50048L1.10156 11.5405C1.40669 12.2849 1.82259 12.979 2.33516 13.5991L8.49996 9.89994L14.6648 13.5986C15.1773 12.9785 15.5932 12.2844 15.8984 11.5399L10.8317 8.49994L15.8984 5.45994C15.593 4.71584 15.1769 4.02215 14.6642 3.40234Z" fill="white"/>
<path d="M2.09406 13.2768L9.27753 8.96639L15.3533 12.6117C15.491 12.3826 15.6172 12.1468 15.7314 11.9051L9.27806 8.03306L15.3533 4.38826C15.215 4.15857 15.0662 3.9367 14.9069 3.72266L7.72286 8.03306L1.64713 4.38826C1.51024 4.61652 1.38438 4.8519 1.26953 5.09439L7.72286 8.96639L1.64713 12.6117C1.78491 12.8407 1.93407 13.0627 2.09406 13.2768Z" fill="#C8102E"/>
<path d="M10.5 0.762403C9.18962 0.412532 7.81039 0.412532 6.5 0.762403V6.5H0.762403C0.412532 7.81039 0.412532 9.18962 0.762403 10.5H6.5V16.2376C7.81039 16.5875 9.18962 16.5875 10.5 16.2376V10.5H16.2376C16.5875 9.18962 16.5875 7.81039 16.2376 6.5H10.5V0.762403Z" fill="white"/>
<path d="M9.7 0.599733C9.30307 0.536454 8.90193 0.503116 8.5 0.5C8.09807 0.503116 7.69693 0.536454 7.3 0.599733V7.3H0.599733C0.536454 7.69693 0.503116 8.09807 0.5 8.5C0.503116 8.90193 0.536454 9.30307 0.599733 9.7H7.3V16.4003C7.69693 16.4635 8.09807 16.4969 8.5 16.5C8.90193 16.4969 9.30307 16.4635 9.7 16.4003V9.7H16.4003C16.4635 9.30307 16.4969 8.90193 16.5 8.5C16.4969 8.09807 16.4635 7.69693 16.4003 7.3H9.7V0.599733Z" fill="#C8102E"/>
</g>
<defs>
<clipPath id="clip0_692_22017">
<rect width="16" height="16" fill="white" transform="translate(0.5 0.5)"/>
</clipPath>
</defs>
</svg>
