<svg width="346" height="47" viewBox="0 0 346 47" fill="none" xmlns="http://www.w3.org/2000/svg">
<path d="M0.722642 46.084C0.49288 46.2372 0.4308 46.5476 0.58398 46.7774C0.737161 47.0071 1.0476 47.0692 1.27736 46.916L0.722642 46.084ZM66.2472 3V2.5H66.0958L65.9698 2.58398L66.2472 3ZM340.333 3C340.333 4.47276 341.527 5.66667 343 5.66667C344.473 5.66667 345.667 4.47276 345.667 3C345.667 1.52724 344.473 0.333333 343 0.333333C341.527 0.333333 340.333 1.52724 340.333 3ZM1.27736 46.916L66.5246 3.41602L65.9698 2.58398L0.722642 46.084L1.27736 46.916ZM66.2472 3.5H343V2.5H66.2472V3.5Z" fill="url(#paint0_linear_692_19367)"/>
<defs>
<linearGradient id="paint0_linear_692_19367" x1="-64.6457" y1="24.7644" x2="475.571" y2="24.7644" gradientUnits="userSpaceOnUse">
<stop stop-color="#0E8CFA"/>
<stop offset="0.7719" stop-color="#00AAFB"/>
</linearGradient>
</defs>
</svg>
