<svg width="195" height="56" viewBox="0 0 195 56" fill="none" xmlns="http://www.w3.org/2000/svg">
<path d="M26.5 1L26.8844 0.680261L26.5305 0.254807L26.143 0.649896L26.5 1ZM71 54.5L70.6156 54.8197L71.1169 55.4224L71.452 54.7138L71 54.5ZM88.5 17.5V17H88.1834L88.048 17.2862L88.5 17.5ZM188.833 17.5C188.833 18.9728 190.027 20.1667 191.5 20.1667C192.973 20.1667 194.167 18.9728 194.167 17.5C194.167 16.0272 192.973 14.8333 191.5 14.8333C190.027 14.8333 188.833 16.0272 188.833 17.5ZM1.35697 27.3501L26.857 1.3501L26.143 0.649896L0.643031 26.6499L1.35697 27.3501ZM26.1156 1.31974L70.6156 54.8197L71.3844 54.1803L26.8844 0.680261L26.1156 1.31974ZM71.452 54.7138L88.952 17.7138L88.048 17.2862L70.548 54.2862L71.452 54.7138ZM88.5 18H191.5V17H88.5V18Z" fill="url(#paint0_linear_692_19369)"/>
<defs>
<linearGradient id="paint0_linear_692_19369" x1="-35.5658" y1="27.7678" x2="265.345" y2="27.7678" gradientUnits="userSpaceOnUse">
<stop stop-color="#0E8CFA"/>
<stop offset="0.7719" stop-color="#00AAFB"/>
</linearGradient>
</defs>
</svg>
